<svg width="101" height="101" viewBox="0 0 101 101" fill="none" xmlns="http://www.w3.org/2000/svg">
<path fill-rule="evenodd" clip-rule="evenodd" d="M50.0979 75.8555C41.074 75.8555 31.9062 70.4864 26.5557 63.3799C0.885839 63.3799 0.109863 100.136 0.109863 100.136H100.08C100.08 100.136 102.095 63.2168 73.227 63.2168C67.8828 70.4111 59.1217 75.8555 50.0979 75.8555Z" fill="#6A2823"/>
<path fill-rule="evenodd" clip-rule="evenodd" d="M71.6059 31.7929C71.6059 42.368 61.975 62.5898 50.085 62.5898C38.2138 62.5898 28.5767 42.3617 28.5767 31.7929C28.5767 21.2241 38.2075 12.6436 50.085 12.6436C61.975 12.6498 71.6059 21.2303 71.6059 31.7929Z" fill="#6A2823"/>
<path fill-rule="evenodd" clip-rule="evenodd" d="M81.2033 22.6673C81.2033 20.6852 78.4498 19.0858 75.033 19.0733V14.99C75.033 14.3816 75.2646 0.137207 50.1579 0.137207C25.0638 0.137207 25.2953 14.3816 25.2953 14.99V19.2175C25.2328 19.2175 25.1827 19.1987 25.1264 19.1987C21.7283 19.1987 18.9937 20.7731 18.9937 22.7237V39.9976C18.9937 41.9358 21.7346 43.5164 25.1264 43.5164C28.5182 43.5164 31.2716 41.9358 31.2716 39.9976V22.7237C31.2716 22.454 31.1027 22.2094 31.0025 21.9585V17.248C31.0025 16.8152 29.2003 6.06453 50.1579 6.06453C71.1219 6.06453 68.9441 16.8152 68.9441 17.248V22.2094C68.9066 22.3662 68.7877 22.5042 68.7877 22.6673V40.3363C68.7877 42.3247 71.5599 43.9366 74.9955 43.9366C75.0706 43.9366 75.1269 43.9116 75.202 43.9116V50.3657H69.0442V56.4499H81.2659L81.2033 22.6673Z" fill="#6A2823"/>
</svg>
