<svg width="100" height="100" viewBox="0 0 100 100" fill="none" xmlns="http://www.w3.org/2000/svg">
<path d="M71.4585 0H27.7085C22.5327 0 18.3335 4.19922 18.3335 9.375V90.625C18.3335 95.8008 22.5327 100 27.7085 100H71.4585C76.6343 100 80.8335 95.8008 80.8335 90.625V9.375C80.8335 4.19922 76.6343 0 71.4585 0ZM49.5835 93.75C46.1265 93.75 43.3335 90.957 43.3335 87.5C43.3335 84.043 46.1265 81.25 49.5835 81.25C53.0405 81.25 55.8335 84.043 55.8335 87.5C55.8335 90.957 53.0405 93.75 49.5835 93.75Z" fill="#6A2823"/>
<path d="M70.4617 37.1717L73.3335 40.0202L59.9386 53.3333L52.8207 46.2626L55.6925 43.4141L59.9386 47.6162L70.4617 37.1717ZM47.6925 46.2626L53.8463 52.3232H33.3335V48.2828C33.3335 43.8182 40.6771 40.202 49.7438 40.202L53.6207 40.4242L47.6925 46.2626ZM49.7438 20C51.9199 20 54.0069 20.8514 55.5457 22.3668C57.0844 23.8823 57.9489 25.9376 57.9489 28.0808C57.9489 30.224 57.0844 32.2794 55.5457 33.7948C54.0069 35.3102 51.9199 36.1616 49.7438 36.1616C47.5676 36.1616 45.4806 35.3102 43.9419 33.7948C42.4031 32.2794 41.5386 30.224 41.5386 28.0808C41.5386 25.9376 42.4031 23.8823 43.9419 22.3668C45.4806 20.8514 47.5676 20 49.7438 20Z" fill="white"/>
</svg>
