<svg width="100" height="100" viewBox="0 0 100 100" fill="none" xmlns="http://www.w3.org/2000/svg">
<path d="M50.0001 5.55566C65.6501 5.55566 74.5279 16.239 75.8168 29.1446H76.2057C86.289 29.1446 94.4445 37.5446 94.4445 47.9057C94.4445 48.4334 94.4223 48.9612 94.3834 49.4779C90.3952 44.4962 85.0064 40.8232 78.9115 38.9323C72.8166 37.0414 66.2951 37.0193 60.1875 38.8688C54.0799 40.7183 48.6663 44.3548 44.6444 49.3093C40.6225 54.2639 38.1768 60.3094 37.6223 66.6668H23.789C13.7168 66.6668 5.55566 58.2668 5.55566 47.9057C5.55566 37.5446 13.7223 29.1446 23.789 29.1446H24.1834C25.4834 16.1557 34.3501 5.55566 50.0001 5.55566ZM94.4445 69.4445C94.4445 76.075 91.8106 82.4338 87.1222 87.1222C82.4338 91.8106 76.075 94.4445 69.4445 94.4445C62.8141 94.4445 56.4553 91.8106 51.7669 87.1222C47.0785 82.4338 44.4445 76.075 44.4445 69.4445C44.4445 62.8141 47.0785 56.4553 51.7669 51.7669C56.4553 47.0785 62.8141 44.4446 69.4445 44.4445C76.075 44.4446 82.4338 47.0785 87.1222 51.7669C91.8106 56.4553 94.4445 62.8141 94.4445 69.4445ZM82.5223 59.1446C82.2643 58.8859 81.9578 58.6806 81.6203 58.5406C81.2828 58.4006 80.921 58.3285 80.5557 58.3285C80.1903 58.3285 79.8285 58.4006 79.491 58.5406C79.1536 58.6806 78.847 58.8859 78.589 59.1446L63.889 73.8501L60.3001 70.2557C60.0418 69.9974 59.7352 69.7925 59.3978 69.6528C59.0604 69.513 58.6987 69.441 58.3334 69.441C57.9682 69.441 57.6065 69.513 57.2691 69.6528C56.9316 69.7925 56.625 69.9974 56.3668 70.2557C56.1085 70.5139 55.9036 70.8205 55.7639 71.158C55.6241 71.4954 55.5522 71.8571 55.5522 72.2223C55.5522 72.5876 55.6241 72.9492 55.7639 73.2867C55.9036 73.6241 56.1085 73.9307 56.3668 74.189L61.9223 79.7446C62.1804 80.0032 62.4869 80.2085 62.8244 80.3485C63.1618 80.4885 63.5236 80.5606 63.889 80.5606C64.2544 80.5606 64.6161 80.4885 64.9536 80.3485C65.2911 80.2085 65.5976 80.0032 65.8557 79.7446L82.5223 63.0779C82.781 62.8199 82.9863 62.5133 83.1263 62.1758C83.2663 61.8384 83.3384 61.4766 83.3384 61.1112C83.3384 60.7458 83.2663 60.3841 83.1263 60.0466C82.9863 59.7091 82.781 59.4026 82.5223 59.1446Z" fill="#6A2823"/>
<path d="M44.9212 34.2187H41.1582V19.7135L36.666 21.1068V18.0469L44.5176 15.2344H44.9212V34.2187Z" fill="white"/>
<path d="M63.3796 27.9036C63.232 29.9436 62.4768 31.5495 61.1139 32.7214C59.7598 33.8932 57.9716 34.4792 55.7493 34.4792C53.3188 34.4792 51.4047 33.6632 50.0072 32.0312C48.6183 30.3906 47.9238 28.1424 47.9238 25.2865V24.1276C47.9238 22.3047 48.245 20.6988 48.8874 19.3099C49.5297 17.921 50.4455 16.8576 51.6348 16.1198C52.8327 15.3733 54.2216 15 55.8014 15C57.9889 15 59.7511 15.5859 61.0879 16.7578C62.4247 17.9297 63.1973 19.5747 63.4056 21.6927H59.4993C59.4039 20.4687 59.061 19.5833 58.4707 19.0365C57.8891 18.4809 56.9993 18.2031 55.8014 18.2031C54.4993 18.2031 53.5228 18.6719 52.8717 19.6094C52.2294 20.5382 51.8995 21.9835 51.8822 23.9453V25.3776C51.8822 27.4262 52.1903 28.9236 52.8066 29.8698C53.4316 30.816 54.4125 31.2891 55.7493 31.2891C56.9559 31.2891 57.8544 31.0156 58.4447 30.4687C59.0436 29.9132 59.3865 29.0582 59.4733 27.9036H63.3796Z" fill="white"/>
</svg>
