<svg width="100" height="101" viewBox="0 0 100 101" fill="none" xmlns="http://www.w3.org/2000/svg">
<path d="M99.9999 58.1429V51H78.5713V86.7143H85.7141V72.4286H96.4284V65.2857H85.7141V58.1429H99.9999Z" fill="#6A2823"/>
<path d="M60.7144 86.7143H46.4287V51H60.7144C63.5552 51.0028 66.2787 52.1326 68.2874 54.1413C70.2961 56.15 71.4259 58.8736 71.4287 61.7143V76C71.4259 78.8407 70.2961 81.5643 68.2874 83.573C66.2787 85.5817 63.5552 86.7115 60.7144 86.7143ZM53.5716 79.5714H60.7144C61.6613 79.5705 62.5692 79.1939 63.2388 78.5243C63.9083 77.8548 64.2849 76.9469 64.2859 76V61.7143C64.2849 60.7674 63.9083 59.8595 63.2388 59.19C62.5692 58.5204 61.6613 58.1438 60.7144 58.1429H53.5716V79.5714Z" fill="#6A2823"/>
<path d="M32.1428 51H14.2856V86.7143H21.4285V76H32.1428C34.0363 75.9972 35.8515 75.2437 37.1904 73.9048C38.5293 72.5658 39.2828 70.7507 39.2856 68.8571V58.1429C39.2838 56.249 38.5306 54.4333 37.1915 53.0942C35.8523 51.755 34.0366 51.0019 32.1428 51ZM21.4285 68.8571V58.1429H32.1428L32.1464 68.8571H21.4285Z" fill="#6A2823"/>
<path d="M71.4286 43.8564V29.5707C71.4412 29.1013 71.3519 28.6348 71.167 28.2032C70.982 27.7716 70.7057 27.3853 70.3571 27.0707L45.3571 2.07069C45.0427 1.72192 44.6564 1.44551 44.2248 1.26054C43.7931 1.07556 43.3265 0.986419 42.8571 0.999261H7.14286C5.25019 1.00491 3.43666 1.75928 2.09834 3.0976C0.760017 4.43592 0.0056526 6.24945 0 8.14212V93.8564C0 95.7508 0.752549 97.5676 2.09209 98.9072C3.43164 100.247 5.24845 100.999 7.14286 100.999H64.2857V93.8564H7.14286V8.14212H35.7143V29.5707C35.7199 31.4634 36.4743 33.2769 37.8126 34.6152C39.1509 35.9535 40.9645 36.7079 42.8571 36.7135H64.2857V43.8564H71.4286ZM42.8571 29.5707V9.57069L62.8571 29.5707H42.8571Z" fill="#6A2823"/>
</svg>
