<svg width="100" height="100" viewBox="0 0 100 100" fill="none" xmlns="http://www.w3.org/2000/svg">
<g clip-path="url(#clip0_694_2195)">
<path d="M29.3906 3.28125C28.1 -1.09375 21.9 -1.09375 20.6094 3.28125L20.2969 4.34375C20.104 4.99873 19.767 5.60225 19.3106 6.11004C18.8542 6.61783 18.2898 7.01702 17.659 7.27832C17.0282 7.53963 16.347 7.65644 15.6651 7.62018C14.9833 7.58391 14.3183 7.3955 13.7188 7.06875L12.75 6.5375C8.74062 4.35625 4.35625 8.74063 6.54062 12.7469L7.06875 13.7188C8.4625 16.2812 7.14062 19.4719 4.34375 20.2969L3.28125 20.6094C-1.09375 21.9 -1.09375 28.1 3.28125 29.3906L4.34375 29.7031C4.99873 29.896 5.60225 30.233 6.11004 30.6894C6.61783 31.1458 7.01702 31.7102 7.27832 32.341C7.53963 32.9718 7.65644 33.653 7.62018 34.3349C7.58391 35.0167 7.3955 35.6817 7.06875 36.2812L6.5375 37.25C4.35625 41.2594 8.74063 45.6437 12.7469 43.4594L13.7188 42.9313C14.3183 42.6045 14.9833 42.4161 15.6651 42.3798C16.347 42.3436 17.0282 42.4604 17.659 42.7217C18.2898 42.983 18.8542 43.3822 19.3106 43.89C19.767 44.3978 20.104 45.0013 20.2969 45.6562L20.6094 46.7188C21.9 51.0938 28.1 51.0938 29.3906 46.7188L29.7031 45.6562C29.896 45.0013 30.233 44.3978 30.6894 43.89C31.1458 43.3822 31.7102 42.983 32.341 42.7217C32.9718 42.4604 33.653 42.3436 34.3349 42.3798C35.0167 42.4161 35.6817 42.6045 36.2812 42.9313L37.25 43.4625C41.2594 45.6437 45.6437 41.2594 43.4594 37.2531L42.9313 36.2812C42.6045 35.6817 42.4161 35.0167 42.3798 34.3349C42.3436 33.653 42.4604 32.9718 42.7217 32.341C42.983 31.7102 43.3822 31.1458 43.89 30.6894C44.3978 30.233 45.0013 29.896 45.6562 29.7031L46.7188 29.3906C51.0938 28.1 51.0938 21.9 46.7188 20.6094L45.6562 20.2969C45.0013 20.104 44.3978 19.767 43.89 19.3106C43.3822 18.8542 42.983 18.2898 42.7217 17.659C42.4604 17.0282 42.3436 16.347 42.3798 15.6651C42.4161 14.9833 42.6045 14.3183 42.9313 13.7188L43.4625 12.75C45.6437 8.74062 41.2594 4.35625 37.2531 6.54062L36.2812 7.06875C35.6817 7.3955 35.0167 7.58391 34.3349 7.62018C33.653 7.65644 32.9718 7.53963 32.341 7.27832C31.7102 7.01702 31.1458 6.61783 30.6894 6.11004C30.233 5.60225 29.896 4.99873 29.7031 4.34375L29.3906 3.28125ZM25 34.1562C22.5716 34.1562 20.2427 33.1916 18.5256 31.4744C16.8084 29.7573 15.8438 27.4284 15.8438 25C15.8438 22.5716 16.8084 20.2427 18.5256 18.5256C20.2427 16.8084 22.5716 15.8438 25 15.8438C27.4276 15.8438 29.7557 16.8081 31.4722 18.5246C33.1888 20.2412 34.1531 22.5693 34.1531 24.9969C34.1531 27.4244 33.1888 29.7526 31.4722 31.4691C29.7557 33.1857 27.4276 34.15 25 34.15V34.1562Z" fill="#6A2823"/>
<path d="M41.0571 53.2812C39.7665 48.9062 33.5665 48.9062 32.2759 53.2812L31.9634 54.3438C31.7705 54.9987 31.4335 55.6022 30.9771 56.11C30.5207 56.6178 29.9564 57.017 29.3256 57.2783C28.6948 57.5396 28.0135 57.6564 27.3316 57.6202C26.6498 57.5839 25.9848 57.3955 25.3853 57.0688L24.4165 56.5375C20.4071 54.3562 16.0228 58.7406 18.2071 62.7469L18.7353 63.7188C20.129 66.2812 18.8071 69.4719 16.0103 70.2969L14.9478 70.6094C10.5728 71.9 10.5728 78.1 14.9478 79.3906L16.0103 79.7031C16.6652 79.896 17.2688 80.233 17.7765 80.6894C18.2843 81.1458 18.6835 81.7102 18.9448 82.341C19.2061 82.9718 19.3229 83.653 19.2867 84.3349C19.2504 85.0167 19.062 85.6817 18.7353 86.2812L18.204 87.25C16.0228 91.2594 20.4071 95.6437 24.4134 93.4594L25.3853 92.9313C25.9848 92.6045 26.6498 92.4161 27.3316 92.3798C28.0135 92.3436 28.6948 92.4604 29.3256 92.7217C29.9564 92.983 30.5207 93.3822 30.9771 93.89C31.4335 94.3978 31.7705 95.0013 31.9634 95.6562L32.2759 96.7188C33.5665 101.094 39.7665 101.094 41.0571 96.7188L41.3696 95.6562C41.5625 95.0013 41.8995 94.3978 42.3559 93.89C42.8123 93.3822 43.3767 92.983 44.0075 92.7217C44.6383 92.4604 45.3195 92.3436 46.0014 92.3798C46.6832 92.4161 47.3482 92.6045 47.9478 92.9313L48.9165 93.4625C52.9259 95.6437 57.3103 91.2594 55.1259 87.2531L54.5978 86.2812C54.271 85.6817 54.0826 85.0167 54.0463 84.3349C54.0101 83.653 54.1269 82.9718 54.3882 82.341C54.6495 81.7102 55.0487 81.1458 55.5565 80.6894C56.0643 80.233 56.6678 79.896 57.3228 79.7031L58.3853 79.3906C62.7603 78.1 62.7603 71.9 58.3853 70.6094L57.3228 70.2969C56.6678 70.104 56.0643 69.767 55.5565 69.3106C55.0487 68.8542 54.6495 68.2898 54.3882 67.659C54.1269 67.0282 54.0101 66.347 54.0463 65.6651C54.0826 64.9833 54.271 64.3183 54.5978 63.7188L55.129 62.75C57.3103 58.7406 52.9259 54.3562 48.9196 56.5406L47.9478 57.0688C47.3482 57.3955 46.6832 57.5839 46.0014 57.6202C45.3195 57.6564 44.6383 57.5396 44.0075 57.2783C43.3767 57.017 42.8123 56.6178 42.3559 56.11C41.8995 55.6022 41.5625 54.9987 41.3696 54.3438L41.0571 53.2812ZM36.6665 84.1562C34.2381 84.1562 31.9092 83.1916 30.1921 81.4744C28.4749 79.7573 27.5103 77.4284 27.5103 75C27.5103 72.5716 28.4749 70.2427 30.1921 68.5256C31.9092 66.8084 34.2381 65.8438 36.6665 65.8438C39.0941 65.8438 41.4222 66.8081 43.1387 68.5246C44.8553 70.2412 45.8196 72.5693 45.8196 74.9969C45.8196 77.4244 44.8553 79.7526 43.1387 81.4691C41.4222 83.1857 39.0941 84.15 36.6665 84.15V84.1562Z" fill="#6A2823"/>
<path d="M97.3179 0.46875C95.1668 -6.82292 84.8335 -6.82292 82.6825 0.46875L82.1616 2.23958C81.8402 3.33122 81.2786 4.33708 80.5178 5.1834C79.7571 6.02972 78.8166 6.69503 77.7652 7.13054C76.7139 7.56606 75.5784 7.76073 74.4421 7.70029C73.3057 7.63985 72.1973 7.32583 71.1981 6.78125L69.5835 5.89583C62.9012 2.26042 55.5939 9.56771 59.2345 16.2448L60.1147 17.8646C62.4377 22.1354 60.2345 27.4531 55.5731 28.8281L53.8022 29.349C46.5106 31.5 46.5106 41.8333 53.8022 43.9844L55.5731 44.5052C56.6647 44.8266 57.6706 45.3883 58.5169 46.149C59.3632 46.9097 60.0285 47.8503 60.464 48.9016C60.8996 49.9529 61.0942 51.0884 61.0338 52.2248C60.9734 53.3611 60.6593 54.4696 60.1147 55.4688L59.2293 57.0833C55.5939 63.7656 62.9012 71.0729 69.5783 67.4323L71.1981 66.5521C72.1973 66.0075 73.3057 65.6935 74.4421 65.633C75.5784 65.5726 76.7139 65.7673 77.7652 66.2028C78.8166 66.6383 79.7571 67.3036 80.5178 68.1499C81.2786 68.9963 81.8402 70.0021 82.1616 71.0938L82.6825 72.8646C84.8335 80.1563 95.1668 80.1563 97.3179 72.8646L97.8387 71.0938C98.1601 70.0021 98.7218 68.9963 99.4825 68.1499C100.243 67.3036 101.184 66.6383 102.235 66.2028C103.286 65.7673 104.422 65.5726 105.558 65.633C106.695 65.6935 107.803 66.0075 108.802 66.5521L110.417 67.4375C117.099 71.0729 124.406 63.7656 120.766 57.0885L119.886 55.4688C119.341 54.4696 119.027 53.3611 118.967 52.2248C118.906 51.0884 119.101 49.9529 119.536 48.9016C119.972 47.8503 120.637 46.9097 121.483 46.149C122.33 45.3883 123.336 44.8266 124.427 44.5052L126.198 43.9844C133.49 41.8333 133.49 31.5 126.198 29.349L124.427 28.8281C123.336 28.5067 122.33 27.9451 121.483 27.1843C120.637 26.4236 119.972 25.4831 119.536 24.4317C119.101 23.3804 118.906 22.2449 118.967 21.1086C119.027 19.9722 119.341 18.8638 119.886 17.8646L120.771 16.25C124.406 9.56771 117.099 2.26042 110.422 5.90104L108.802 6.78125C107.803 7.32583 106.695 7.63985 105.558 7.70029C104.422 7.76073 103.286 7.56606 102.235 7.13054C101.184 6.69503 100.243 6.02972 99.4825 5.1834C98.7218 4.33708 98.1601 3.33122 97.8387 2.23958L97.3179 0.46875Z" fill="#6A2823"/>
<path d="M79.1823 46.377H74.9967V30.2429L70 31.7926V28.389L78.7333 25.2607H79.1823V46.377Z" fill="white"/>
<path d="M99.7135 39.3527C99.5493 41.6217 98.7093 43.408 97.1934 44.7115C95.6872 46.0149 93.6982 46.6667 91.2264 46.6667C88.5229 46.6667 86.3939 45.7591 84.8393 43.9439C83.2945 42.119 82.5221 39.6182 82.5221 36.4416V35.1526C82.5221 33.125 82.8793 31.3388 83.5938 29.7939C84.3083 28.249 85.3269 27.0663 86.6497 26.2455C87.9822 25.4152 89.527 25 91.2843 25C93.7175 25 95.6775 25.6517 97.1644 26.9552C98.6514 28.2587 99.5107 30.0884 99.7424 32.4443H95.3975C95.2913 31.0829 94.9099 30.098 94.2533 29.4898C93.6064 28.8718 92.6168 28.5628 91.2843 28.5628C89.836 28.5628 88.7498 29.0842 88.0256 30.127C87.3111 31.1601 86.9442 32.7678 86.9249 34.9499V36.543C86.9249 38.8217 87.2677 40.4872 87.9532 41.5397C88.6484 42.5921 89.7395 43.1183 91.2264 43.1183C92.5685 43.1183 93.5678 42.8142 94.2244 42.2059C94.8906 41.5879 95.272 40.6369 95.3685 39.3527H99.7135Z" fill="white"/>
</g>
<defs>
<clipPath id="clip0_694_2195">
<rect width="100" height="100" fill="white"/>
</clipPath>
</defs>
</svg>
