<svg width="100" height="101" viewBox="0 0 100 101" fill="none" xmlns="http://www.w3.org/2000/svg">
<path d="M71.4286 43.8564V29.5707C71.4412 29.1013 71.3519 28.6348 71.167 28.2032C70.982 27.7716 70.7057 27.3853 70.3571 27.0707L45.3571 2.07069C45.0427 1.72192 44.6564 1.44551 44.2248 1.26054C43.7931 1.07556 43.3265 0.986419 42.8571 0.999261H7.14286C5.25019 1.00491 3.43666 1.75928 2.09834 3.0976C0.760017 4.43592 0.0056526 6.24945 0 8.14212V93.8564C0 95.7508 0.752549 97.5676 2.09209 98.9072C3.43164 100.247 5.24845 100.999 7.14286 100.999H64.2857V93.8564H7.14286V8.14212H35.7143V29.5707C35.7199 31.4634 36.4743 33.2769 37.8126 34.6152C39.1509 35.9535 40.9645 36.7079 42.8571 36.7135H64.2857V43.8564H71.4286ZM42.8571 29.5707V9.57069L62.8571 29.5707H42.8571Z" fill="#6A2823"/>
<path d="M36.311 71.2726H23.2837V79.4619H38.6711V85.834H15V51.472H38.7183V57.8677H23.2837V65.113H36.311V71.2726Z" fill="#6A2823"/>
<path d="M40.3792 85.834V51.472H51.4478C54.4843 51.472 57.2141 52.1643 59.637 53.5488C62.06 54.9176 63.948 56.8607 65.3011 59.3781C66.6699 61.8797 67.3622 64.6882 67.3779 67.8034V69.3846C67.3779 72.5313 66.7093 75.3555 65.3719 77.8571C64.0503 80.343 62.178 82.2939 59.755 83.71C57.3478 85.1102 54.6574 85.8183 51.6838 85.834H40.3792ZM48.6629 57.8677V79.4619H51.5422C53.9179 79.4619 55.743 78.6202 57.0174 76.9367C58.2918 75.2375 58.929 72.7201 58.929 69.3846V67.8978C58.929 64.578 58.2918 62.0764 57.0174 60.3929C55.743 58.7094 53.8864 57.8677 51.4478 57.8677H48.6629Z" fill="#6A2823"/>
<path d="M99.0584 69.361C99.0584 72.7122 98.437 75.678 97.194 78.2583C95.9511 80.8386 94.181 82.8289 91.884 84.2292C89.6026 85.6137 86.9987 86.306 84.0723 86.306C81.1458 86.306 78.5498 85.6373 76.2842 84.3C74.0186 82.9469 72.2485 81.0195 70.9741 78.5179C69.7154 76.0163 69.0546 73.1449 68.9917 69.9038V67.9686C68.9917 64.6016 69.6053 61.6359 70.8325 59.0713C72.0755 56.491 73.8455 54.5007 76.1426 53.1004C78.4554 51.7001 81.0829 51 84.0251 51C86.9358 51 89.5318 51.6923 91.8132 53.0768C94.0945 54.4614 95.8645 56.4359 97.1232 59.0005C98.3976 61.5493 99.0427 64.4757 99.0584 67.7798V69.361ZM90.6331 67.9214C90.6331 64.5072 90.0589 61.9191 88.9103 60.1569C87.7775 58.379 86.1491 57.4901 84.0251 57.4901C79.8714 57.4901 77.6766 60.6053 77.4406 66.8358L77.417 69.361C77.417 72.728 77.9755 75.3161 79.0926 77.1255C80.2097 78.9348 81.8696 79.8395 84.0723 79.8395C86.1648 79.8395 87.7775 78.9506 88.9103 77.1727C90.0431 75.3948 90.6174 72.8381 90.6331 69.5026V67.9214Z" fill="#6A2823"/>
</svg>
