<svg width="190" height="26" viewBox="0 0 190 26" fill="none" xmlns="http://www.w3.org/2000/svg">
<path d="M112.117 13.2665H0V12.0528H112.131C112.355 5.3183 114.889 0 117.983 0C121.082 0 123.611 5.3183 123.837 12.0528H127.965C128.187 5.3183 130.721 0 133.817 0C136.914 0 139.447 5.3183 139.665 12.0528H143.797C144.014 5.3183 146.551 0 149.644 0C152.745 0 155.28 5.3183 155.499 12.0528H190V13.2665H155.514C155.449 20.32 152.852 26 149.644 26C146.444 26 143.844 20.32 143.785 13.2665H139.681C139.62 20.32 137.021 26 133.817 26C130.615 26 128.015 20.32 127.947 13.2665H123.85C123.785 20.32 121.188 26 117.983 26C114.782 26 112.18 20.32 112.117 13.2665Z" fill="#B49391"/>
</svg>
