<svg width="44" height="44" viewBox="0 0 44 44" fill="none" xmlns="http://www.w3.org/2000/svg">
<g clip-path="url(#clip0_1573_728)">
<path d="M22.0002 9.42871C20.4462 9.42871 18.9271 9.88952 17.635 10.7529C16.3429 11.6162 15.3358 12.8434 14.7412 14.2791C14.1465 15.7148 13.9909 17.2946 14.294 18.8187C14.5972 20.3428 15.3455 21.7429 16.4444 22.8417C17.5432 23.9405 18.9432 24.6889 20.4674 24.992C21.9915 25.2952 23.5713 25.1396 25.007 24.5449C26.4427 23.9502 27.6698 22.9431 28.5332 21.651C29.3965 20.3589 29.8574 18.8398 29.8574 17.2859C29.8574 15.202 29.0295 13.2035 27.556 11.73C26.0826 10.2565 24.0841 9.42871 22.0002 9.42871Z" fill="#949494"/>
<path d="M22 0C17.6488 0 13.3953 1.29028 9.77746 3.70767C6.15958 6.12506 3.33979 9.56099 1.67466 13.581C0.00953223 17.6009 -0.426141 22.0244 0.422734 26.292C1.27161 30.5596 3.3669 34.4796 6.44366 37.5563C9.52041 40.6331 13.4404 42.7284 17.708 43.5773C21.9756 44.4261 26.3991 43.9905 30.419 42.3253C34.439 40.6602 37.8749 37.8404 40.2923 34.2225C42.7097 30.6047 44 26.3512 44 22C43.9933 16.1673 41.6734 10.5754 37.549 6.451C33.4246 2.32664 27.8327 0.00665456 22 0ZM34.5589 36.0266C34.5275 33.9654 33.6878 31.999 32.2204 30.5511C30.7531 29.1031 28.7757 28.2896 26.7143 28.2857H17.2857C15.2243 28.2896 13.2469 29.1031 11.7796 30.5511C10.3123 31.999 9.47247 33.9654 9.44115 36.0266C6.59147 33.482 4.58187 30.1319 3.67846 26.4199C2.77506 22.7079 3.02045 18.809 4.38215 15.2395C5.74386 11.67 8.15764 8.59833 11.3039 6.43117C14.4501 4.26402 18.1804 3.10361 22.0008 3.10361C25.8212 3.10361 29.5515 4.26402 32.6977 6.43117C35.8439 8.59833 38.2577 11.67 39.6194 15.2395C40.9811 18.809 41.2265 22.7079 40.3231 26.4199C39.4197 30.1319 37.4101 33.482 34.5604 36.0266H34.5589Z" fill="#949494"/>
</g>
<defs>
<clipPath id="clip0_1573_728">
<rect width="44" height="44" fill="white"/>
</clipPath>
</defs>
</svg>
