<svg width="20" height="19" fill="none" xmlns="http://www.w3.org/2000/svg"><path fill-rule="evenodd" clip-rule="evenodd" d="M19.5 9.5a9.5 9.5 0 11-19 0 9.5 9.5 0 0119 0zm-9.114 4.167H9.64s-1.645.099-3.094-1.41c-1.58-1.645-2.975-4.91-2.975-4.91s-.08-.214.007-.317c.098-.116.366-.124.366-.124l1.782-.012s.168.029.288.117c.1.073.155.209.155.209s.288.728.67 1.387c.744 1.287 1.09 1.569 1.344 1.43.368-.2.258-1.818.258-1.818s.006-.588-.186-.849c-.149-.203-.43-.262-.553-.278-.1-.014.064-.247.277-.351.321-.157.888-.166 1.557-.16.521.006.671.038.875.088.473.114.458.48.427 1.27-.01.236-.02.51-.02.826 0 .07-.003.147-.005.225-.011.404-.024.867.242 1.04.137.087.47.012 1.306-1.406.396-.672.693-1.462.693-1.462s.065-.141.165-.202c.104-.061.243-.042.243-.042l1.875-.012s.564-.067.655.187c.096.267-.21.89-.977 1.912-.728.97-1.081 1.326-1.048 1.642.024.23.254.439.695.848.923.857 1.169 1.307 1.227 1.414a.434.434 0 00.011.019c.413.685-.458.739-.458.739l-1.666.023s-.358.07-.83-.253c-.245-.169-.486-.445-.716-.708-.35-.402-.675-.774-.952-.686-.464.147-.45 1.147-.45 1.147s.004.214-.102.328c-.115.124-.34.149-.34.149z" fill="#6A2823"/></svg>