<svg width="223" height="68" fill="none" xmlns="http://www.w3.org/2000/svg"><path fill-rule="evenodd" clip-rule="evenodd" d="M57.555 0c3.167-.018 4.892 1.651 5.678 3.275a7.924 7.924 0 01.8 3.206v55.023c.018 3.175-1.645 4.904-3.266 5.694-1.539.769-3.026.798-3.196.802H6.43C3.295 68 1.584 66.341.8 64.726c-.76-1.534-.795-3.012-.8-3.202V6.497C-.018 3.322 1.646 1.59 3.266.802A7.917 7.917 0 016.465.001h51.09zM3.713 1.695c-1.374.71-2.698 1.979-2.716 4.802v4.244h37.281c.075-2.802 1.094-5.023 2.34-5.023 1.247 0 2.265 2.221 2.34 5.023h1.617c.074-2.802 1.09-5.023 2.336-5.023 1.25 0 2.267 2.221 2.343 5.023H63.04V6.497l-.003-.045a6.933 6.933 0 00-.693-2.73c-.708-1.377-1.975-2.706-4.788-2.723H6.48l-.033.002a5.902 5.902 0 00-.82.086 6.876 6.876 0 00-1.914.608zm34.563 9.546H.997v14.375H9.53c.085-2.779 1.098-4.973 2.338-4.973s2.253 2.194 2.339 4.973h48.832V11.241H49.257c-.04 2.875-1.075 5.18-2.346 5.18-1.268 0-2.3-2.305-2.34-5.18h-1.61c-.039 2.875-1.072 5.18-2.343 5.18-1.27 0-2.302-2.305-2.342-5.18zm22.047 55.063c1.37-.71 2.696-1.98 2.716-4.8v-5.029h-42.53c-.03 2.898-1.066 5.228-2.344 5.228-1.278 0-2.316-2.33-2.345-5.228h-1.607c-.028 2.898-1.066 5.228-2.344 5.228-1.278 0-2.314-2.33-2.345-5.228H.997v5.03l.002.023a6.883 6.883 0 00.694 2.75c.708 1.377 1.974 2.707 4.787 2.723h51.075c0-.004.327.001.854-.086a6.864 6.864 0 001.914-.61zm-39.82-10.33h42.536V43.18H49.257c-.026 2.904-1.063 5.242-2.346 5.242-1.278 0-2.317-2.338-2.34-5.242h-1.64c-.025 2.904-1.064 5.242-2.344 5.242-1.28 0-2.319-2.338-2.346-5.242h-1.637c-.026 2.904-1.064 5.242-2.345 5.242-1.279 0-2.319-2.338-2.344-5.242H.997v12.794h8.534c.085-2.779 1.098-4.973 2.338-4.973s2.253 2.194 2.339 4.973h1.618c.086-2.779 1.098-4.973 2.339-4.973 1.24 0 2.253 2.194 2.338 4.973zM46.91 37.72c1.24 0 2.253 2.19 2.34 4.961h13.79V26.117H14.212c-.028 2.898-1.066 5.229-2.344 5.229-1.278 0-2.315-2.331-2.345-5.229H.997V42.68h30.924c.09-2.772 1.102-4.961 2.338-4.961 1.239 0 2.25 2.19 2.34 4.961h1.65c.088-2.772 1.1-4.961 2.338-4.961s2.25 2.19 2.337 4.961h1.651c.087-2.772 1.1-4.961 2.336-4.961zm67.642-36.593a5.215 5.215 0 00-1.807-.319c-.821 0-1.505.218-2.063.651-.597.472-.894 1.11-.894 1.91v7.672c0 .366.127.656.388.874.252.215.569.322.934.322.375 0 .693-.107.95-.322.258-.215.383-.506.383-.874V8.973c.717 0 1.367-.077 1.951-.23.87-.256 1.304-.647 1.304-1.174V2.327c0-.516-.379-.919-1.146-1.2zm-1.51 5.4c0 .36-.117.685-.345.973-.226.291-.513.435-.855.435-.367 0-.664-.147-.895-.442-.206-.266-.309-.584-.309-.965V3.369c0-.383.109-.71.325-.988.221-.282.512-.42.879-.42.361 0 .653.138.872.42.218.277.328.605.328.988v3.159z" fill="#fff"/><path d="M86.85 11.402h-2.495c-.377 0-.696-.103-.944-.303-.257-.203-.381-.488-.381-.856V8.196c0-.542.069-.877.206-1.001.138-.124.648-.197 1.532-.207h1.34c.266 0 .396-.135.396-.41 0-.262-.13-.392-.395-.392H84.75c-.842-.009-1.34-.097-1.492-.258-.153-.161-.229-.508-.229-1.035V2.939c0-.53.069-.857.206-.981.138-.124.648-.195 1.532-.217h1.34c.266 0 .396-.135.396-.41 0-.254-.13-.38-.395-.38h-4.4c-.367 0-.68.106-.944.316-.26.213-.393.5-.393.866v8.908c0 .368.13.66.385.874.259.215.577.322.952.322h5.143c.26 0 .391-.13.391-.403 0-.287-.13-.432-.394-.432z" fill="#fff"/><path fill-rule="evenodd" clip-rule="evenodd" d="M114.338 47.51l-3.52-9.157c-.128-.324-.268-.49-.425-.49-.158 0-.299.166-.425.49l-4.15 10.623c0 .302.093.456.283.456.336 0 .54-.089.617-.278l.653-1.769c.106-.273.306-.412.599-.412h3.067c.273 0 .495.208.666.617.176.408.347.81.513 1.211.26.42.627.631 1.1.631.764 0 1.149-.402 1.149-1.212 0-.256-.045-.49-.127-.71zm-3.775-1.324h-2.135c-.284 0-.427-.1-.427-.297 0-.139.196-.701.582-1.69.253-.596.499-1.2.739-1.8.05-.143.118-.217.206-.217.072 0 .135.074.187.218.228.6.467 1.203.708 1.799.376.989.569 1.551.569 1.69 0 .197-.144.297-.429.297z" fill="#fff"/><path d="M82.296 49.197c.26-.157.423-.325.485-.506l3.757-10.1c0-.202-.099-.355-.298-.463-.322 0-.519.097-.594.284l-1.507 4.149c-.044.114-.121.175-.242.175-.12 0-.206-.061-.26-.172l-1.64-3.347c-.177-.368-.33-.617-.454-.754a1.09 1.09 0 00-.803-.335c-.904 0-1.352.643-1.352 1.927l3.144 6.148c.092.186.14.351.14.486 0 .167-.069.254-.205.254-.031 0-.17-.05-.414-.157-.25-.107-.455-.158-.624-.158-.355 0-.64.161-.848.485-.178.275-.266.6-.266.98 0 .893.428 1.34 1.29 1.34.198 0 .428-.078.691-.236z" fill="#fff"/><path fill-rule="evenodd" clip-rule="evenodd" d="M75.866 41.71c-.304-.114-1.08-.175-2.325-.175v-1.778c0-.56.346-.837 1.034-.837h.942c.443 0 .662-.139.662-.41 0-.245-.13-.362-.39-.362h-3.587c-.366 0-.677.106-.934.322-.257.214-.387.5-.387.858v8.624c0 .566.375.99 1.115 1.276.548.211 1.16.315 1.841.315.88 0 1.588-.208 2.123-.63.585-.462.88-1.127.88-1.987v-3.323c0-1.008-.328-1.641-.974-1.893zm.124 5.216c0 .369-.117.693-.345.98a1.09 1.09 0 01-.887.424 1.1 1.1 0 01-.903-.442c-.211-.261-.314-.583-.314-.962V42.34h1.58c.579 0 .87.352.87 1.056v3.53z" fill="#fff"/><path d="M144.766 49.432h-5.14c-.38 0-.695-.107-.952-.322-.255-.215-.386-.505-.386-.877v-8.905c0-.369.131-.657.392-.865a1.47 1.47 0 01.946-.315h4.399c.265 0 .395.125.395.376 0 .274-.13.41-.395.41h-1.342c-.885.023-1.398.096-1.531.222-.137.121-.209.45-.209.98v1.948c0 .535.079.875.228 1.036.155.16.656.252 1.497.262h1.357c.265 0 .395.13.395.391 0 .275-.13.413-.395.413h-1.342c-.885.01-1.398.077-1.531.2-.137.126-.209.46-.209 1.002v2.054c0 .363.127.647.379.849.255.207.572.307.949.307h2.495c.262 0 .392.145.392.432 0 .271-.13.402-.392.402zm-17.367-10.908c0 .274.127.41.376.41 1.198 0 1.873.069 2.03.206.157.134.235.469.235.991v8.102c0 .372.132.662.388.877.256.215.567.322.934.322.379 0 .696-.107.95-.322.258-.215.388-.505.388-.877V40.13c0-.532.076-.869.226-1.001.149-.127.823-.195 2.021-.195.261 0 .391-.137.391-.411 0-.251-.13-.376-.391-.376h-7.172c-.249 0-.376.125-.376.376zm-25.829 9.709c0 .382-.127.673-.376.884-.254.212-.568.315-.945.315s-.694-.107-.951-.322c-.258-.215-.386-.505-.386-.877v-8.905c0-.369.132-.657.393-.865.264-.21.577-.315.944-.315h3.583c.262 0 .393.125.393.376 0 .274-.131.41-.393.41-.744 0-1.237.035-1.477.113-.526.156-.785.518-.785 1.084v8.102zm20.031-10.085c.63 0 1.235.114 1.823.345.763.295 1.148.704 1.148 1.233v8.507c0 .372-.134.662-.401.877a1.493 1.493 0 01-.969.322c-.366 0-.67-.107-.918-.322-.245-.215-.369-.505-.369-.877v-7.484c0-1.052-.422-1.58-1.258-1.58-.819 0-1.226.528-1.226 1.58v7.501c0 .79-.402 1.182-1.211 1.182-.524 0-.787-.16-.787-.483 0-.2.097-.322.285-.35h.485c.274 0 .411-.101.411-.298v-7.54c0-1.74.995-2.613 2.987-2.613zM90.318 49.145l1.109-3.388c.106-.35.246-.52.425-.52.18 0 .337.185.473.553l.915 2.557c.106.315.291.574.557.777.268.208.573.308.907.308.777 0 1.167-.409 1.167-1.23 0-.284-.034-.519-.11-.706-1.142-2.965-1.714-4.467-1.714-4.513 0-.03.028-.12.08-.281.903-2.764 1.35-4.158 1.35-4.178a.46.46 0 00-.092-.234c-.065-.095-.12-.142-.17-.142-.355 0-.56.094-.618.286l-.864 2.676c-.117.35-.261.52-.441.52s-.33-.182-.457-.554l-.673-1.856c-.263-.716-.75-1.072-1.46-1.072-.778 0-1.164.396-1.164 1.196 0 .285.035.526.11.724.951 2.576 1.43 3.89 1.43 3.943 0 .044-.55 1.702-1.654 4.978-.03.076-.013.168.049.276.06.114.137.167.218.167.347 0 .555-.094.627-.287zm88.945-.835c-.281.76-.726 1.14-1.332 1.14-.803 0-1.208-.51-1.208-1.532v-9.283c0-.323.141-.487.425-.487.285 0 .425.164.425.486v4.684c0 .295.141.442.427.442.239 0 .417-.147.534-.442l1.556-4.037c.296-.757.727-1.133 1.306-1.133.813 0 1.221.51 1.221 1.524v9.27c0 .336-.14.507-.428.507-.28 0-.42-.17-.42-.506v-4.68c0-.306-.149-.46-.454-.46-.241 0-.415.154-.535.46l-1.517 4.047zm6.374.955c.062.114.134.167.218.167.344 0 .552-.094.625-.287l1.109-3.388c.105-.35.247-.52.428-.52.174 0 .335.185.469.553l.918 2.557c.104.315.29.574.559.777.266.208.571.308.909.308.773 0 1.165-.409 1.165-1.23 0-.284-.04-.519-.107-.706-1.145-2.965-1.721-4.467-1.721-4.513 0-.025.021-.09.057-.204l.024-.077c.903-2.764 1.352-4.158 1.352-4.178a.41.41 0 00-.097-.234c-.059-.095-.116-.142-.169-.142-.358 0-.558.094-.611.286l-.87 2.676c-.112.35-.258.52-.434.52-.182 0-.333-.182-.46-.554l-.676-1.856c-.261-.716-.752-1.072-1.463-1.072-.776 0-1.163.396-1.163 1.196 0 .285.039.526.112.724.951 2.576 1.429 3.89 1.429 3.943 0 .044-.552 1.702-1.648 4.978-.035.076-.02.168.045.276zm-17.307-.155a1.418 1.418 0 01-.938.322c-.374 0-.692-.107-.949-.322-.256-.215-.382-.505-.382-.877v-8.905c0-.369.127-.657.388-.865.265-.21.579-.315.943-.315.381 0 .696.106.948.315.248.209.375.496.375.864v3.626c0 .255.127.382.375.382.139 0 .261-.147.363-.443l1.635-4.458c.057-.138.133-.229.238-.273.05-.006.176-.013.375-.013.194 0 .286.106.286.315 0 .198-.14.604-.423 1.22-.286.616-.425 1.049-.425 1.3 0 .171.383 1.224 1.161 3.153l.152.376.371.91.013.033c.284.695.567 1.39.845 2.087 0 1.3-.412 1.954-1.24 1.954-.62 0-1.065-.376-1.353-1.12l-1.397-3.706c-.107-.28-.273-.424-.504-.424-.311 0-.472.144-.472.424v3.563c0 .372-.127.662-.385.877z" fill="#fff"/><path fill-rule="evenodd" clip-rule="evenodd" d="M152.967 38.322a5.163 5.163 0 00-1.807-.318c-.819 0-1.505.215-2.062.647-.596.472-.894 1.112-.894 1.91v7.672c0 .372.127.662.378.874.261.218.576.325.944.325.377 0 .69-.107.949-.322.256-.215.38-.505.38-.877v-2.061c.715 0 1.366-.08 1.958-.237.87-.256 1.302-.647 1.302-1.17V39.52c0-.513-.385-.911-1.148-1.197zm-1.509 5.405c0 .355-.116.677-.342.968-.231.288-.519.431-.863.431a1.07 1.07 0 01-.887-.44 1.5 1.5 0 01-.315-.959v-3.166c0-.379.11-.707.328-.984.219-.279.509-.42.874-.42.368 0 .659.141.875.42.219.277.33.605.33.984v3.166z" fill="#fff"/><path d="M161.954 49.182c-.547.21-1.155.314-1.836.314-.883 0-1.585-.211-2.109-.63-.577-.466-.865-1.125-.865-1.987v-6.254c0-.802.301-1.449.911-1.944.555-.45 1.241-.677 2.063-.677.628 0 1.234.114 1.823.35.763.293 1.144.706 1.144 1.235v2.224c0 .394-.127.724-.374 1-.252.27-.565.412-.951.412-.378 0-.693-.142-.947-.422-.255-.279-.389-.682-.389-1.194v-.68c0-.52-.113-.914-.358-1.189-.236-.275-.523-.413-.857-.413a1.07 1.07 0 00-.871.43c-.233.285-.347.61-.347.977v6.145c0 .365.114.69.347.975.229.285.517.425.871.425.334 0 .621-.136.857-.405.245-.274.358-.655.358-1.153v-.693c0-.495.134-.864.389-1.112.254-.248.569-.368.947-.368.35 0 .663.117.931.355.261.234.394.532.394.887v2.115c0 .566-.374.99-1.131 1.277zM76.181 12.237h-3.965c-.376 0-.696-.107-.95-.322-.255-.215-.385-.506-.385-.874V2.133c0-.366.13-.653.394-.866.264-.21.577-.315.941-.315.379 0 .695.105.944.315.253.213.381.5.381.866v8.12c0 .368.125.657.39.866.26.214.57.315.936.315h1.14V1.44c0-.328.14-.49.417-.49.287 0 .43.162.43.49v9.992c.253 0 .42.016.504.05.138.06.205.205.205.425v1.45c0 .327-.14.486-.423.486-.285 0-.424-.176-.424-.532v-.446c0-.418-.178-.629-.535-.629zm15.26 0c.376 0 .693-.107.95-.322.257-.215.388-.506.388-.874V7.07c0-.18.024-.279.075-.302h2.035c.105 0 .196.01.278.03.03.108.048.536.048 1.294.01.536.01 1.263 0 2.173v1.485c0 .325.138.486.414.486.291 0 .435-.16.435-.486V1.44c0-.328-.143-.49-.435-.49-.276 0-.414.162-.414.49v3.214c-.01.663-.032 1.046-.063 1.153a.791.791 0 01-.273.047h-1.783a.63.63 0 01-.242-.047c-.042-.107-.067-.432-.075-.979V2.133c0-.376-.131-.668-.387-.876-.258-.203-.575-.305-.95-.305-.367 0-.68.107-.935.322-.26.218-.387.503-.387.86v8.907c0 .368.126.66.387.874.255.215.568.322.934.322zm10.002-10.292c-.156-.134-.836-.204-2.029-.204-.253 0-.377-.135-.377-.41 0-.254.124-.38.377-.38h7.167c.265 0 .397.126.397.38 0 .275-.132.41-.397.41-1.194 0-1.866.062-2.021.197-.151.13-.226.462-.226 1.001v8.102c0 .368-.128.66-.384.874-.257.215-.574.322-.954.322-.366 0-.677-.107-.933-.322-.257-.215-.388-.506-.388-.874V2.939c0-.525-.074-.857-.232-.994zM83.814 55.698c.63 0 1.237.12 1.823.346.768.295 1.15.708 1.15 1.238v2.232c0 .382-.126.72-.377.993a1.233 1.233 0 01-.953.408c-.373 0-.688-.14-.944-.418-.258-.279-.384-.676-.384-1.197v-.679c0-.517-.12-.91-.36-1.185-.239-.275-.526-.412-.859-.412a1.07 1.07 0 00-.874.422 1.52 1.52 0 00-.343.984v6.141c0 .368.112.698.343.982.228.282.52.426.874.426.333 0 .62-.138.86-.413.239-.273.36-.656.36-1.15v-.692c0-.492.125-.864.383-1.116a1.32 1.32 0 01.944-.364c.357 0 .664.112.93.35.268.237.4.538.4.893V65.6c0 .565-.38.992-1.132 1.277-.543.211-1.16.315-1.84.315-.88 0-1.586-.211-2.107-.634-.577-.463-.864-1.126-.864-1.987V58.32c0-.797.3-1.446.911-1.94.554-.454 1.241-.681 2.06-.681zm11.859.49a4.966 4.966 0 00-1.823-.347c-1.99 0-2.987.87-2.987 2.612v7.538c0 .203-.137.299-.407.299h-.49c-.189.033-.283.15-.283.355 0 .326.263.484.786.484.807 0 1.211-.396 1.211-1.185v-7.5c0-1.053.407-1.578 1.226-1.578.838 0 1.26.525 1.26 1.577v7.484c0 .37.122.661.368.88.246.21.55.322.92.322.376 0 .699-.111.966-.323.267-.218.4-.51.4-.879V57.42c0-.53-.383-.94-1.147-1.232zm-18.529-.078c.072-.192.27-.283.596-.283.197.104.294.259.294.455l-3.758 10.105c-.062.178-.223.345-.486.503-.265.156-.493.238-.692.238-.86 0-1.29-.446-1.29-1.345 0-.37.092-.695.268-.97.212-.33.492-.494.85-.494.165 0 .375.057.62.158.247.108.385.158.42.158.13 0 .2-.08.2-.249a1.12 1.12 0 00-.141-.493l-3.144-6.146c0-1.28.452-1.92 1.35-1.92.318 0 .583.11.806.329.123.136.276.388.456.757l1.642 3.347c.055.113.136.17.258.17.118 0 .2-.057.242-.175l1.51-4.144zm29.508-.283c-.325 0-.525.09-.596.284l-1.51 4.144c-.043.118-.122.175-.242.175-.115 0-.202-.057-.256-.17l-1.643-3.347c-.178-.37-.329-.621-.456-.757a1.1 1.1 0 00-.803-.329c-.902 0-1.352.64-1.352 1.92l3.144 6.146c.096.195.14.356.14.493 0 .168-.068.249-.202.249-.033 0-.171-.05-.418-.158-.245-.1-.454-.158-.62-.158-.356 0-.641.165-.85.494-.179.275-.268.6-.268.97 0 .899.429 1.345 1.291 1.345.199 0 .428-.082.692-.238.262-.158.424-.325.486-.503l3.759-10.105c0-.196-.099-.35-.296-.455zm4.64.013h3.586c.259 0 .393.127.393.378 0 .272-.134.41-.393.41-.747 0-1.24.04-1.479.11-.524.158-.787.524-.787 1.088v8.101c0 .38-.128.675-.377.886-.252.212-.569.316-.943.316a1.45 1.45 0 01-.952-.323c-.257-.218-.384-.51-.384-.879v-8.903c0-.366.129-.653.39-.868.265-.208.579-.315.946-.315zm-39.09-24.273c.377 0 .695-.11.95-.32.26-.219.39-.51.39-.878v-8.102c0-.369.124-.66.379-.874.256-.218.567-.326.93-.326h.705c.29 0 .434.182.434.537v9.474c0 .325.14.49.418.49.288 0 .432-.165.432-.49v-10.01c0-.191-.09-.369-.276-.537-.182-.164-.368-.25-.557-.25h-3.805c-.376 0-.691.108-.944.314-.25.211-.377.5-.377.868v8.906c0 .368.13.659.387.878.257.21.568.32.934.32zm69.785-1.121c-.28.756-.725 1.138-1.331 1.138-.803 0-1.209-.512-1.209-1.534v-9.285c0-.32.144-.485.426-.485.283 0 .425.165.425.485v4.685c0 .296.143.442.427.442.241 0 .418-.146.534-.442l1.558-4.034c.29-.758.724-1.136 1.303-1.136.817 0 1.224.507 1.224 1.53v9.268c0 .34-.144.506-.431.506-.278 0-.414-.167-.414-.506v-4.68c0-.305-.154-.46-.458-.46-.241 0-.417.155-.531.46l-1.523 4.048zm-8.576 1.182c.681 0 1.293-.104 1.836-.315.757-.285 1.134-.71 1.134-1.277v-2.11c0-.359-.134-.657-.396-.891a1.371 1.371 0 00-.932-.352c-.377 0-.692.12-.946.365-.255.248-.382.62-.382 1.112v.694c0 .496-.119.877-.359 1.152-.24.272-.527.413-.862.413a1.07 1.07 0 01-.872-.43 1.509 1.509 0 01-.347-.978v-6.144c0-.368.116-.694.347-.98.228-.284.518-.424.872-.424.335 0 .622.134.862.413.24.271.359.669.359 1.185v.68c0 .516.127.919.382 1.197.254.278.569.415.946.415.382 0 .7-.137.954-.409.251-.272.374-.606.374-.995v-2.227c0-.53-.384-.943-1.148-1.238a4.948 4.948 0 00-1.822-.345c-.819 0-1.507.228-2.061.677-.609.493-.913 1.143-.913 1.94v6.255c0 .86.29 1.525.865 1.987.523.422 1.224.63 2.109.63zm-6.401-4.593c.266.234.396.532.396.891v2.11c0 .566-.376.992-1.13 1.277-.542.212-1.159.315-1.839.315-.881 0-1.585-.207-2.109-.63-.573-.462-.863-1.126-.863-1.987v-6.256c0-.796.303-1.446.912-1.939.555-.45 1.241-.677 2.06-.677.627 0 1.235.115 1.822.345.768.295 1.147.708 1.147 1.238v2.227c0 .389-.122.723-.372.995a1.24 1.24 0 01-.955.409c-.373 0-.687-.137-.945-.415-.257-.278-.383-.68-.383-1.197v-.68c0-.516-.12-.914-.359-1.185-.24-.279-.526-.413-.858-.413-.357 0-.649.14-.876.425a1.5 1.5 0 00-.343.979v6.144c0 .368.111.693.343.978.227.285.519.43.876.43.332 0 .618-.141.858-.413.239-.275.359-.656.359-1.152v-.694c0-.492.126-.864.383-1.112a1.32 1.32 0 01.945-.364c.357 0 .664.116.931.351zm86.141 4.532c.282 0 .422-.164.422-.489V20.765c0-.32-.14-.485-.422-.485-.284 0-.425.165-.425.485v10.313c0 .325.141.49.425.49z" fill="#fff"/><path fill-rule="evenodd" clip-rule="evenodd" d="M190.826 23.544c.733 0 1.38.077 1.949.234.871.244 1.306.633 1.306 1.172v5.24c0 .52-.384.92-1.145 1.204a5.336 5.336 0 01-1.812.314c-.829 0-1.51-.217-2.059-.65-.594-.462-.895-1.096-.895-1.906v-7.689c0-.356.127-.644.385-.861.257-.213.569-.322.932-.322.38 0 .694.104.955.31.255.202.384.495.384.873v2.081zm.271 6.587c.222-.281.329-.61.329-.98V25.99a1.55 1.55 0 00-.329-.98 1.045 1.045 0 00-.876-.429 1.05 1.05 0 00-.875.43 1.58 1.58 0 00-.326.979v3.162c0 .378.104.7.314.961.226.3.523.446.887.446.369 0 .657-.144.876-.428z" fill="#fff"/><path d="M216.598 31.4c.06.114.14.167.221.167.344 0 .555-.096.626-.288l1.111-3.39c.104-.341.244-.517.418-.517.184 0 .342.186.475.554l.918 2.554c.103.317.291.572.559.78.267.204.572.307.903.307.78 0 1.172-.413 1.172-1.233 0-.281-.04-.516-.111-.706-1.144-2.962-1.713-4.465-1.713-4.507 0-.032.023-.127.077-.284.903-2.768 1.352-4.155 1.352-4.18 0-.062-.034-.138-.094-.236-.067-.093-.12-.14-.177-.14-.352 0-.556.096-.613.284l-.86 2.68c-.117.345-.261.515-.442.515-.174 0-.331-.18-.455-.552l-.673-1.854c-.271-.719-.75-1.074-1.466-1.074-.773 0-1.161.402-1.161 1.198 0 .283.033.527.11.723.951 2.575 1.429 3.892 1.429 3.943 0 .042-.549 1.704-1.653 4.981-.03.07-.014.166.047.276zm-17.344-.153a1.46 1.46 0 01-.951.32 1.43 1.43 0 01-.935-.32c-.256-.219-.387-.51-.387-.878v-8.906c0-.359.131-.644.387-.861.254-.213.569-.322.935-.322.375 0 .695.104.951.31.254.202.381.495.381.873v2.694c.012.546.037.874.077.979a.676.676 0 00.245.046h1.78a.807.807 0 00.275-.046c.033-.105.053-.491.063-1.15v-3.22c0-.321.138-.486.419-.486.284 0 .432.165.432.485v10.313c0 .325-.148.49-.432.49-.281 0-.419-.165-.419-.49v-1.484c.01-.911.01-1.634 0-2.17 0-.758-.016-1.19-.05-1.294a1.046 1.046 0 00-.281-.03h-2.032c-.048.02-.077.114-.077.298v3.97c0 .369-.127.66-.381.879z" fill="#fff"/><path fill-rule="evenodd" clip-rule="evenodd" d="M210.617 23.778c-.566-.157-1.219-.234-1.952-.234v-2.08c0-.37-.127-.658-.375-.869-.254-.206-.565-.315-.947-.315-.361 0-.679.109-.94.315-.265.211-.392.503-.392.868v7.689c0 .81.294 1.444.897 1.907.539.432 1.228.65 2.055.65.633 0 1.232-.108 1.808-.315.766-.285 1.148-.684 1.148-1.204v-5.24c0-.54-.432-.928-1.302-1.172zm-1.356 5.374c0 .378-.104.7-.311.961a1.085 1.085 0 01-.897.446c-.368 0-.663-.147-.881-.446-.214-.26-.311-.583-.311-.961V25.99c0-.369.107-.693.328-.98.221-.285.505-.429.864-.429.364 0 .659.142.88.423.221.279.328.603.328.986v3.162z" fill="#fff"/><path d="M179.873 30.385c0 .786-.398 1.182-1.205 1.182-.525 0-.789-.16-.789-.481 0-.206.098-.322.284-.356h.485c.275 0 .414-.1.414-.299v-7.537c0-1.743.997-2.614 2.987-2.614.624 0 1.234.119 1.818.346.769.295 1.151.706 1.151 1.233v8.51c0 .368-.134.659-.402.878-.267.21-.589.32-.962.32a1.37 1.37 0 01-.922-.32c-.248-.219-.368-.51-.368-.878V22.88c0-1.05-.422-1.576-1.26-1.576-.819 0-1.231.527-1.231 1.576v7.504zm-67.65-9.79c-.259.211-.389.5-.389.868v8.906c0 .368.127.659.382.878.257.21.575.32.953.32h5.143c.258 0 .392-.132.392-.4 0-.294-.134-.437-.396-.437h-2.495c-.377 0-.69-.1-.945-.305-.253-.204-.38-.486-.38-.851v-2.05c0-.543.069-.882.206-1.002.138-.124.646-.194 1.534-.204h1.34c.264 0 .396-.138.396-.413 0-.26-.132-.388-.396-.388h-1.358c-.843-.013-1.337-.098-1.492-.261-.153-.161-.23-.506-.23-1.038V22.27c0-.532.069-.858.206-.982.138-.128.646-.196 1.534-.22h1.34c.264 0 .396-.135.396-.41 0-.25-.132-.378-.392-.378h-4.403a1.49 1.49 0 00-.946.315zm47.407 10.652c-.251.21-.572.32-.947.32-.372 0-.678-.11-.939-.32-.258-.219-.385-.51-.385-.878v-8.906c0-.359.127-.644.385-.861.261-.213.567-.322.939-.322.375 0 .696.104.947.31.261.202.387.495.387.873v2.694c.008.546.032.874.077.979a.625.625 0 00.242.046h1.781c.1 0 .194-.017.276-.046.029-.105.049-.491.062-1.15v-3.22c0-.321.137-.486.415-.486.288 0 .435.165.435.485v10.313c0 .325-.147.49-.435.49-.278 0-.415-.165-.415-.49v-1.484c.01-.911.01-1.634 0-2.17 0-.758-.017-1.19-.05-1.294a1.046 1.046 0 00-.281-.03h-2.03c-.052.02-.077.114-.077.298v3.97c0 .369-.126.66-.387.879z" fill="#fff"/><path fill-rule="evenodd" clip-rule="evenodd" d="M153.499 20.864c-.566-.463-1.258-.694-2.073-.694a4.92 4.92 0 00-1.825.349c-.774.304-1.163.72-1.163 1.242v8.306c0 .57.375.994 1.13 1.276.555.214 1.173.32 1.858.32.878 0 1.578-.213 2.105-.635.576-.459.863-1.122.863-1.986v-6.238c0-.798-.294-1.448-.895-1.94zm.045 8.18c0 .369-.114.694-.339.98a1.109 1.109 0 01-.894.422c-.35 0-.644-.141-.87-.422a1.512 1.512 0 01-.348-.98v-6.228c0-.368.117-.693.348-.974.226-.285.52-.426.87-.426.366 0 .659.14.894.426.225.28.339.606.339.974v6.229zm-47.616-8.904c.64 0 1.234.103 1.791.315.764.274 1.147.674 1.147 1.199v5.243c0 .939-1.389 1.408-4.163 1.408v2.064c0 .368-.13.659-.392.878a1.44 1.44 0 01-.94.32c-.369 0-.68-.11-.941-.32-.257-.22-.386-.51-.386-.878v-2.064c-1.085 0-1.895-.048-2.43-.145-1.147-.197-1.721-.61-1.721-1.232v-5.291c0-.513.403-.914 1.21-1.199a5.92 5.92 0 011.873-.299c1.016 0 1.811.386 2.389 1.149.375-.763 1.23-1.149 2.563-1.149zm-3.299 6.697c.218-.285.328-.61.328-.979v-3.161c0-.384-.11-.709-.328-.99a1.062 1.062 0 00-.878-.42 1.04 1.04 0 00-.872.428c-.221.284-.328.61-.328.982v3.161c0 .37.107.694.328.98.216.284.51.427.872.427.365 0 .66-.143.878-.428zm3.25 0a1.57 1.57 0 00.332-.979v-3.161a1.57 1.57 0 00-.332-.982 1.033 1.033 0 00-.865-.427 1.06 1.06 0 00-.879.42c-.22.28-.329.605-.329.989v3.161c0 .38.103.7.314.962.23.298.527.445.894.445.359 0 .647-.143.865-.428zm-11.901-5.973c-.564-.463-1.258-.694-2.077-.694-.626 0-1.235.116-1.82.349-.777.304-1.163.72-1.163 1.242v8.306c0 .57.377.994 1.128 1.276.555.214 1.175.32 1.855.32.884 0 1.585-.213 2.11-.635.573-.459.864-1.122.864-1.986v-6.238c0-.798-.297-1.448-.897-1.94zm.048 8.18c0 .369-.117.694-.345.98-.23.28-.524.422-.89.422a1.09 1.09 0 01-.876-.422 1.533 1.533 0 01-.34-.98v-6.228c0-.368.114-.693.34-.974.23-.285.525-.426.877-.426.365 0 .66.14.89.426.227.28.344.606.344.974v6.229zM82.965 20.14c.629 0 1.231.103 1.805.315.767.285 1.15.684 1.15 1.199v5.243c0 .527-.434.92-1.306 1.17a7.413 7.413 0 01-1.946.238v2.064c0 .368-.13.659-.388.878-.256.21-.576.32-.95.32a1.41 1.41 0 01-.934-.324c-.259-.215-.388-.506-.388-.874v-7.672c0-.802.3-1.438.896-1.914.555-.429 1.242-.644 2.06-.644zm-.045 6.69a1.54 1.54 0 00.342-.972v-3.161c0-.384-.11-.709-.33-.99a1.048 1.048 0 00-.872-.42c-.366 0-.656.142-.874.42a1.55 1.55 0 00-.33.99v3.161c0 .38.107.7.316.962.225.298.522.445.888.445.343 0 .63-.147.86-.435zm91.862 2.811l-3.518-9.157c-.127-.324-.268-.486-.425-.486-.161 0-.301.162-.425.486l-4.154 10.629c0 .304.094.454.281.454.342 0 .549-.093.621-.28l.656-1.77c.107-.271.3-.409.598-.409h3.066c.268 0 .495.205.669.614.107.258.215.513.323.765l.189.447c.261.42.625.633 1.098.633.767 0 1.148-.406 1.148-1.216 0-.25-.04-.488-.127-.71zm-3.772-1.323h-2.136c-.284 0-.428-.1-.428-.299 0-.136.194-.7.582-1.69.255-.595.502-1.193.74-1.794.054-.143.122-.22.201-.22.073 0 .135.077.191.22.23.6.465 1.199.709 1.795.378.989.564 1.553.564 1.69 0 .197-.14.298-.423.298z" fill="#fff"/></svg>