<svg width="12" height="11" viewBox="0 0 12 11" fill="none" xmlns="http://www.w3.org/2000/svg">
<path d="M1.62218 0.948796C1.74942 0.885031 1.88823 0.847617 2.03028 0.838796V0.837696C2.17783 0.827427 2.32586 0.825957 2.47358 0.833296C2.53298 0.837696 2.59238 0.844296 2.65178 0.850896C2.82668 0.871796 3.01918 0.977396 3.08408 1.1248C3.41188 1.8684 3.73088 2.6175 4.03888 3.36989C4.10708 3.53599 4.06638 3.75049 3.93658 3.95949C3.84734 4.1012 3.75078 4.23815 3.64728 4.36979C3.52298 4.52819 3.25568 4.82079 3.25568 4.82079C3.25568 4.82079 3.14678 4.95059 3.18858 5.11229C3.21648 5.19183 3.25417 5.26758 3.30078 5.33779L3.36568 5.44229C3.67777 5.95381 4.05492 6.42265 4.48768 6.83709C4.52324 6.87147 4.55857 6.90617 4.59391 6.94088C4.68975 7.03502 4.78572 7.12929 4.88698 7.21769C5.40203 7.67182 5.98468 8.04294 6.61398 8.31769L6.61948 8.31989C6.64655 8.33168 6.66975 8.34189 6.69235 8.35185C6.74784 8.37628 6.79977 8.39915 6.89668 8.43979C6.96489 8.46896 7.03511 8.49323 7.10678 8.51239C7.18083 8.53145 7.25887 8.52802 7.33096 8.50255C7.40305 8.47709 7.46593 8.43073 7.51158 8.36939C8.30688 7.40579 8.38058 7.34309 8.38608 7.34309V7.34529C8.4414 7.29369 8.50714 7.25452 8.57885 7.23043C8.65057 7.20633 8.72662 7.19786 8.80188 7.20559C8.86899 7.20856 8.93499 7.22385 8.99658 7.25069C9.58068 7.51689 10.5377 7.93379 10.5377 7.93379L11.1779 8.22089C11.2846 8.27259 11.3825 8.39469 11.3869 8.51239C11.3871 8.51653 11.3873 8.52081 11.3875 8.52524C11.3909 8.59974 11.3964 8.71712 11.3715 8.92269C11.3363 9.20759 11.2505 9.54969 11.1647 9.72899C11.1042 9.85549 11.025 9.96659 10.9337 10.0612C10.8105 10.1899 10.7192 10.268 10.5707 10.378C10.4805 10.4462 10.4332 10.477 10.4332 10.477C10.2965 10.564 10.1559 10.6448 10.0119 10.719C9.72875 10.8698 9.41594 10.9566 9.09558 10.9731C9.05999 10.9748 9.02444 10.9767 8.98892 10.9786C8.82019 10.9875 8.65209 10.9965 8.48398 10.9874L7.85808 10.8917C6.29416 10.4803 4.84781 9.7097 3.63408 8.64109C3.42671 8.45769 3.2317 8.2627 3.03545 8.06648C2.99748 8.0285 2.95945 7.99048 2.92128 7.95249C1.94338 6.97899 1.20308 5.92849 0.753184 4.93629C0.533184 4.44569 0.392384 3.92099 0.390184 3.38199C0.386454 2.71475 0.605136 2.06529 1.01168 1.5362C1.02387 1.52034 1.03593 1.50441 1.04808 1.48835C1.116 1.3986 1.18681 1.30504 1.29878 1.1996C1.39393 1.10084 1.50286 1.01637 1.62218 0.948796Z" fill="white"/>
</svg>
