<svg width="12" height="13" viewBox="0 0 12 13" fill="none" xmlns="http://www.w3.org/2000/svg">
<path d="M6.6507 1.39981C6.6166 1.39431 6.5726 1.39101 6.5286 1.38771C6.3438 1.37451 5.9599 1.34481 5.9819 0.934515C5.9918 0.756315 6.0688 0.459314 6.4747 0.459314C6.51878 0.459701 6.56281 0.461903 6.6067 0.465915L6.61073 0.466184C6.64229 0.46829 6.67263 0.470315 6.6969 0.470315C6.70684 0.470296 6.71677 0.469561 6.7266 0.468115L6.7574 0.467015C9.3072 0.555014 11.516 2.94421 11.4852 5.57871C11.4841 5.61324 11.4862 5.65306 11.4884 5.69401L11.4885 5.69641C11.4962 5.87242 11.505 6.08911 11.3697 6.23541C11.3279 6.27833 11.2775 6.31182 11.2217 6.33364C11.1659 6.35545 11.1061 6.3651 11.0463 6.36192H11.0331C10.5978 6.35312 10.5909 5.9356 10.5876 5.73416L10.5871 5.70771C10.5864 5.66056 10.5857 5.61704 10.581 5.57982C10.2653 3.00361 9.1257 1.79361 6.6507 1.39981Z" fill="white"/>
<path d="M10.3038 8.78191C10.3557 8.82475 10.4081 8.86692 10.4611 8.90841V8.90952C10.8593 9.223 11.3554 9.61358 11.0837 10.4055C10.7735 11.3097 9.7648 12.1017 8.9244 12.1017H8.91011C8.89521 12.1014 8.88042 12.0992 8.8661 12.0951L8.76161 12.0687L8.7531 12.0667C8.63068 12.0383 8.46533 12 8.3084 11.9301C6.522 11.1359 4.9798 10.0799 3.7258 8.78961C2.4432 7.47181 1.4279 5.87462 0.705204 4.04201C0.454404 3.40842 0.443404 2.80012 0.674404 2.28092C0.913104 1.74522 1.3916 1.33821 2.0571 1.10721C2.30492 1.01531 2.57761 1.01609 2.8249 1.10941C3.4046 1.32941 4.7807 3.26541 4.8137 3.90891C4.8434 4.47541 4.421 4.77132 4.1944 4.92972C3.794 5.21022 3.7214 5.55342 3.948 6.08141C4.4177 7.17042 5.2394 7.99541 6.3889 8.53441C6.50955 8.59554 6.64205 8.62969 6.7772 8.63452C6.9708 8.63452 7.1292 8.53551 7.259 8.33312C7.5527 7.87441 7.908 7.64121 8.315 7.64121C8.61751 7.64121 8.9376 7.76771 9.294 8.02512C9.35187 8.06701 9.4098 8.10881 9.46781 8.15052L9.50308 8.17598C9.76938 8.36826 10.0447 8.56702 10.3038 8.78191Z" fill="white"/>
<path d="M6.9004 3.48101C6.7574 3.48431 6.4571 3.49201 6.35151 3.80661C6.3031 3.95401 6.3086 4.08161 6.3691 4.18612C6.4582 4.34011 6.6298 4.38741 6.7849 4.41271C7.3481 4.50621 7.63851 4.82851 7.69571 5.42471C7.72321 5.70412 7.9047 5.89772 8.1379 5.89772C8.15553 5.89809 8.17317 5.89735 8.1907 5.89551C8.4712 5.86031 8.6065 5.64801 8.59441 5.26302C8.5988 4.86041 8.39531 4.40502 8.0488 4.04201C7.7012 3.67682 7.2821 3.47112 6.9004 3.48101Z" fill="white"/>
<path d="M6.99118 1.99046C8.66868 2.19836 10.0228 3.70316 10.0096 5.34436L10.0085 5.34546C10.0082 5.35284 10.0075 5.36018 10.0063 5.36746C10.0035 5.40811 10.0035 5.44891 10.0063 5.48956C10.0118 5.65819 10.0233 6.00886 9.65098 6.06706C9.61358 6.07366 9.57838 6.07586 9.54538 6.07586C9.14498 6.07586 9.12188 5.69196 9.11088 5.50826C9.10868 5.45876 9.10648 5.41256 9.09988 5.37406C8.85238 3.83076 8.34418 3.28406 6.83608 2.93756C6.80431 2.9289 6.76577 2.9236 6.72494 2.91799L6.70738 2.91556L6.69868 2.91425C6.53961 2.89033 6.34452 2.86099 6.23218 2.70436C6.19757 2.6515 6.17389 2.59225 6.16256 2.53009C6.15122 2.46793 6.15245 2.40414 6.16618 2.34246C6.19038 2.19396 6.28168 1.94536 6.62598 1.94536C6.7117 1.94769 6.79707 1.95726 6.88118 1.97396L6.99118 1.99046Z" fill="white"/>
</svg>
