<svg width="12" height="12" viewBox="0 0 12 12" fill="none" xmlns="http://www.w3.org/2000/svg">
<path d="M12 10.6668L8.56432 7.23111C9.19948 6.2658 9.45388 5.09916 9.27826 3.95705C9.10264 2.81495 8.50949 1.77862 7.61367 1.04873C6.71784 0.318838 5.58306 -0.0527046 4.42902 0.00603767C3.27499 0.0647799 2.18379 0.549628 1.36671 1.36671C0.549628 2.18379 0.0647799 3.27499 0.00603767 4.42902C-0.0527046 5.58306 0.318838 6.71784 1.04873 7.61367C1.77862 8.50949 2.81495 9.10264 3.95705 9.27826C5.09916 9.45388 6.2658 9.19948 7.23111 8.56432L10.6668 12L12 10.6668ZM1.33433 4.66735C1.33433 2.82953 2.82953 1.33433 4.66735 1.33433C6.50518 1.33433 8.00037 2.82953 8.00037 4.66735C8.00037 6.50518 6.50518 8.00037 4.66735 8.00037C2.82953 8.00037 1.33433 6.50518 1.33433 4.66735Z" fill="white"/>
</svg>
