<svg width="12" height="14" viewBox="0 0 12 14" fill="none" xmlns="http://www.w3.org/2000/svg">
<path fill-rule="evenodd" clip-rule="evenodd" d="M7.09217 12.7601C7.5528 13.0156 8.07873 13.1589 8.63675 13.1589C10.4403 13.1589 11.9012 11.6544 11.9024 9.80042C11.9024 9.26302 11.7798 8.75771 11.5632 8.3074C11.648 7.90635 11.6927 7.49042 11.6927 7.06531C11.6927 3.865 9.17186 1.27083 6.06092 1.27083C5.73436 1.27083 5.41123 1.29948 5.09957 1.35562C4.5954 1.02906 4.00071 0.838854 3.36248 0.838854C1.5578 0.838854 0.0957127 2.34562 0.0957127 4.20073C0.0942969 4.79596 0.249182 5.38112 0.544879 5.89771C0.4704 6.27354 0.430296 6.66313 0.430296 7.06417C0.430296 10.2622 2.95228 12.8586 6.06092 12.8586C6.40705 12.8592 6.75241 12.8262 7.09217 12.7601ZM7.51613 6.37781C7.85615 6.48489 8.18025 6.63712 8.47977 6.83042C8.74417 7.00534 8.96235 7.2416 9.11571 7.51906C9.26811 7.7975 9.34488 8.14125 9.34488 8.54C9.34953 9.00147 9.2119 9.45317 8.95071 9.83365C8.69061 10.2118 8.30561 10.5131 7.80717 10.7263C7.31217 10.9359 6.72092 11.0436 6.04717 11.0436C5.23821 11.0436 4.55988 10.8981 4.0305 10.6094C3.65123 10.3997 3.33957 10.1155 3.10238 9.76146C2.8629 9.40854 2.74144 9.05448 2.74144 8.71646C2.74048 8.6137 2.76086 8.51186 2.8013 8.41738C2.84173 8.32291 2.90133 8.23785 2.97634 8.1676C3.05495 8.0934 3.14744 8.03545 3.24852 7.99711C3.34959 7.95876 3.45725 7.94077 3.5653 7.94417C3.74661 7.93871 3.92333 8.0017 4.0603 8.12063C4.20689 8.25919 4.32012 8.42923 4.39144 8.61792C4.47612 8.82674 4.58454 9.02513 4.71457 9.20917C4.83935 9.37008 5.00136 9.49827 5.18665 9.58271C5.39175 9.68354 5.66561 9.73281 6.00478 9.73281C6.46998 9.73281 6.85155 9.63198 7.13915 9.43031C7.41873 9.23094 7.55509 8.99604 7.55509 8.70729C7.55986 8.60535 7.54304 8.50355 7.50572 8.40857C7.46839 8.31359 7.41142 8.22757 7.33853 8.15615C7.18498 8.00833 6.98217 7.89375 6.73696 7.81583C6.48144 7.73333 6.13311 7.64396 5.70457 7.55229C5.11905 7.42281 4.62405 7.27042 4.22759 7.09854C3.82425 6.92094 3.49769 6.67573 3.2605 6.36865C3.01873 6.05698 2.89613 5.6674 2.89613 5.20906C2.89086 4.78681 3.02542 4.37467 3.27884 4.03687C3.53092 3.69885 3.89873 3.43531 4.37196 3.25427C4.83946 3.07552 5.39519 2.98615 6.0254 2.98615C6.47008 2.97772 6.91339 3.03801 7.33967 3.1649C7.67616 3.26516 7.99121 3.42676 8.26894 3.64156C8.49225 3.81349 8.67821 4.02909 8.8155 4.27521C8.93123 4.49635 8.99196 4.71979 8.99196 4.93521C8.99103 5.14472 8.90792 5.3455 8.7605 5.49438C8.60582 5.66052 8.41217 5.74302 8.18186 5.74302C7.97332 5.74302 7.81061 5.68917 7.69717 5.58604C7.59061 5.49208 7.48175 5.34312 7.3603 5.12771C7.2205 4.85271 7.05092 4.63615 6.85613 4.48375C6.66707 4.33594 6.35082 4.2626 5.9154 4.2626C5.51207 4.2626 5.18321 4.3451 4.9403 4.50896C4.7054 4.66708 4.59082 4.84812 4.59082 5.06354C4.58789 5.18583 4.62759 5.30533 4.70311 5.40156C4.79529 5.51169 4.9097 5.60111 5.03884 5.66396C5.18332 5.74006 5.3354 5.80074 5.49259 5.845C5.75047 5.91633 6.00987 5.98204 6.27061 6.04208C6.69121 6.13279 7.10692 6.24484 7.51613 6.37781Z" fill="white"/>
</svg>
