<svg width="197" height="60" viewBox="0 0 197 60" fill="none" xmlns="http://www.w3.org/2000/svg">
<path fill-rule="evenodd" clip-rule="evenodd" d="M72.3377 43.4093C72.5657 43.2701 72.709 43.1221 72.7635 42.9621L76.0658 34.0506C76.0658 33.8728 75.979 33.7374 75.8039 33.6426C75.5207 33.6426 75.348 33.7277 75.2818 33.8928L73.9571 37.5535C73.9189 37.6542 73.8505 37.7082 73.7446 37.7082C73.6387 37.7082 73.5637 37.6542 73.5152 37.5559L72.0751 34.6035C71.9192 34.2786 71.7846 34.0586 71.6758 33.938C71.4801 33.7403 71.2455 33.6426 70.9698 33.6426C70.1754 33.6426 69.7812 34.2097 69.7812 35.3423L72.545 40.7671C72.626 40.9314 72.6686 41.0774 72.6686 41.1958C72.6686 41.3431 72.6076 41.4201 72.4878 41.4201C72.4605 41.4201 72.3377 41.3764 72.1237 41.2817C71.9045 41.1869 71.7236 41.1424 71.575 41.1424C71.2631 41.1424 71.0131 41.2846 70.83 41.5703C70.674 41.8132 70.5961 42.0997 70.5961 42.4351C70.5961 43.2227 70.9727 43.6165 71.7294 43.6165C71.9045 43.6165 72.106 43.5485 72.3377 43.4093Z" fill="white"/>
<path fill-rule="evenodd" clip-rule="evenodd" d="M66.6866 36.8025C66.4188 36.7019 65.7363 36.6479 64.6428 36.6479V35.0791C64.6428 34.5846 64.9464 34.3403 65.5518 34.3403H66.3792C66.7689 34.3403 66.961 34.2182 66.961 33.9791C66.961 33.7629 66.8477 33.6592 66.6182 33.6592H63.466C63.1438 33.6592 62.871 33.7525 62.6452 33.9435C62.4187 34.1322 62.3047 34.3841 62.3047 34.7001V42.3096C62.3047 42.8092 62.6342 43.1838 63.285 43.4356C63.7668 43.6221 64.3052 43.7139 64.9032 43.7139C65.676 43.7139 66.2983 43.5303 66.7689 43.1586C67.2831 42.75 67.542 42.1636 67.542 41.4049V38.4726C67.542 37.5828 67.2543 37.0247 66.6866 36.8025ZM66.7954 41.4049C66.7954 41.7299 66.6925 42.0164 66.4917 42.2689C66.2872 42.5205 66.0291 42.6434 65.7128 42.6434C65.3893 42.6434 65.123 42.5138 64.9185 42.2533C64.7332 42.0231 64.6428 41.7388 64.6428 41.4049V37.3585H66.0314C66.5403 37.3585 66.7954 37.6686 66.7954 38.2898V41.4049Z" fill="white"/>
<path fill-rule="evenodd" clip-rule="evenodd" d="M122.723 43.6161H127.241C127.471 43.6161 127.585 43.5007 127.585 43.2608C127.585 43.0076 127.471 42.8803 127.241 42.8803H125.048C124.717 42.8803 124.438 42.7915 124.214 42.6086C123.992 42.4309 123.88 42.18 123.88 41.8602V40.048C123.88 39.5691 123.944 39.2743 124.064 39.164C124.181 39.0544 124.632 38.996 125.41 38.987H126.589C126.822 38.987 126.936 38.865 126.936 38.6229C126.936 38.3926 126.822 38.2771 126.589 38.2771H125.396C124.657 38.2683 124.217 38.1884 124.081 38.0462C123.95 37.9041 123.88 37.6043 123.88 37.1327V35.4138C123.88 34.9458 123.944 34.6557 124.064 34.5491C124.181 34.4373 124.632 34.3729 125.41 34.3536H126.589C126.822 34.3536 126.936 34.233 126.936 33.9908C126.936 33.7696 126.822 33.6592 126.589 33.6592H122.723C122.402 33.6592 122.121 33.7525 121.892 33.9376C121.662 34.1213 121.547 34.3751 121.547 34.7001V42.5575C121.547 42.8863 121.662 43.1423 121.886 43.3318C122.112 43.5214 122.389 43.6161 122.723 43.6161Z" fill="white"/>
<path fill-rule="evenodd" clip-rule="evenodd" d="M111.984 33.9908C111.984 34.233 112.095 34.3536 112.315 34.3536C113.367 34.3536 113.961 34.4136 114.099 34.535C114.236 34.6526 114.306 34.9481 114.306 35.4093V42.5575C114.306 42.8863 114.421 43.1423 114.646 43.3318C114.871 43.5214 115.145 43.6161 115.467 43.6161C115.8 43.6161 116.079 43.5214 116.302 43.3318C116.529 43.1423 116.643 42.8863 116.643 42.5575V35.4093C116.643 34.94 116.71 34.6424 116.841 34.5254C116.973 34.4136 117.565 34.3536 118.618 34.3536C118.848 34.3536 118.962 34.233 118.962 33.9908C118.962 33.7696 118.848 33.6592 118.618 33.6592H112.315C112.095 33.6592 111.984 33.7696 111.984 33.9908Z" fill="white"/>
<path fill-rule="evenodd" clip-rule="evenodd" d="M88.951 43.3378C89.1701 43.1512 89.2813 42.895 89.2813 42.5575V35.4093C89.2813 34.9096 89.5092 34.5905 89.9717 34.4529C90.1829 34.3841 90.616 34.3536 91.2699 34.3536C91.5 34.3536 91.6148 34.233 91.6148 33.9908C91.6148 33.7696 91.5 33.6592 91.2699 33.6592H88.1206C87.7985 33.6592 87.5227 33.7525 87.2911 33.9376C87.0615 34.1213 86.9453 34.3751 86.9453 34.7001V42.5575C86.9453 42.8863 87.0579 43.1423 87.2844 43.3318C87.5102 43.5214 87.7897 43.6161 88.1206 43.6161C88.4516 43.6161 88.7282 43.5244 88.951 43.3378Z" fill="white"/>
<path fill-rule="evenodd" clip-rule="evenodd" d="M100.496 41.9193L97.4023 33.8405C97.2898 33.5541 97.167 33.4082 97.0286 33.4082C96.8904 33.4082 96.7661 33.5541 96.6557 33.8405L93.0078 43.2133C93.0078 43.4799 93.0894 43.616 93.2565 43.616C93.5514 43.616 93.7315 43.5376 93.7985 43.3702L94.3728 41.8098C94.4663 41.5684 94.642 41.4463 94.8995 41.4463H97.5949C97.8348 41.4463 98.0303 41.6292 98.1804 41.9904C98.3348 42.3509 98.4849 42.7055 98.6312 43.0593C98.86 43.4296 99.1821 43.616 99.5976 43.616C100.27 43.616 100.608 43.2607 100.608 42.5464C100.608 42.3206 100.568 42.114 100.496 41.9193ZM97.1787 40.7519H95.3018C95.0524 40.7519 94.9268 40.6631 94.9268 40.4891C94.9268 40.367 95.0988 39.8709 95.4379 38.9981C95.6607 38.4725 95.8762 37.9403 96.088 37.4109C96.1314 37.2836 96.1917 37.2185 96.269 37.2185C96.3322 37.2185 96.3874 37.2836 96.433 37.4109C96.6338 37.9403 96.8433 38.4725 97.0551 38.9981C97.3853 39.8709 97.5553 40.367 97.5553 40.4891C97.5553 40.6631 97.4287 40.7519 97.1787 40.7519Z" fill="white"/>
<path fill-rule="evenodd" clip-rule="evenodd" d="M108.492 33.9635C107.976 33.7599 107.444 33.6592 106.89 33.6592C105.139 33.6592 104.265 34.4292 104.265 35.9652V42.6175C104.265 42.7915 104.144 42.8803 103.904 42.8803H103.477C103.313 42.9054 103.227 43.0135 103.227 43.1897C103.227 43.474 103.458 43.6161 103.919 43.6161C104.63 43.6161 104.983 43.2697 104.983 42.573V35.9541C104.983 35.0258 105.341 34.561 106.06 34.561C106.796 34.561 107.167 35.0258 107.167 35.9541V42.5575C107.167 42.8863 107.275 43.1423 107.491 43.3318C107.709 43.5214 107.976 43.6161 108.298 43.6161C108.632 43.6161 108.915 43.5214 109.149 43.3318C109.384 43.1423 109.502 42.8863 109.502 42.5575V35.0518C109.502 34.5846 109.163 34.224 108.492 33.9635Z" fill="white"/>
<path fill-rule="evenodd" clip-rule="evenodd" d="M79.3922 43.363L80.3667 40.3729C80.4601 40.0649 80.5838 39.9147 80.7404 39.9147C80.8993 39.9147 81.0368 40.0775 81.1566 40.4025L81.9606 42.6582C82.0533 42.9366 82.2164 43.1645 82.4503 43.3437C82.6857 43.5273 82.9534 43.6161 83.2476 43.6161C83.9301 43.6161 84.2728 43.2549 84.2728 42.5309C84.2728 42.2799 84.2434 42.0726 84.1765 41.9076C83.1726 39.2913 82.6695 37.9662 82.6695 37.9256C82.6695 37.8988 82.6945 37.8197 82.7394 37.6775C83.5337 35.239 83.9265 34.0087 83.9265 33.9908C83.9265 33.9376 83.9 33.8666 83.8455 33.7844C83.7889 33.7007 83.7411 33.6592 83.6962 33.6592C83.3844 33.6592 83.2034 33.7423 83.1534 33.9117L82.3938 36.2732C82.2908 36.5811 82.1643 36.7315 82.0062 36.7315C81.8487 36.7315 81.7163 36.5708 81.6045 36.2429L81.0132 34.6053C80.7816 33.9731 80.3543 33.6592 79.7291 33.6592C79.0459 33.6592 78.7068 34.0087 78.7068 34.715C78.7068 34.9659 78.7377 35.1791 78.8031 35.3539C79.6393 37.6266 80.0608 38.785 80.0608 38.8323C80.0608 38.8716 79.5761 40.3344 78.6061 43.2252C78.5803 43.2919 78.5951 43.3734 78.6494 43.4681C78.7032 43.5687 78.7701 43.6161 78.8414 43.6161C79.1459 43.6161 79.329 43.5332 79.3922 43.363Z" fill="white"/>
<path fill-rule="evenodd" clip-rule="evenodd" d="M156.398 43.6309C156.93 43.6309 157.322 43.2963 157.569 42.6257L158.901 39.0544C159.007 38.785 159.16 38.6495 159.372 38.6495C159.64 38.6495 159.771 38.785 159.771 39.0544V43.1838C159.771 43.48 159.894 43.6309 160.14 43.6309C160.393 43.6309 160.517 43.48 160.517 43.1838V35.0043C160.517 34.1093 160.158 33.6592 159.443 33.6592C158.934 33.6592 158.556 33.9908 158.295 34.6594L156.927 38.221C156.824 38.4815 156.669 38.611 156.458 38.611C156.207 38.611 156.083 38.4815 156.083 38.221V34.0886C156.083 33.8044 155.96 33.6592 155.71 33.6592C155.459 33.6592 155.336 33.8044 155.336 34.0886V42.2799C155.336 43.1823 155.692 43.6309 156.398 43.6309Z" fill="white"/>
<path fill-rule="evenodd" clip-rule="evenodd" d="M163.165 43.4681C163.22 43.5687 163.283 43.6161 163.356 43.6161C163.66 43.6161 163.842 43.5332 163.907 43.363L164.881 40.3729C164.973 40.0649 165.098 39.9147 165.257 39.9147C165.41 39.9147 165.551 40.0775 165.669 40.4025L166.477 42.6582C166.568 42.9366 166.731 43.1645 166.968 43.3437C167.202 43.5273 167.469 43.6161 167.766 43.6161C168.446 43.6161 168.79 43.2549 168.79 42.5309C168.79 42.2799 168.755 42.0726 168.696 41.9076C167.69 39.2913 167.184 37.9662 167.184 37.9256C167.184 37.8988 167.21 37.8197 167.255 37.6775C168.049 35.239 168.443 34.0087 168.443 33.9908C168.443 33.9376 168.42 33.8666 168.358 33.7844C168.306 33.7007 168.256 33.6592 168.209 33.6592C167.894 33.6592 167.719 33.7423 167.672 33.9117L166.907 36.2732C166.809 36.5811 166.681 36.7315 166.526 36.7315C166.366 36.7315 166.234 36.5708 166.122 36.2429L165.528 34.6053C165.298 33.9731 164.867 33.6592 164.242 33.6592C163.56 33.6592 163.22 34.0087 163.22 34.715C163.22 34.9659 163.254 35.1791 163.318 35.3539C164.154 37.6266 164.575 38.785 164.575 38.8323C164.575 38.8716 164.089 40.3344 163.126 43.2252C163.095 43.2919 163.108 43.3734 163.165 43.4681Z" fill="white"/>
<path fill-rule="evenodd" clip-rule="evenodd" d="M147.13 43.6161C147.452 43.6161 147.729 43.5214 147.956 43.3318C148.182 43.1423 148.294 42.8863 148.294 42.5575V39.4142C148.294 39.1671 148.435 39.0397 148.709 39.0397C148.912 39.0397 149.057 39.1671 149.151 39.4142L150.38 42.6848C150.633 43.3407 151.024 43.6724 151.568 43.6724C152.296 43.6724 152.658 43.0949 152.658 41.9482C152.259 40.9437 151.848 39.9443 151.445 38.9427C150.761 37.2408 150.424 36.3117 150.424 36.1607C150.424 35.9393 150.546 35.5574 150.797 35.0132C151.046 34.4699 151.169 34.1123 151.169 33.9376C151.169 33.7525 151.089 33.6592 150.918 33.6592C150.743 33.6592 150.633 33.6652 150.589 33.6712C150.496 33.7096 150.43 33.7896 150.38 33.9117L148.943 37.8456C148.853 38.1061 148.745 38.2357 148.623 38.2357C148.406 38.2357 148.294 38.124 148.294 37.8988V34.7001C148.294 34.3751 148.182 34.1213 147.964 33.9376C147.742 33.7525 147.466 33.6592 147.13 33.6592C146.811 33.6592 146.534 33.7525 146.302 33.9376C146.073 34.1213 145.961 34.3751 145.961 34.7001V42.5575C145.961 42.8863 146.071 43.1423 146.296 43.3318C146.523 43.5214 146.802 43.6161 147.13 43.6161Z" fill="white"/>
<path fill-rule="evenodd" clip-rule="evenodd" d="M134.452 33.8138C133.946 33.6258 133.416 33.5332 132.863 33.5332C132.144 33.5332 131.541 33.7227 131.051 34.104C130.528 34.52 130.266 35.0848 130.266 35.7888V42.5581C130.266 42.8868 130.377 43.1428 130.598 43.3294C130.828 43.5219 131.104 43.6167 131.428 43.6167C131.759 43.6167 132.034 43.5219 132.262 43.3323C132.487 43.1428 132.596 42.8868 132.596 42.5581V40.7399C133.224 40.7399 133.796 40.6688 134.317 40.5304C135.082 40.3047 135.461 39.9596 135.461 39.4992V34.8695C135.461 34.417 135.123 34.0655 134.452 33.8138ZM133.125 38.5827C133.125 38.8958 133.024 39.18 132.825 39.4362C132.622 39.691 132.369 39.8174 132.066 39.8174C131.745 39.8174 131.489 39.688 131.287 39.4282C131.104 39.1971 131.01 38.9129 131.01 38.5827V35.7888C131.01 35.455 131.107 35.1656 131.298 34.9205C131.491 34.6747 131.745 34.5497 132.066 34.5497C132.39 34.5497 132.646 34.6747 132.835 34.9205C133.028 35.1656 133.125 35.455 133.125 35.7888V38.5827Z" fill="white"/>
<path fill-rule="evenodd" clip-rule="evenodd" d="M140.739 43.673C141.337 43.673 141.871 43.5811 142.352 43.396C143.017 43.1429 143.347 42.7684 143.347 42.2694V40.4031C143.347 40.0891 143.229 39.8264 143 39.6199C142.764 39.4104 142.489 39.3067 142.182 39.3067C141.849 39.3067 141.573 39.4125 141.349 39.6317C141.126 39.8501 141.008 40.1758 141.008 40.6126V41.2247C141.008 41.6638 140.908 41.9999 140.693 42.2419C140.486 42.4789 140.233 42.5995 139.94 42.5995C139.628 42.5995 139.375 42.4759 139.174 42.2243C138.969 41.9725 138.869 41.686 138.869 41.364V35.9421C138.869 35.6171 138.969 35.3307 139.174 35.0796C139.375 34.828 139.628 34.7006 139.94 34.7006C140.233 34.7006 140.486 34.8221 140.693 35.0648C140.908 35.307 141.008 35.6556 141.008 36.1139V36.7134C141.008 37.1657 141.126 37.5211 141.349 37.7669C141.573 38.0142 141.849 38.1393 142.182 38.1393C142.522 38.1393 142.797 38.0142 143.017 37.7758C143.235 37.5323 143.347 37.2413 143.347 36.8942V34.9316C143.347 34.4645 143.011 34.1003 142.341 33.8412C141.823 33.6331 141.29 33.5332 140.739 33.5332C140.017 33.5332 139.414 33.7338 138.925 34.1299C138.39 34.5674 138.125 35.1381 138.125 35.8451V41.364C138.125 42.1243 138.378 42.7061 138.885 43.1162C139.346 43.4864 139.962 43.673 140.739 43.673Z" fill="white"/>
<path fill-rule="evenodd" clip-rule="evenodd" d="M76.3339 10.0609H74.1414C73.8105 10.0609 73.5302 9.96988 73.3119 9.79281C73.0861 9.61452 72.9772 9.36276 72.9772 9.03779V7.23144C72.9772 6.75328 73.0376 6.45789 73.1581 6.34836C73.2795 6.23871 73.7274 6.17432 74.5048 6.16543H75.683C75.9161 6.16543 76.0302 6.047 76.0302 5.80351C76.0302 5.57321 75.9161 5.45852 75.683 5.45852H74.4901C73.7495 5.45036 73.3119 5.37267 73.1788 5.23056C73.0441 5.0884 72.9772 4.78194 72.9772 4.31688V2.59361C72.9772 2.12567 73.0376 1.83703 73.1581 1.72746C73.2795 1.61781 73.7274 1.55565 74.5048 1.53579H75.683C75.9161 1.53579 76.0302 1.41732 76.0302 1.17445C76.0302 0.950122 75.9161 0.839844 75.683 0.839844H71.816C71.4937 0.839844 71.218 0.932325 70.9863 1.1181C70.7576 1.30544 70.6406 1.55947 70.6406 1.88217V9.74177C70.6406 10.0668 70.7547 10.3236 70.9797 10.5131C71.2069 10.7026 71.4864 10.7974 71.816 10.7974H76.3361C76.5655 10.7974 76.6803 10.6827 76.6803 10.4421C76.6803 10.1882 76.5655 10.0609 76.3339 10.0609Z" fill="white"/>
<path fill-rule="evenodd" clip-rule="evenodd" d="M63.4785 10.7974H66.9632C67.2764 10.7974 67.4332 10.9833 67.4332 11.3526V11.7458C67.4332 12.0596 67.5552 12.2151 67.8059 12.2151C68.0554 12.2151 68.1781 12.0751 68.1781 11.7872V10.5065C68.1781 10.3125 68.1186 10.1853 67.9973 10.1312C67.9236 10.1024 67.7766 10.0883 67.5552 10.0883V1.27137C67.5552 0.981995 67.4294 0.839844 67.1764 0.839844C66.933 0.839844 66.8102 0.981995 66.8102 1.27137V10.0883H65.8085C65.4863 10.0883 65.2142 9.99943 64.9855 9.81065C64.7524 9.62623 64.6428 9.37166 64.6428 9.04743V1.88217C64.6428 1.55947 64.5302 1.30544 64.3081 1.1181C64.0889 0.932325 63.8109 0.839844 63.4785 0.839844C63.1585 0.839844 62.8827 0.932325 62.6511 1.1181C62.4187 1.30544 62.3047 1.55947 62.3047 1.88217V9.74177C62.3047 10.0668 62.4187 10.3236 62.643 10.5131C62.8666 10.7026 63.1475 10.7974 63.4785 10.7974Z" fill="white"/>
<path fill-rule="evenodd" clip-rule="evenodd" d="M80.3722 10.7974C80.7024 10.7974 80.9811 10.7026 81.2077 10.5131C81.4327 10.3236 81.5482 10.0668 81.5482 9.74177V6.23871C81.5482 6.07958 81.5695 5.993 81.6137 5.97224H83.4031C83.495 5.97224 83.5752 5.98188 83.6473 5.99959C83.673 6.09437 83.6891 6.4719 83.6891 7.14119C83.6973 7.61338 83.6973 8.25531 83.6891 9.05844V10.3681C83.6891 10.6553 83.8106 10.7974 84.0532 10.7974C84.3092 10.7974 84.4357 10.6553 84.4357 10.3681V1.27137C84.4357 0.981995 84.3092 0.839844 84.0532 0.839844C83.8106 0.839844 83.6891 0.981995 83.6891 1.27137V4.10742C83.6803 4.6923 83.6612 5.02979 83.634 5.12454C83.5626 5.15056 83.4833 5.16606 83.3942 5.16606H81.827C81.7468 5.16606 81.6769 5.15056 81.6137 5.12454C81.5769 5.02979 81.5549 4.74331 81.5482 4.26077V1.88217C81.5482 1.55053 81.4327 1.29288 81.2077 1.10936C80.9811 0.930101 80.7024 0.839844 80.3722 0.839844C80.0501 0.839844 79.7751 0.934628 79.5515 1.12415C79.3219 1.31657 79.2109 1.56751 79.2109 1.88217V9.74177C79.2109 10.0668 79.3219 10.3236 79.5515 10.5131C79.7751 10.7026 80.0501 10.7974 80.3722 10.7974Z" fill="white"/>
<path fill-rule="evenodd" clip-rule="evenodd" d="M87.3864 1.53579C88.4351 1.53579 89.0323 1.59791 89.1699 1.71637C89.3081 1.83703 89.3737 2.13019 89.3737 2.59361V9.74177C89.3737 10.0668 89.4891 10.3236 89.7142 10.5131C89.9399 10.7026 90.2128 10.7974 90.5349 10.7974C90.8688 10.7974 91.1469 10.7026 91.3734 10.5131C91.5977 10.3236 91.711 10.0668 91.711 9.74177V2.59361C91.711 2.11751 91.7764 1.82442 91.9095 1.70966C92.0456 1.59119 92.6361 1.53579 93.6857 1.53579C93.9181 1.53579 94.0343 1.41732 94.0343 1.17445C94.0343 0.950122 93.9181 0.839844 93.6857 0.839844H87.3864C87.1635 0.839844 87.0547 0.950122 87.0547 1.17445C87.0547 1.41732 87.1635 1.53579 87.3864 1.53579Z" fill="white"/>
<path fill-rule="evenodd" clip-rule="evenodd" d="M100.687 0.994235C100.181 0.807676 99.6479 0.712891 99.0984 0.712891C98.377 0.712891 97.7761 0.905348 97.2855 1.28728C96.7611 1.70348 96.5 2.266 96.5 2.97228V9.74144C96.5 10.0643 96.6111 10.3204 96.8405 10.5128C97.0619 10.7023 97.3407 10.7971 97.6613 10.7971C97.9916 10.7971 98.2703 10.7023 98.4968 10.5128C98.7234 10.3233 98.8336 10.0665 98.8336 9.74144V7.91737C99.4632 7.91737 100.035 7.8492 100.548 7.71379C101.312 7.48802 101.694 7.14304 101.694 6.67818V2.05279C101.694 1.59758 101.361 1.24225 100.687 0.994235ZM99.3595 5.75943C99.3595 6.07631 99.2572 6.36277 99.0565 6.61738C98.858 6.87429 98.6056 7.00092 98.3049 7.00092C97.9827 7.00092 97.7216 6.87138 97.5187 6.61079C97.3369 6.37682 97.2465 6.09622 97.2465 5.75943V2.97228C97.2465 2.63467 97.3429 2.34526 97.5326 2.10017C97.7267 1.85145 97.9827 1.72934 98.3049 1.72934C98.6226 1.72934 98.8792 1.85145 99.0713 2.10017C99.2632 2.34526 99.3595 2.63467 99.3595 2.97228V5.75943Z" fill="white"/>
<path fill-rule="evenodd" clip-rule="evenodd" d="M75.2753 49.4495C74.7597 49.2496 74.2264 49.1445 73.6733 49.1445C72.9541 49.1445 72.3503 49.3444 71.8634 49.7456C71.3258 50.1809 71.0625 50.7539 71.0625 51.4571V56.9738C71.0625 57.7333 71.3148 58.3181 71.8222 58.7268C72.2797 59.0998 72.8997 59.2864 73.6733 59.2864C74.272 59.2864 74.8141 59.1946 75.2914 59.0082C75.9526 58.7565 76.2857 58.3803 76.2857 57.8814V56.0173C76.2857 55.7035 76.1696 55.4385 75.9343 55.2297C75.7004 55.0194 75.4304 54.9203 75.1171 54.9203C74.789 54.9203 74.5119 55.0283 74.2876 55.2416C74.0609 55.4636 73.9499 55.7923 73.9499 56.2261V56.8377C73.9499 57.2729 73.844 57.6105 73.6337 57.8518C73.4233 58.0947 73.1711 58.216 72.8784 58.216C72.5665 58.216 72.3106 58.0887 72.1099 57.8399C71.9075 57.5897 71.809 57.298 71.809 56.9738V51.5549C71.809 51.2262 71.9075 50.9405 72.1099 50.6872C72.3106 50.437 72.5665 50.3142 72.8784 50.3142C73.1711 50.3142 73.4233 50.4356 73.6337 50.6784C73.844 50.9212 73.9499 51.2676 73.9499 51.7237V52.3232C73.9499 52.7822 74.0609 53.1332 74.2876 53.379C74.5119 53.6247 74.789 53.7476 75.1171 53.7476C75.4562 53.7476 75.7379 53.6276 75.9548 53.3878C76.1755 53.1465 76.2857 52.8489 76.2857 52.5113V50.5422C76.2857 50.0742 75.9504 49.7101 75.2753 49.4495Z" fill="white"/>
<path fill-rule="evenodd" clip-rule="evenodd" d="M84.1011 49.5778C83.5841 49.3752 83.0516 49.2715 82.4986 49.2715C80.7489 49.2715 79.8737 50.0399 79.8737 51.5767V58.2275C79.8737 58.4066 79.7531 58.491 79.5154 58.491H79.0845C78.9191 58.5207 78.8359 58.6242 78.8359 58.805C78.8359 59.0921 79.0675 59.2313 79.5272 59.2313C80.2363 59.2313 80.5915 58.8818 80.5915 58.1859V51.5677C80.5915 50.6395 80.9496 50.176 81.6689 50.176C82.4052 50.176 82.7759 50.6395 82.7759 51.5677V58.1712C82.7759 58.4969 82.8833 58.7545 83.0995 58.9471C83.3164 59.1335 83.5841 59.2313 83.9093 59.2313C84.2387 59.2313 84.5226 59.1335 84.7579 58.9471C84.9918 58.7545 85.1095 58.4969 85.1095 58.1712V50.6647C85.1095 50.1968 84.7726 49.8355 84.1011 49.5778Z" fill="white"/>
<path fill-rule="evenodd" clip-rule="evenodd" d="M68.3333 49.2588C68.0472 49.2588 67.8729 49.3387 67.8097 49.509L66.4829 53.166C66.4461 53.2696 66.3741 53.3199 66.2704 53.3199C66.1637 53.3199 66.0924 53.2696 66.0438 53.1705L64.6001 50.2166C64.4427 49.8909 64.3081 49.6689 64.2 49.5489C64.0036 49.355 63.7704 49.2588 63.4918 49.2588C62.7019 49.2588 62.3047 49.8228 62.3047 50.9526L65.0679 56.3758C65.1539 56.5476 65.1921 56.6898 65.1921 56.8111C65.1921 56.9592 65.1311 57.0303 65.0163 57.0303C64.9855 57.0303 64.8641 56.9859 64.6479 56.8911C64.4317 56.8023 64.2471 56.7519 64.1015 56.7519C63.7874 56.7519 63.5417 56.897 63.3549 57.1872C63.2005 57.4301 63.1196 57.7173 63.1196 58.043C63.1196 58.8366 63.4983 59.2305 64.2536 59.2305C64.4279 59.2305 64.6287 59.158 64.8612 59.0202C65.0929 58.881 65.2341 58.733 65.2884 58.576L68.5922 49.66C68.5922 49.4868 68.5062 49.3506 68.3333 49.2588Z" fill="white"/>
<path fill-rule="evenodd" clip-rule="evenodd" d="M93.7381 49.2588C93.4528 49.2588 93.277 49.3387 93.2145 49.509L91.8877 53.166C91.8495 53.2696 91.7804 53.3199 91.6745 53.3199C91.5736 53.3199 91.4972 53.2696 91.4501 53.1705L90.0056 50.2166C89.849 49.8909 89.7167 49.6689 89.6048 49.5489C89.4091 49.355 89.1753 49.2588 88.8995 49.2588C88.1067 49.2588 87.7109 49.8228 87.7109 50.9526L90.4741 56.3758C90.5587 56.5476 90.5977 56.6898 90.5977 56.8111C90.5977 56.9592 90.5374 57.0303 90.4197 57.0303C90.391 57.0303 90.2697 56.9859 90.0527 56.8911C89.8365 56.8023 89.6534 56.7519 89.507 56.7519C89.1944 56.7519 88.9437 56.897 88.7604 57.1872C88.6031 57.4301 88.5251 57.7173 88.5251 58.043C88.5251 58.8366 88.9017 59.2305 89.6593 59.2305C89.8343 59.2305 90.0359 59.158 90.2674 59.0202C90.4977 58.881 90.6403 58.733 90.6948 58.576L93.9984 49.66C93.9984 49.4868 93.9117 49.3506 93.7381 49.2588Z" fill="white"/>
<path fill-rule="evenodd" clip-rule="evenodd" d="M100.974 49.2715H97.8223C97.5002 49.2715 97.2236 49.3662 96.9911 49.5498C96.7618 49.7393 96.6484 49.9925 96.6484 50.3153V58.1712C96.6484 58.4969 96.7595 58.7545 96.9861 58.9471C97.2104 59.1335 97.4914 59.2313 97.8223 59.2313C98.151 59.2313 98.4299 59.1395 98.6511 58.9529C98.8703 58.7663 98.9829 58.5057 98.9829 58.1712V51.0229C98.9829 50.5254 99.2138 50.2027 99.6742 50.0636C99.8845 50.0013 100.318 49.9658 100.974 49.9658C101.202 49.9658 101.319 49.8444 101.319 49.6046C101.319 49.3825 101.202 49.2715 100.974 49.2715Z" fill="white"/>
<path fill-rule="evenodd" clip-rule="evenodd" d="M63.466 27.8536C63.797 27.8536 64.0764 27.756 64.3015 27.5708C64.5287 27.3777 64.6428 27.1208 64.6428 26.7958V19.6475C64.6428 19.3219 64.7524 19.0656 64.9767 18.8762C65.2017 18.6837 65.4752 18.5889 65.7937 18.5889H66.4137C66.669 18.5889 66.7954 18.7488 66.7954 19.062V27.4221C66.7954 27.7086 66.919 27.8536 67.1625 27.8536C67.4154 27.8536 67.542 27.7086 67.542 27.4221V18.5889C67.542 18.4209 67.4639 18.2639 67.3 18.1159C67.1397 17.9708 66.9764 17.8945 66.8102 17.8945H63.466C63.135 17.8945 62.8585 17.99 62.6364 18.1722C62.4157 18.3587 62.3047 18.6126 62.3047 18.9383V26.7958C62.3047 27.1208 62.4187 27.3777 62.6452 27.5708C62.871 27.756 63.1438 27.8536 63.466 27.8536Z" fill="white"/>
<path fill-rule="evenodd" clip-rule="evenodd" d="M123.625 27.8684C124.158 27.8684 124.548 27.5316 124.795 26.8638L126.133 23.2928C126.233 23.0233 126.388 22.8871 126.6 22.8871C126.867 22.8871 127.003 23.0233 127.003 23.2928V27.4221C127.003 27.7211 127.122 27.8684 127.367 27.8684C127.619 27.8684 127.745 27.7211 127.745 27.4221V19.2448C127.745 18.3417 127.387 17.8945 126.669 17.8945C126.16 17.8945 125.779 18.2276 125.524 18.8969L124.155 22.4562C124.053 22.7168 123.897 22.8463 123.686 22.8463C123.435 22.8463 123.31 22.7168 123.31 22.4562V18.3224C123.31 18.0397 123.185 17.8945 122.937 17.8945C122.689 17.8945 122.562 18.0397 122.562 18.3224V26.5152C122.562 27.4161 122.919 27.8684 123.625 27.8684Z" fill="white"/>
<path fill-rule="evenodd" clip-rule="evenodd" d="M117.262 27.9062C117.861 27.9062 118.399 27.8152 118.876 27.6286C119.542 27.377 119.873 27.0016 119.873 26.5019V24.6402C119.873 24.3233 119.755 24.0605 119.525 23.8539C119.289 23.6467 119.016 23.5437 118.706 23.5437C118.374 23.5437 118.098 23.6496 117.874 23.865C117.65 24.0842 117.539 24.4122 117.539 24.8467V25.4589C117.539 25.8964 117.434 26.2325 117.223 26.4753C117.012 26.7152 116.76 26.8395 116.465 26.8395C116.154 26.8395 115.9 26.7122 115.699 26.4605C115.496 26.2088 115.394 25.9223 115.394 25.5974V20.1762C115.394 19.8512 115.496 19.564 115.699 19.3123C115.9 19.0613 116.154 18.9377 116.465 18.9377C116.76 18.9377 117.012 19.0561 117.223 19.3019C117.434 19.541 117.539 19.892 117.539 20.3479V20.9476C117.539 21.4029 117.65 21.7582 117.874 22.0032C118.098 22.249 118.374 22.3697 118.706 22.3697C119.042 22.3697 119.321 22.249 119.544 22.0092C119.764 21.7685 119.873 21.474 119.873 21.1311V19.1657C119.873 18.6986 119.536 18.3343 118.864 18.0737C118.349 17.8709 117.815 17.7695 117.262 17.7695C116.543 17.7695 115.938 17.9702 115.451 18.3669C114.916 18.8015 114.648 19.3752 114.648 20.0778V25.5974C114.648 26.3569 114.904 26.9432 115.409 27.3504C115.869 27.7235 116.485 27.9062 117.262 27.9062Z" fill="white"/>
<path fill-rule="evenodd" clip-rule="evenodd" d="M111.987 24.6402C111.987 24.3233 111.873 24.0605 111.639 23.8539C111.404 23.6467 111.134 23.5437 110.82 23.5437C110.493 23.5437 110.216 23.6496 109.99 23.865C109.764 24.0842 109.653 24.4122 109.653 24.8467V25.4589C109.653 25.8964 109.548 26.2325 109.338 26.4753C109.127 26.7152 108.876 26.8395 108.584 26.8395C108.27 26.8395 108.014 26.7122 107.814 26.4605C107.61 26.2088 107.512 25.9223 107.512 25.5974V20.1762C107.512 19.8512 107.61 19.564 107.814 19.3123C108.014 19.0613 108.27 18.9377 108.584 18.9377C108.876 18.9377 109.127 19.0561 109.338 19.3019C109.548 19.541 109.653 19.892 109.653 20.3479V20.9476C109.653 21.4029 109.764 21.7582 109.99 22.0032C110.216 22.249 110.493 22.3697 110.82 22.3697C111.16 22.3697 111.441 22.249 111.66 22.0092C111.879 21.7685 111.987 21.474 111.987 21.1311V19.1657C111.987 18.6986 111.654 18.3343 110.979 18.0737C110.463 17.8709 109.929 17.7695 109.377 17.7695C108.658 17.7695 108.055 17.9702 107.567 18.3669C107.031 18.8015 106.766 19.3752 106.766 20.0778V25.5974C106.766 26.3569 107.02 26.9432 107.524 27.3504C107.984 27.7235 108.604 27.9062 109.377 27.9062C109.975 27.9062 110.517 27.8152 110.994 27.6286C111.657 27.377 111.987 27.0016 111.987 26.5019V24.6402Z" fill="white"/>
<path fill-rule="evenodd" clip-rule="evenodd" d="M187.35 27.8536C187.597 27.8536 187.721 27.7086 187.721 27.4221V18.3224C187.721 18.0397 187.597 17.8945 187.35 17.8945C187.1 17.8945 186.977 18.0397 186.977 18.3224V27.4221C186.977 27.7086 187.1 27.8536 187.35 27.8536Z" fill="white"/>
<path fill-rule="evenodd" clip-rule="evenodd" d="M169.439 20.9808C168.939 20.8424 168.369 20.7742 167.725 20.7742V18.9383C167.725 18.6045 167.612 18.3461 167.388 18.1669C167.159 17.9863 166.882 17.8945 166.548 17.8945C166.229 17.8945 165.955 17.99 165.729 18.1781C165.503 18.3697 165.391 18.6238 165.391 18.9383V25.7223C165.391 26.4374 165.655 26.9965 166.178 27.405C166.66 27.7862 167.259 27.9779 167.987 27.9779C168.538 27.9779 169.074 27.8832 169.58 27.7004C170.249 27.4495 170.586 27.097 170.586 26.6382V22.015C170.586 21.539 170.204 21.1962 169.439 20.9808ZM168.253 25.7223C168.253 26.0474 168.159 26.3382 167.963 26.5863C167.771 26.8365 167.518 26.9638 167.194 26.9638C166.873 26.9638 166.613 26.8343 166.414 26.5708C166.229 26.3405 166.138 26.0562 166.138 25.7223V22.9321C166.138 22.6072 166.235 22.3207 166.425 22.0683C166.617 21.8165 166.873 21.6893 167.194 21.6893C167.518 21.6893 167.771 21.8165 167.963 22.0683C168.159 22.3207 168.253 22.6072 168.253 22.9321V25.7223Z" fill="white"/>
<path fill-rule="evenodd" clip-rule="evenodd" d="M190.382 27.7064C190.435 27.8063 190.506 27.8536 190.576 27.8536C190.879 27.8536 191.065 27.7686 191.126 27.5989L192.103 24.6082C192.194 24.3068 192.318 24.1522 192.471 24.1522C192.633 24.1522 192.771 24.3158 192.889 24.6408L193.695 26.8942C193.786 27.1741 193.951 27.3984 194.186 27.582C194.421 27.7625 194.689 27.8536 194.98 27.8536C195.666 27.8536 196.01 27.4894 196.01 26.7654C196.01 26.5174 195.975 26.3101 195.913 26.1422C194.907 23.5289 194.407 22.2023 194.407 22.166C194.407 22.1372 194.427 22.0534 194.474 21.9151C195.269 19.4728 195.663 18.2491 195.663 18.2276C195.663 18.1722 195.633 18.1047 195.581 18.0182C195.522 17.9361 195.475 17.8945 195.424 17.8945C195.116 17.8945 194.936 17.9796 194.886 18.1454L194.13 20.5107C194.027 20.815 193.901 20.9652 193.742 20.9652C193.589 20.9652 193.451 20.806 193.342 20.4781L192.75 18.8414C192.512 18.2077 192.091 17.8945 191.462 17.8945C190.782 17.8945 190.441 18.2491 190.441 18.9509C190.441 19.2012 190.47 19.4166 190.538 19.589C191.374 21.8617 191.794 23.0233 191.794 23.0684C191.794 23.1054 191.312 24.5719 190.341 27.4635C190.315 27.5257 190.329 27.6094 190.382 27.7064Z" fill="white"/>
<path fill-rule="evenodd" clip-rule="evenodd" d="M174.303 27.8536C174.632 27.8536 174.913 27.756 175.138 27.5708C175.362 27.3777 175.474 27.1208 175.474 26.7958V23.2928C175.474 23.1298 175.499 23.0469 175.541 23.0292H177.327C177.421 23.0292 177.503 23.0358 177.574 23.0559C177.604 23.1477 177.618 23.5289 177.618 24.1973C177.627 24.6711 177.627 25.3085 177.618 26.1125V27.4221C177.618 27.7086 177.739 27.8536 177.986 27.8536C178.236 27.8536 178.365 27.7086 178.365 27.4221V18.3224C178.365 18.0397 178.236 17.8945 177.986 17.8945C177.739 17.8945 177.618 18.0397 177.618 18.3224V21.1636C177.609 21.7455 177.592 22.0861 177.562 22.1786C177.492 22.2045 177.409 22.2192 177.321 22.2192H175.756C175.678 22.2192 175.607 22.2045 175.541 22.1786C175.506 22.0861 175.484 21.7966 175.474 21.3147V18.9383C175.474 18.6045 175.362 18.3461 175.138 18.1669C174.913 17.9863 174.632 17.8945 174.303 17.8945C173.981 17.8945 173.704 17.99 173.48 18.1781C173.255 18.3697 173.141 18.6215 173.141 18.9383V26.7958C173.141 27.1208 173.255 27.3777 173.48 27.5708C173.704 27.756 173.981 27.8536 174.303 27.8536Z" fill="white"/>
<path fill-rule="evenodd" clip-rule="evenodd" d="M185.118 20.9808C184.621 20.8424 184.047 20.7742 183.403 20.7742V18.9383C183.403 18.6126 183.291 18.3587 183.074 18.1722C182.85 17.99 182.577 17.8945 182.241 17.8945C181.923 17.8945 181.644 17.99 181.414 18.1722C181.182 18.3587 181.07 18.6156 181.07 18.9383V25.7223C181.07 26.4374 181.329 26.9965 181.859 27.405C182.332 27.7862 182.938 27.9779 183.665 27.9779C184.221 27.9779 184.748 27.8832 185.254 27.7004C185.927 27.4495 186.263 27.097 186.263 26.6382V22.015C186.263 21.539 185.883 21.1962 185.118 20.9808ZM183.927 25.7223C183.927 26.0562 183.836 26.3405 183.653 26.5708C183.45 26.8343 183.185 26.9638 182.865 26.9638C182.541 26.9638 182.282 26.8343 182.091 26.5708C181.903 26.3405 181.817 26.0562 181.817 25.7223V22.9321C181.817 22.6072 181.912 22.3207 182.106 22.0683C182.3 21.8165 182.55 21.6893 182.865 21.6893C183.185 21.6893 183.444 21.8143 183.639 22.0624C183.833 22.3082 183.927 22.5946 183.927 22.9321V25.7223Z" fill="white"/>
<path fill-rule="evenodd" clip-rule="evenodd" d="M157.038 27.8536C157.747 27.8536 158.097 27.5042 158.097 26.8105V20.1894C158.097 19.2634 158.459 18.7985 159.178 18.7985C159.915 18.7985 160.286 19.2634 160.286 20.1894V26.7958C160.286 27.1208 160.392 27.3777 160.61 27.5708C160.826 27.756 161.093 27.8536 161.42 27.8536C161.748 27.8536 162.03 27.756 162.266 27.5708C162.501 27.3777 162.619 27.1208 162.619 26.7958V19.287C162.619 18.8222 162.283 18.4602 161.607 18.1996C161.093 17.9989 160.558 17.8945 160.009 17.8945C158.26 17.8945 157.384 18.6629 157.384 20.2005V26.8514C157.384 27.026 157.262 27.1149 157.02 27.1149H156.594C156.431 27.1444 156.344 27.2474 156.344 27.4287C156.344 27.7115 156.576 27.8536 157.038 27.8536Z" fill="white"/>
<path fill-rule="evenodd" clip-rule="evenodd" d="M98.6388 18.1722C98.4108 18.3587 98.2969 18.6126 98.2969 18.9383V26.7958C98.2969 27.1208 98.4086 27.3777 98.6329 27.5708C98.8588 27.756 99.1375 27.8536 99.4699 27.8536H103.99C104.217 27.8536 104.335 27.7366 104.335 27.4998C104.335 27.2414 104.217 27.1149 103.987 27.1149H101.794C101.463 27.1149 101.187 27.026 100.964 26.8454C100.741 26.6655 100.63 26.4168 100.63 26.0947V24.2855C100.63 23.8072 100.69 23.5081 100.811 23.4022C100.932 23.2928 101.379 23.2306 102.159 23.2217H103.336C103.569 23.2217 103.685 23.1003 103.685 22.8574C103.685 22.6272 103.569 22.5147 103.336 22.5147H102.143C101.402 22.5035 100.967 22.4288 100.831 22.2845C100.697 22.1423 100.63 21.838 100.63 21.3686V19.6498C100.63 19.1805 100.69 18.8932 100.811 18.7836C100.932 18.6711 101.379 18.6104 102.159 18.5889H103.336C103.569 18.5889 103.685 18.4705 103.685 18.2276C103.685 18.0064 103.569 17.8945 103.34 17.8945H99.4699C99.1463 17.8945 98.8706 17.99 98.6388 18.1722Z" fill="white"/>
<path fill-rule="evenodd" clip-rule="evenodd" d="M139.468 27.8536C139.798 27.8536 140.08 27.756 140.301 27.5708C140.53 27.3777 140.641 27.1208 140.641 26.7958V23.2928C140.641 23.1298 140.663 23.0469 140.708 23.0292H142.493C142.587 23.0292 142.669 23.0358 142.74 23.0559C142.769 23.1477 142.784 23.5289 142.784 24.1973C142.793 24.6711 142.793 25.3085 142.784 26.1125V27.4221C142.784 27.7086 142.904 27.8536 143.148 27.8536C143.401 27.8536 143.531 27.7086 143.531 27.4221V18.3224C143.531 18.0397 143.401 17.8945 143.148 17.8945C142.904 17.8945 142.784 18.0397 142.784 18.3224V21.1636C142.772 21.7455 142.754 22.0861 142.729 22.1786C142.657 22.2045 142.575 22.2192 142.487 22.2192H140.921C140.842 22.2192 140.768 22.2045 140.708 22.1786C140.669 22.0861 140.648 21.7966 140.641 21.3147V18.9383C140.641 18.6045 140.53 18.3461 140.301 18.1669C140.08 17.9863 139.798 17.8945 139.468 17.8945C139.142 17.8945 138.872 17.99 138.643 18.1781C138.416 18.3697 138.305 18.6215 138.305 18.9383V26.7958C138.305 27.1208 138.416 27.3777 138.643 27.5708C138.872 27.756 139.142 27.8536 139.468 27.8536Z" fill="white"/>
<path fill-rule="evenodd" clip-rule="evenodd" d="M134.917 18.4091C134.42 18.0012 133.811 17.7969 133.094 17.7969C132.54 17.7969 132.009 17.8998 131.491 18.1048C130.81 18.3736 130.469 18.7399 130.469 19.2013V26.53C130.469 27.032 130.798 27.4073 131.462 27.6552C131.95 27.8448 132.493 27.9373 133.094 27.9373C133.867 27.9373 134.481 27.75 134.945 27.3777C135.451 26.9728 135.704 26.3879 135.704 25.6254V20.1213C135.704 19.4167 135.445 18.8436 134.917 18.4091ZM134.957 25.6276C134.957 25.9527 134.856 26.2399 134.658 26.4916C134.452 26.7396 134.195 26.8639 133.872 26.8639C133.565 26.8639 133.306 26.7396 133.108 26.4916C132.905 26.2399 132.802 25.9527 132.802 25.6276V20.1317C132.802 19.8068 132.905 19.5202 133.108 19.2723C133.306 19.0205 133.565 18.897 133.872 18.897C134.195 18.897 134.452 19.0205 134.658 19.2723C134.856 19.5202 134.957 19.8068 134.957 20.1317V25.6276Z" fill="white"/>
<path fill-rule="evenodd" clip-rule="evenodd" d="M94.6757 18.0479C94.186 17.8606 93.6637 17.7695 93.1017 17.7695C91.9302 17.7695 91.1786 18.1101 90.8483 18.7829C90.3409 18.1101 89.6421 17.7695 88.7493 17.7695C88.1764 17.7695 87.6284 17.8583 87.1026 18.0331C86.3935 18.2847 86.0391 18.6386 86.0391 19.0909V23.7592C86.0391 24.3085 86.5436 24.6728 87.5512 24.8467C88.0219 24.9319 88.7338 24.974 89.6877 24.974V26.7952C89.6877 27.1201 89.801 27.377 90.0268 27.5702C90.2563 27.7553 90.5299 27.853 90.8541 27.853C91.1786 27.853 91.4559 27.7553 91.6802 27.5702C91.9103 27.377 92.0244 27.1201 92.0244 26.7952V24.974C94.4631 24.974 95.684 24.5602 95.684 23.7318V19.1058C95.684 18.6423 95.3472 18.29 94.6757 18.0479ZM90.4902 22.8154C90.4902 23.141 90.3937 23.4275 90.2018 23.6793C90.0099 23.9302 89.751 24.0568 89.4303 24.0568C89.1118 24.0568 88.8537 23.9302 88.664 23.6793C88.4698 23.4275 88.375 23.141 88.375 22.8154V20.0259C88.375 19.698 88.4698 19.41 88.664 19.1598C88.8537 18.9074 89.1118 18.7829 89.4303 18.7829C89.751 18.7829 90.0099 18.9074 90.2018 19.1532C90.3937 19.4011 90.4902 19.6876 90.4902 20.0259V22.8154ZM93.3504 22.8154C93.3504 23.141 93.2496 23.4275 93.0584 23.6793C92.8664 23.9302 92.6134 24.0568 92.2979 24.0568C91.9758 24.0568 91.7148 23.9271 91.5124 23.6644C91.3271 23.4335 91.2359 23.1499 91.2359 22.8154V20.0259C91.2359 19.6876 91.3322 19.4011 91.5257 19.1532C91.7169 18.9074 91.9758 18.7829 92.2979 18.7829C92.6134 18.7829 92.8664 18.9074 93.0584 19.1598C93.2496 19.41 93.3504 19.698 93.3504 20.0259V22.8154Z" fill="white"/>
<path fill-rule="evenodd" clip-rule="evenodd" d="M82.6044 18.4091C82.1079 18.0012 81.4982 17.7969 80.7782 17.7969C80.2281 17.7969 79.6934 17.8998 79.1793 18.1048C78.496 18.3736 78.1562 18.7399 78.1562 19.2013V26.53C78.1562 27.032 78.4879 27.4073 79.1484 27.6552C79.6361 27.8448 80.181 27.9373 80.7782 27.9373C81.5556 27.9373 82.1719 27.75 82.6331 27.3777C83.1368 26.9728 83.3928 26.3879 83.3928 25.6254V20.1213C83.3928 19.4167 83.1317 18.8436 82.6044 18.4091ZM82.6464 25.6276C82.6464 25.9527 82.5433 26.2399 82.3433 26.4916C82.1411 26.7396 81.8822 26.8639 81.5616 26.8639C81.2526 26.8639 80.9937 26.7396 80.7907 26.4916C80.5921 26.2399 80.4915 25.9527 80.4915 25.6276V20.1317C80.4915 19.8068 80.5921 19.5202 80.7907 19.2723C80.9937 19.0205 81.2526 18.897 81.5616 18.897C81.8822 18.897 82.1411 19.0205 82.3433 19.2723C82.5433 19.5202 82.6464 19.8068 82.6464 20.1317V25.6276Z" fill="white"/>
<path fill-rule="evenodd" clip-rule="evenodd" d="M74.5058 18.0479C74.0013 17.8606 73.4717 17.7695 72.9186 17.7695C72.1993 17.7695 71.5956 17.9591 71.1072 18.3374C70.5828 18.7571 70.3203 19.319 70.3203 20.0259V26.7952C70.3203 27.1201 70.4335 27.377 70.6607 27.5665C70.8851 27.7553 71.1595 27.853 71.4815 27.853C71.8103 27.853 72.092 27.7553 72.317 27.5702C72.5428 27.377 72.6576 27.1201 72.6576 26.7952V24.974C73.2827 24.974 73.8535 24.9059 74.3684 24.7652C75.1347 24.5431 75.5164 24.1966 75.5164 23.7318V19.1058C75.5164 18.6512 75.1794 18.2996 74.5058 18.0479ZM73.1798 22.8154C73.1798 23.1292 73.0797 23.4165 72.879 23.6733C72.6775 23.9271 72.4251 24.0568 72.1237 24.0568C71.8014 24.0568 71.5411 23.9271 71.3425 23.6644C71.1595 23.4335 71.0653 23.1499 71.0653 22.8154V20.0259C71.0653 19.6876 71.1616 19.4011 71.355 19.1532C71.5471 18.9074 71.8014 18.7829 72.1237 18.7829C72.4435 18.7829 72.701 18.9074 72.89 19.1532C73.0834 19.4011 73.1798 19.6876 73.1798 20.0259V22.8154Z" fill="white"/>
<path fill-rule="evenodd" clip-rule="evenodd" d="M153.623 26.1536L150.531 18.0741C150.419 17.7876 150.295 17.6455 150.157 17.6455C150.016 17.6455 149.892 17.7876 149.784 18.0741L146.133 27.4521C146.133 27.7209 146.215 27.8533 146.38 27.8533C146.68 27.8533 146.862 27.7712 146.926 27.6053L147.502 26.0433C147.596 25.805 147.765 25.6836 148.027 25.6836H150.722C150.958 25.6836 151.158 25.8642 151.311 26.2247C151.46 26.5882 151.613 26.9436 151.761 27.2944C151.99 27.6653 152.309 27.8533 152.726 27.8533C153.399 27.8533 153.735 27.4951 153.735 26.78C153.735 26.5601 153.699 26.3491 153.623 26.1536ZM150.307 24.9862H148.43C148.18 24.9862 148.054 24.8973 148.054 24.7227C148.054 24.6021 148.224 24.1046 148.566 23.2317C148.789 22.7062 149.007 22.1783 149.216 21.6482C149.263 21.5218 149.323 21.4543 149.392 21.4543C149.457 21.4543 149.512 21.5218 149.56 21.6482C149.763 22.1783 149.969 22.7062 150.184 23.2317C150.516 24.1046 150.679 24.6021 150.679 24.7227C150.679 24.8973 150.556 24.9862 150.307 24.9862Z" fill="white"/>
<path fill-rule="evenodd" clip-rule="evenodd" d="M55.5769 2.8897C54.8862 1.45709 53.3703 -0.0159846 50.5866 0.000131043H5.69543C5.6588 0.0024723 4.29145 -0.00260097 2.87142 0.707814C1.44786 1.40391 -0.014812 2.93079 0.000113266 5.7325V54.2684C0.00313708 54.305 -0.00295015 55.6811 0.70377 57.1115C1.39254 58.5363 2.89596 60 5.65221 60H50.5866C50.6218 59.9977 51.9911 60.0039 53.41 59.2926C54.8344 58.5957 56.2962 57.0699 56.2808 54.2684V5.7325C56.2785 5.69566 56.2852 4.31873 55.5769 2.8897ZM0.87671 5.7325C0.891829 3.24156 2.05596 2.12271 3.26332 1.49591C3.86789 1.19296 4.48533 1.03519 4.94526 0.958983C5.40844 0.880239 5.69462 0.884929 5.69543 0.881651H50.5866C53.0586 0.896869 54.1723 2.06948 54.7948 3.28389C55.0966 3.89265 55.2519 4.51278 55.329 4.97849C55.4061 5.44311 55.4017 5.7325 55.4061 5.7325V9.47733H43.2906C43.2234 7.00543 42.33 5.04502 41.2316 5.04502C40.1366 5.04502 39.2427 7.00543 39.1777 9.47733H37.7566C37.691 7.00543 36.7965 5.04502 35.7004 5.04502C34.6049 5.04502 33.7098 7.00543 33.6437 9.47733H0.87671V5.7325ZM0.87671 9.9189H33.6415C33.6768 12.4551 34.5845 14.4887 35.7004 14.4887C36.8175 14.4887 37.7252 12.4551 37.7593 9.9189H39.1738C39.2091 12.4551 40.1168 14.4887 41.2316 14.4887C42.3487 14.4887 43.2581 12.4551 43.2933 9.9189H55.4061V22.6026H12.4868C12.4111 20.1504 11.5215 18.2143 10.4312 18.2143C9.34111 18.2143 8.45075 20.1504 8.3764 22.6026H0.87671V9.9189ZM55.4061 54.2684C55.3885 56.7572 54.2241 57.8772 53.019 58.5036C52.4141 58.8091 51.7961 58.9654 51.3368 59.0431C50.8741 59.1196 50.5866 59.1152 50.5866 59.1185H5.69543C3.22257 59.1041 2.11023 57.9309 1.48725 56.7162C1.18409 56.1069 1.02871 55.487 0.95215 55.0235C0.875624 54.5578 0.878881 54.2684 0.87671 54.2684V49.8309H8.37128C8.39772 52.3879 9.30901 54.4442 10.4321 54.4442C11.5549 54.4442 12.4674 52.3879 12.4919 49.8309H13.9049C13.93 52.3879 14.8424 54.4442 15.9653 54.4442C17.0889 54.4442 18 52.3879 18.0259 49.8309H55.4061V54.2684ZM55.4061 49.389H18.0203C17.9462 46.9368 17.0556 45.0008 15.9653 45.0008C14.8752 45.0008 13.9857 46.9368 13.9096 49.389H12.4877C12.412 46.9368 11.5224 45.0008 10.4321 45.0008C9.34208 45.0008 8.45168 46.9368 8.37733 49.389H0.87671V38.1H28.0511C28.0731 40.6619 28.9872 42.7249 30.1114 42.7249C31.2372 42.7249 32.1494 40.6619 32.172 38.1H33.6112C33.6349 40.6619 34.5482 42.7249 35.6729 42.7249C36.7982 42.7249 37.7109 40.6619 37.7324 38.1H39.1738C39.1947 40.6619 40.108 42.7249 41.2316 42.7249C42.3586 42.7249 43.2707 40.6619 43.2933 38.1H55.4061V49.389ZM43.2883 37.6592C43.2112 35.2131 42.3211 33.2815 41.2316 33.2815C40.1454 33.2815 39.2543 35.2131 39.1782 37.6592H37.7269C37.6503 35.2131 36.7607 33.2815 35.6729 33.2815C34.5856 33.2815 33.6955 35.2131 33.6173 37.6592H32.1676C32.0882 35.2131 31.1998 33.2815 30.1114 33.2815C29.0247 33.2815 28.1346 35.2131 28.0561 37.6592H0.87671V23.0445H8.37031C8.39679 25.6014 9.30804 27.6578 10.4312 27.6578C11.554 27.6578 12.4664 25.6014 12.4909 23.0445H55.4061V37.6592H43.2883Z" fill="white"/>
</svg>
