<svg width="123" height="54" viewBox="0 0 123 54" fill="none" xmlns="http://www.w3.org/2000/svg">
<path d="M52.7126 10.7686H0.855469V12.4253H52.7126V10.7686Z" fill="#949494"/>
<path d="M52.7126 21.5372H0.855469V23.1939H52.7126V21.5372Z" fill="#949494"/>
<path d="M0.855469 32.3058H52.7126V33.9625H0.855469V32.3058Z" fill="#949494"/>
<path d="M52.7126 43.0746H0.855469V44.7313H52.7126V43.0746Z" fill="#949494"/>
<path d="M31.2832 9.52622C31.2832 8.38249 32.2426 7.45532 33.4261 7.45532C34.6095 7.45532 35.5689 8.38249 35.5689 9.52622V13.668C35.5689 14.8117 34.6095 15.7389 33.4261 15.7389C32.2426 15.7389 31.2832 14.8117 31.2832 13.668V9.52622Z" fill="white"/>
<path d="M31.2832 31.0634C31.2832 29.9197 32.2426 28.9926 33.4261 28.9926C34.6095 28.9926 35.5689 29.9197 35.5689 31.0634V35.2052C35.5689 36.349 34.6095 37.2761 33.4261 37.2761C32.2426 37.2761 31.2832 36.349 31.2832 35.2052V31.0634Z" fill="white"/>
<path d="M27.429 28.9926C26.2455 28.9926 25.2861 29.9197 25.2861 31.0634V35.2052C25.2861 36.349 26.2455 37.2761 27.429 37.2761C28.6125 37.2761 29.5718 36.349 29.5718 35.2052V31.0634C29.5718 29.9197 28.6125 28.9926 27.429 28.9926Z" fill="white"/>
<path d="M8.1416 20.2948C8.1416 19.1511 9.10099 18.2239 10.2845 18.2239C11.4679 18.2239 12.4273 19.1511 12.4273 20.2948V24.4366C12.4273 25.5803 11.4679 26.5075 10.2845 26.5075C9.10099 26.5075 8.1416 25.5803 8.1416 24.4366V20.2948Z" fill="white"/>
<path d="M10.2845 39.7614C9.10099 39.7614 8.1416 40.6885 8.1416 41.8322V45.974C8.1416 47.1178 9.10099 48.0449 10.2845 48.0449C11.4679 48.0449 12.4273 47.1178 12.4273 45.974V41.8322C12.4273 40.6885 11.4679 39.7614 10.2845 39.7614Z" fill="white"/>
<path d="M14.1416 41.8322C14.1416 40.6885 15.101 39.7614 16.2845 39.7614C17.4679 39.7614 18.4273 40.6885 18.4273 41.8322V45.974C18.4273 47.1178 17.4679 48.0449 16.2845 48.0449C15.101 48.0449 14.1416 47.1178 14.1416 45.974V41.8322Z" fill="white"/>
<path d="M39.4261 7.45532C38.2426 7.45532 37.2832 8.38249 37.2832 9.52622V13.668C37.2832 14.8117 38.2426 15.7389 39.4261 15.7389C40.6095 15.7389 41.5689 14.8117 41.5689 13.668V9.52622C41.5689 8.38249 40.6095 7.45532 39.4261 7.45532Z" fill="white"/>
<path d="M37.2832 31.0634C37.2832 29.9197 38.2426 28.9926 39.4261 28.9926C40.6095 28.9926 41.5689 29.9197 41.5689 31.0634V35.2052C41.5689 36.349 40.6095 37.2761 39.4261 37.2761C38.2426 37.2761 37.2832 36.349 37.2832 35.2052V31.0634Z" fill="white"/>
<path fill-rule="evenodd" clip-rule="evenodd" d="M0 4.1625C0 1.86361 1.90868 0 4.26316 0H49.7368C52.0913 0 54 1.86362 54 4.1625V49.8375C54 52.1364 52.0913 54 49.7368 54H4.26316C1.90868 54 0 52.1364 0 49.8375V4.1625ZM4.26316 2.775H49.7368C50.5217 2.775 51.1579 3.3962 51.1579 4.1625V49.8375C51.1579 50.6038 50.5217 51.225 49.7368 51.225H4.26316C3.47833 51.225 2.84211 50.6038 2.84211 49.8375V4.1625C2.84211 3.3962 3.47833 2.775 4.26316 2.775Z" fill="white"/>
<path d="M70.3893 19.797V27.3027H66V6H74.3104C75.9101 6 77.3146 6.29262 78.5241 6.87786C79.7434 7.4631 80.6798 8.29707 81.3333 9.37976C81.9868 10.4527 82.3136 11.6768 82.3136 13.0521C82.3136 15.1395 81.5966 16.7879 80.1628 17.9974C78.7387 19.1972 76.7635 19.797 74.2372 19.797H70.3893ZM70.3893 16.2417H74.3104C75.4711 16.2417 76.3539 15.9686 76.9586 15.4224C77.5731 14.8761 77.8804 14.0958 77.8804 13.0814C77.8804 12.0377 77.5731 11.194 76.9586 10.5502C76.3441 9.90647 75.4955 9.57484 74.4128 9.55533H70.3893V16.2417Z" fill="white"/>
<path d="M86.5407 27.3027V6H94.0025C96.5874 6 98.5479 6.49745 99.8842 7.49236C101.221 8.47751 101.889 9.92598 101.889 11.8378C101.889 12.8814 101.62 13.8032 101.084 14.603C100.547 15.3931 99.8013 15.9735 98.8454 16.3441C99.9379 16.6172 100.796 17.1683 101.42 17.9974C102.054 18.8265 102.371 19.8409 102.371 21.0407C102.371 23.089 101.718 24.6399 100.411 25.6933C99.1039 26.7467 97.2409 27.2832 94.8219 27.3027H86.5407ZM90.93 18.0267V23.7767H94.6902C95.7241 23.7767 96.5288 23.5328 97.1043 23.0451C97.6896 22.5477 97.9822 21.8649 97.9822 20.9968C97.9822 19.046 96.9726 18.0559 94.9536 18.0267H90.93ZM90.93 14.9249H94.1781C96.3923 14.8859 97.4994 14.0032 97.4994 12.2767C97.4994 11.311 97.2165 10.6185 96.6508 10.1991C96.0948 9.76992 95.212 9.55533 94.0025 9.55533H90.93V14.9249Z" fill="white"/>
<path d="M123 6V20.0311C123 22.3623 122.268 24.2058 120.805 25.5616C119.352 26.9174 117.362 27.5953 114.836 27.5953C112.349 27.5953 110.373 26.9369 108.91 25.6202C107.447 24.3034 106.701 22.494 106.672 20.1921V6H111.061V20.0604C111.061 21.4552 111.393 22.4745 112.056 23.1183C112.729 23.7523 113.656 24.0693 114.836 24.0693C117.304 24.0693 118.557 22.772 118.596 20.1774V6H123Z" fill="white"/>
<path d="M76.9226 42.2628C76.7472 43.8069 76.1918 45.0001 75.2564 45.8424C74.3275 46.6779 73.0901 47.0957 71.5441 47.0957C69.8682 47.0957 68.5236 46.4774 67.5103 45.2408C66.5034 44.0041 66 42.3497 66 40.2775V38.8738C66 37.5168 66.2338 36.3236 66.7015 35.2942C67.1757 34.2648 67.8448 33.4761 68.7087 32.9279C69.5726 32.3731 70.573 32.0957 71.7097 32.0957C73.2168 32.0957 74.425 32.5302 75.3344 33.3992C76.2438 34.2615 76.7732 35.458 76.9226 36.9888H75.0421C74.8797 35.8256 74.5256 34.9834 73.98 34.462C73.4409 33.9406 72.6841 33.6799 71.7097 33.6799C70.5145 33.6799 69.5759 34.1345 68.8938 35.0436C68.2183 35.9527 67.8805 37.2461 67.8805 38.9239V40.3377C67.8805 41.9219 68.2021 43.1819 68.8451 44.1178C69.4882 45.0536 70.3879 45.5215 71.5441 45.5215C72.5834 45.5215 73.3791 45.2809 73.9313 44.7996C74.4899 44.3116 74.8602 43.466 75.0421 42.2628H76.9226Z" fill="white"/>
<path d="M83.5774 47.0957C82.1484 47.0957 80.9856 46.6144 80.0892 45.6519C79.1928 44.6826 78.7446 43.3892 78.7446 41.7715V41.4306C78.7446 40.3544 78.9427 39.3952 79.339 38.5529C79.7417 37.704 80.3003 37.0422 81.0149 36.5676C81.7359 36.0863 82.5154 35.8457 83.3533 35.8457C84.7239 35.8457 85.7892 36.3103 86.5492 37.2394C87.3092 38.1686 87.6892 39.4988 87.6892 41.2301V42.0021H80.5472C80.5732 43.0716 80.8752 43.9373 81.4533 44.599C82.0379 45.2541 82.7785 45.5817 83.6749 45.5817C84.3115 45.5817 84.8506 45.448 85.2923 45.1806C85.734 44.9132 86.1205 44.5589 86.4518 44.1178L87.5528 45.0001C86.6694 46.3972 85.3443 47.0957 83.5774 47.0957ZM83.3533 37.3698C82.6258 37.3698 82.0152 37.6438 81.5215 38.192C81.0279 38.7334 80.7226 39.4954 80.6056 40.4781H85.8867V40.3377C85.8347 39.3952 85.5879 38.6666 85.1462 38.1519C84.7044 37.6305 84.1068 37.3698 83.3533 37.3698Z" fill="white"/>
<path d="M91.4892 36.0462L91.5477 37.4099C92.3532 36.3671 93.4055 35.8457 94.7046 35.8457C96.9327 35.8457 98.0564 37.1392 98.0759 39.7261V46.8952H96.2733V39.716C96.2668 38.9339 96.0915 38.3557 95.7472 37.9814C95.4094 37.6071 94.88 37.4199 94.159 37.4199C93.5744 37.4199 93.0612 37.5803 92.6195 37.9012C92.1778 38.222 91.8335 38.6432 91.5867 39.1646V46.8952H89.7841V36.0462H91.4892Z" fill="white"/>
<path d="M103.24 33.4192V36.0462H105.208V37.4801H103.24V44.208C103.24 44.6425 103.328 44.97 103.503 45.1906C103.678 45.4045 103.977 45.5115 104.399 45.5115C104.607 45.5115 104.893 45.4714 105.257 45.3912V46.8952C104.783 47.0289 104.322 47.0957 103.873 47.0957C103.068 47.0957 102.461 46.845 102.051 46.3437C101.642 45.8424 101.437 45.1305 101.437 44.208V37.4801H99.518V36.0462H101.437V33.4192H103.24Z" fill="white"/>
<path d="M111.697 47.0957C110.268 47.0957 109.106 46.6144 108.209 45.6519C107.313 44.6826 106.865 43.3892 106.865 41.7715V41.4306C106.865 40.3544 107.063 39.3952 107.459 38.5529C107.862 37.704 108.42 37.0422 109.135 36.5676C109.856 36.0863 110.635 35.8457 111.473 35.8457C112.844 35.8457 113.909 36.3103 114.669 37.2394C115.429 38.1686 115.809 39.4988 115.809 41.2301V42.0021H108.667C108.693 43.0716 108.995 43.9373 109.573 44.599C110.158 45.2541 110.898 45.5817 111.795 45.5817C112.431 45.5817 112.971 45.448 113.412 45.1806C113.854 44.9132 114.241 44.5589 114.572 44.1178L115.673 45.0001C114.789 46.3972 113.464 47.0957 111.697 47.0957ZM111.473 37.3698C110.746 37.3698 110.135 37.6438 109.642 38.192C109.148 38.7334 108.843 39.4954 108.726 40.4781H114.007V40.3377C113.955 39.3952 113.708 38.6666 113.266 38.1519C112.824 37.6305 112.227 37.3698 111.473 37.3698Z" fill="white"/>
<path d="M123 37.7107C122.727 37.6639 122.432 37.6405 122.113 37.6405C120.931 37.6405 120.129 38.1585 119.707 39.1946V46.8952H117.904V36.0462H119.658L119.687 37.2996C120.278 36.3303 121.116 35.8457 122.201 35.8457C122.552 35.8457 122.818 35.8925 123 35.9861V37.7107Z" fill="white"/>
</svg>
