<svg width="520" height="51" fill="none" xmlns="http://www.w3.org/2000/svg"><path opacity=".5" d="M375.021 26.153H0V23.82h375.048C375.464 10.87 380.181.641 385.94.641c5.769 0 10.478 10.227 10.898 23.178h7.683c.415-12.95 5.132-23.178 10.895-23.178 5.765 0 10.48 10.227 10.886 23.178h7.692C434.397 10.87 439.12.641 444.877.641c5.774 0 10.491 10.227 10.9 23.178H520v2.334h-64.196c-.12 13.565-4.955 24.488-10.927 24.488-5.956 0-10.796-10.923-10.906-24.488h-7.64c-.114 13.565-4.951 24.488-10.915 24.488-5.961 0-10.801-10.923-10.927-24.488h-7.627c-.12 13.565-4.955 24.488-10.922 24.488-5.958 0-10.802-10.923-10.919-24.488z" fill="#fff"/></svg>