<svg width="12" height="11" fill="none" xmlns="http://www.w3.org/2000/svg"><path d="M1.622.949c.127-.064.266-.101.408-.11V.838a3.87 3.87 0 01.444-.005l.178.018c.175.02.367.126.432.274A91.6 91.6 0 014.04 3.37c.068.166.027.38-.102.59a5.06 5.06 0 01-.29.41 11.14 11.14 0 01-.391.45s-.11.13-.067.292c.027.08.065.156.112.226l.065.104c.312.512.689.98 1.122 1.395l.106.104c.096.094.192.188.293.277a6.611 6.611 0 001.727 1.1l.005.002.073.032.205.088c.068.029.138.053.21.072a.385.385 0 00.405-.143c.795-.963.869-1.026.874-1.026v.002a.53.53 0 01.416-.14.548.548 0 01.195.046c.584.266 1.54.683 1.54.683l.64.287c.108.052.206.174.21.291v.013c.004.075.01.192-.016.398-.035.285-.12.627-.206.806-.06.126-.14.238-.231.332a2.524 2.524 0 01-.363.317c-.09.068-.138.099-.138.099a5.343 5.343 0 01-.421.242c-.283.15-.596.238-.916.254l-.107.006c-.169.009-.337.018-.505.008l-.626-.095a10.393 10.393 0 01-4.224-2.25c-.207-.184-.402-.38-.599-.576a64.635 64.635 0 00-.114-.114C1.943 6.98 1.203 5.928.753 4.936A3.858 3.858 0 01.39 3.382a3.002 3.002 0 01.658-1.894c.068-.09.139-.183.25-.288.096-.1.205-.184.324-.251z" fill="#fff"/></svg>