<svg width="12" height="13" fill="none" xmlns="http://www.w3.org/2000/svg"><path d="M6.65 1.4c-.033-.006-.077-.009-.121-.012-.185-.013-.57-.043-.547-.453.01-.179.087-.476.493-.476.044 0 .088.003.132.007h.004c.031.002.062.004.086.004.01 0 .02 0 .03-.002l.03-.001c2.55.088 4.759 2.477 4.728 5.112a1.42 1.42 0 00.003.115v.002c.008.176.017.393-.118.54a.42.42 0 01-.324.126h-.013c-.435-.009-.442-.426-.445-.628v-.026c-.002-.047-.002-.091-.007-.128-.316-2.576-1.455-3.786-3.93-4.18zm3.654 7.382a7.8 7.8 0 00.157.126v.002c.398.313.894.704.623 1.495-.31.905-1.32 1.697-2.16 1.697H8.91a.172.172 0 01-.044-.007l-.104-.026-.009-.002c-.122-.029-.288-.067-.445-.137-1.786-.794-3.328-1.85-4.582-3.14C2.443 7.472 1.428 5.875.706 4.042.453 3.408.442 2.8.673 2.281c.24-.536.718-.943 1.383-1.174.248-.092.52-.09.768.002.58.22 1.956 2.156 1.989 2.8.03.566-.393.862-.62 1.02-.4.281-.473.624-.246 1.152.47 1.09 1.291 1.914 2.44 2.453a.917.917 0 00.39.1c.193 0 .351-.098.481-.3.294-.46.649-.693 1.056-.693.303 0 .623.127.979.384l.174.126.035.025c.266.192.542.391.8.606zM6.9 3.481c-.143.003-.443.011-.548.326-.049.147-.043.275.017.38.09.153.26.2.416.226.563.093.854.416.91 1.012.028.28.21.473.443.473.018 0 .035 0 .053-.002.28-.036.415-.248.403-.633.005-.403-.199-.858-.545-1.221-.348-.365-.767-.57-1.149-.561z" fill="#fff"/><path d="M6.991 1.99c1.678.208 3.032 1.713 3.019 3.354l-.002.001a.888.888 0 00-.002.144c.006.17.017.52-.355.578a.603.603 0 01-.106.009c-.4 0-.423-.384-.434-.568a1.14 1.14 0 00-.011-.134c-.248-1.543-.756-2.09-2.264-2.436a.926.926 0 00-.111-.02l-.018-.002-.008-.002c-.16-.024-.354-.053-.467-.21a.473.473 0 01-.066-.362c.024-.148.116-.397.46-.397.086.003.171.012.255.029l.11.016z" fill="#fff"/></svg>