<svg width="12" height="14" fill="none" xmlns="http://www.w3.org/2000/svg"><path fill-rule="evenodd" clip-rule="evenodd" d="M7.092 12.76c.46.256.987.399 1.545.399 1.803 0 3.264-1.505 3.265-3.359a3.43 3.43 0 00-.339-1.493c.085-.4.13-.817.13-1.242 0-3.2-2.521-5.794-5.632-5.794-.327 0-.65.028-.961.085A3.182 3.182 0 003.362.839C1.558.839.096 2.346.096 4.2a3.4 3.4 0 00.449 1.697A5.993 5.993 0 00.43 7.064c0 3.198 2.522 5.795 5.63 5.795a5.41 5.41 0 001.032-.099zm.424-6.382c.34.107.664.26.964.452.264.175.482.412.636.69.152.278.229.621.229 1.02.005.461-.133.913-.394 1.294-.26.378-.645.68-1.144.892-.495.21-1.086.318-1.76.318-.809 0-1.487-.146-2.016-.435a2.64 2.64 0 01-.929-.848c-.24-.352-.36-.707-.36-1.045a.742.742 0 01.234-.548.82.82 0 01.59-.224.722.722 0 01.494.177c.147.138.26.308.331.497.085.209.194.407.324.591.124.161.286.29.472.374.205.1.479.15.818.15.465 0 .847-.101 1.134-.303.28-.2.416-.434.416-.723a.724.724 0 00-.216-.55 1.519 1.519 0 00-.602-.341 11.007 11.007 0 00-1.032-.264A8.248 8.248 0 014.228 7.1a2.44 2.44 0 01-.967-.73c-.242-.312-.365-.702-.365-1.16-.005-.422.13-.834.383-1.172.252-.338.62-.602 1.093-.783.467-.178 1.023-.268 1.653-.268a4.32 4.32 0 011.315.179c.336.1.651.262.929.477.223.171.41.387.546.633.116.221.177.445.177.66a.8.8 0 01-.232.56.759.759 0 01-.578.248c-.209 0-.371-.054-.485-.157-.106-.094-.215-.243-.337-.458a1.892 1.892 0 00-.504-.644c-.189-.148-.505-.221-.94-.221-.404 0-.733.082-.976.246-.235.158-.35.34-.35.555a.527.527 0 00.113.338c.092.11.207.2.336.262.144.076.296.137.454.181.257.071.517.137.778.197.42.09.836.203 1.245.336z" fill="#fff"/></svg>