<svg width="520" height="51" viewBox="0 0 520 51" fill="none" xmlns="http://www.w3.org/2000/svg">
<path opacity="0.5" d="M375.021 26.1532H0V23.8192H375.048C375.464 10.8682 380.181 0.640747 385.94 0.640747C391.709 0.640747 396.418 10.8682 396.838 23.8192H404.521C404.936 10.8682 409.653 0.640747 415.416 0.640747C421.181 0.640747 425.896 10.8682 426.302 23.8192H433.994C434.397 10.8682 439.12 0.640747 444.877 0.640747C450.651 0.640747 455.368 10.8682 455.777 23.8192H520V26.1532H455.804C455.684 39.7177 450.849 50.6407 444.877 50.6407C438.921 50.6407 434.081 39.7177 433.971 26.1532H426.331C426.217 39.7177 421.38 50.6407 415.416 50.6407C409.455 50.6407 404.615 39.7177 404.489 26.1532H396.862C396.742 39.7177 391.907 50.6407 385.94 50.6407C379.982 50.6407 375.138 39.7177 375.021 26.1532Z" fill="white"/>
</svg>
