<svg width="12" height="10" viewBox="0 0 12 10" fill="none" xmlns="http://www.w3.org/2000/svg">
<path d="M11.2509 0.875H0.750937C0.376687 0.875 0.0796875 1.154 0.0234375 1.51325L6.00094 5.4515L11.9784 1.51325C11.9222 1.154 11.6252 0.875 11.2509 0.875Z" fill="#6A2823"/>
<path d="M0 7.619V2.396L4.0455 5.0615L0 7.619Z" fill="#6A2823"/>
<path d="M12.0005 7.619L7.95508 5.0615L12.0005 2.396V7.619Z" fill="#6A2823"/>
<path d="M6.20569 6.21342L7.26694 5.51442L11.9754 8.49192C11.9177 8.84817 11.6222 9.12492 11.2494 9.12492H0.749438C0.376687 9.12492 0.0811875 8.84817 0.0234375 8.49192L4.73194 5.51367L5.79319 6.21342C5.85619 6.25467 5.92744 6.27492 5.99944 6.27492C6.07144 6.27492 6.14269 6.25467 6.20569 6.21342Z" fill="#6A2823"/>
</svg>
