<svg width="12" height="12" viewBox="0 0 12 12" fill="none" xmlns="http://www.w3.org/2000/svg">
<path d="M10.8848 0.380443L11.6198 1.11542C11.8651 1.36079 12.0003 1.68725 12.0003 2.03446C12.0003 2.38168 11.8651 2.70814 11.6198 2.95342L10.7195 3.85372L8.14648 1.28074L9.04679 0.380443C9.53744 -0.1103 10.3936 -0.110776 10.8848 0.380443Z" fill="#6A2823"/>
<path d="M0.808079 8.61867L7.41065 2.01562L9.98372 4.5887L3.38058 11.1913C3.34736 11.2245 3.30577 11.2484 3.25999 11.2598L0.32257 11.9917C0.301821 11.997 0.280501 11.9995 0.259657 11.9995C0.191604 11.9995 0.125074 11.9725 0.0762469 11.9237C0.0117155 11.8591 -0.0142684 11.7651 0.00762279 11.6767L0.739454 8.73926C0.750876 8.69405 0.774861 8.65198 0.808079 8.61867Z" fill="#6A2823"/>
</svg>
