<svg width="12" height="12" viewBox="0 0 12 12" fill="none" xmlns="http://www.w3.org/2000/svg">
<path d="M2.83594 3.16406C2.83594 1.4194 4.25534 0 6 0C7.74466 0 9.16406 1.4194 9.16406 3.16406C9.16406 4.90873 7.74466 6.32812 6 6.32812C4.25534 6.32812 2.83594 4.90873 2.83594 3.16406Z" fill="#6A2823"/>
<path d="M6.70312 7.03125C7.92209 7.03125 9.07045 7.51563 9.9367 8.3952C10.7987 9.27045 11.2734 10.4258 11.2734 11.6484C11.2734 11.8426 11.116 12 10.9219 12H1.07812C0.883969 12 0.726562 11.8426 0.726562 11.6484C0.726562 10.4258 1.20129 9.27045 2.0633 8.3952C2.92955 7.51563 4.07794 7.03125 5.29688 7.03125H6.70312Z" fill="#6A2823"/>
</svg>
