<svg width="20" height="19" viewBox="0 0 20 19" fill="none" xmlns="http://www.w3.org/2000/svg">
<path d="M19.5 9.5C19.5 4.25273 15.2473 0 10 0C4.75273 0 0.5 4.25273 0.5 9.5C0.5 14.7473 4.75273 19 10 19C10.0557 19 10.1113 19 10.167 18.9963V11.6041H8.12598V9.22539H10.167V7.47383C10.167 5.44394 11.4064 4.33809 13.2174 4.33809C14.0857 4.33809 14.8316 4.40117 15.0469 4.43086V6.55352H13.8C12.8166 6.55352 12.6236 7.02109 12.6236 7.70762V9.22168H14.9801L14.6721 11.6004H12.6236V18.6326C16.5943 17.4934 19.5 13.8381 19.5 9.5Z" fill="#6A2823"/>
</svg>
