<svg width="20" height="19" viewBox="0 0 20 19" fill="none" xmlns="http://www.w3.org/2000/svg">
<path fill-rule="evenodd" clip-rule="evenodd" d="M19.5 9.5C19.5 14.7467 15.2467 19 10 19C4.75329 19 0.5 14.7467 0.5 9.5C0.5 4.25329 4.75329 0 10 0C15.2467 0 19.5 4.25329 19.5 9.5ZM10.3859 13.6666H9.64027C9.64027 13.6666 7.99507 13.7657 6.54631 12.2573C4.9663 10.6121 3.57089 7.34748 3.57089 7.34748C3.57089 7.34748 3.49045 7.13343 3.57783 7.02996C3.67605 6.91361 3.94362 6.90616 3.94362 6.90616L5.72599 6.89448C5.72599 6.89448 5.89398 6.92259 6.01422 7.01082C6.11329 7.08364 6.16883 7.21979 6.16883 7.21979C6.16883 7.21979 6.45689 7.94832 6.83843 8.60742C7.58305 9.89411 7.92987 10.1756 8.1827 10.0377C8.55103 9.8367 8.44062 8.21877 8.44062 8.21877C8.44062 8.21877 8.44739 7.63147 8.25518 7.37C8.10633 7.1673 7.82555 7.10819 7.70159 7.0916C7.60134 7.07822 7.76594 6.84537 7.97932 6.74088C8.30006 6.58373 8.86652 6.57475 9.53578 6.5817C10.0572 6.58695 10.2072 6.61946 10.4111 6.66874C10.8842 6.78296 10.8694 7.14895 10.8376 7.93862C10.8281 8.17458 10.8171 8.44837 10.8171 8.76457C10.8171 8.83572 10.815 8.91155 10.8129 8.98956C10.8018 9.39399 10.7891 9.85702 11.0553 10.0291C11.1918 10.1171 11.5258 10.0423 12.361 8.62401C12.7569 7.95188 13.0538 7.16154 13.0538 7.16154C13.0538 7.16154 13.1186 7.02064 13.2194 6.96018C13.3225 6.89854 13.4616 6.91751 13.4616 6.91751L15.3373 6.90582C15.3373 6.90582 15.9008 6.83859 15.9921 7.09295C16.0878 7.36001 15.7815 7.98355 15.0152 9.00487C14.2874 9.97481 13.9338 10.3313 13.9671 10.6471C13.9913 10.8773 14.2212 11.0858 14.6616 11.4946C15.5848 12.3516 15.8309 12.8016 15.8894 12.9085C15.8941 12.9172 15.8976 12.9236 15.9002 12.9278C16.3134 13.613 15.4419 13.6666 15.4419 13.6666L13.776 13.6898C13.776 13.6898 13.418 13.7608 12.9469 13.4372C12.7005 13.2681 12.4597 12.9919 12.2302 12.7288C11.8793 12.3266 11.5551 11.9549 11.2784 12.0426C10.814 12.1899 10.8286 13.1904 10.8286 13.1904C10.8286 13.1904 10.832 13.4042 10.7261 13.518C10.6111 13.6419 10.3859 13.6666 10.3859 13.6666Z" fill="#6A2823"/>
</svg>
