<svg width="88" height="100" fill="none" xmlns="http://www.w3.org/2000/svg"><path d="M87.333 10h-6.666V4.668C80.666 2.1 78.736 0 76.382 0h-21.44c-2.346 0-4.276 2.1-4.276 4.668V10H10.568L.667 30h6.875v13.333H6.428L.875 50l5.553 6.667h1.217v3.58c0 .905.698 1.636 1.563 1.636 2.585 0 4.688 2.207 4.688 4.919 0 2.711-2.103 4.918-4.688 4.918-2.585 0-4.688-2.207-4.688-4.918 0-.905-.7-1.637-1.563-1.637-.865 0-1.564.732-1.564 1.637C1.397 71.325 4.9 75 9.208 75c4.307 0 7.813-3.675 7.813-8.197 0-3.958-2.688-7.271-6.25-8.03v-2.106h1.215L17.541 50l-5.555-6.667h-1.111V30h39.791v11.998c0 2.214 1.436 4.069 3.334 4.545V100h4.375V90l14.583 5-14.583 5h18.958V46.542c1.9-.475 3.334-2.33 3.334-4.544V30h6.666v-5H83.87l3.463-6.575V10zM8.405 25l3.893-7.998L16.508 25H8.405zm7.37-10h6.921l-3.46 6.575L15.775 15zm6.19 10l3.462-6.575L28.89 25h-6.925zm6.192-10h6.921l-3.462 6.575L28.156 15zm6.191 10l3.46-6.575L41.268 25h-6.92zm6.19-10h6.922L44 21.575 40.538 15zm10.129 10h-3.939l3.46-6.575.478.908V25zm22.291 65l-14.583-5 14.583-5v10zM58.375 80V70l14.583 5.003L58.375 80zm14.583-10l-14.583-5 14.583-5v10zM58.375 60v-9.997L72.958 55l-14.583 5zm14.583-9.997l-9.725-3.336h9.725v3.336zm2.5-27.923c0 1.605-1.126 2.92-2.5 2.92H57.955c-1.373 0-2.497-1.315-2.497-2.92V7.93c0-1.615 1.123-2.93 2.497-2.93h15.003c1.374 0 2.5 1.315 2.5 2.93v14.15zm5.683-.505l-.475-.903V15h3.936l-3.46 6.575z" fill="#6A2823"/></svg>