<svg width="100" height="100" fill="none" xmlns="http://www.w3.org/2000/svg"><g clip-path="url(#clip0_694_2073)"><path fill-rule="evenodd" clip-rule="evenodd" d="M60.363 11.785h40.715v75H89.454l-2.058-1.921c.437-1.174.763-2.382.974-3.61l5.198-1.398-.072-4.178-5.117-1.185a20.172 20.172 0 00-.961-3.605l3.81-3.814-2.153-3.585-5.035 1.537a20.085 20.085 0 00-2.627-2.63l1.398-5.225-3.657-2.029-3.606 3.862a20.097 20.097 0 00-3.57-.96l-1.41-5.241-4.179.075-1.195 5.16a20.086 20.086 0 00-3.56.95l-3.848-3.846-3.586 2.154 1.55 5.077a20.08 20.08 0 00-2.605 2.595l-5.263-1.408-2.028 3.657 3.882 3.625a20.09 20.09 0 00-.96 3.546l-5.262 1.415.075 4.182 5.165 1.197c.204 1.212.52 2.404.941 3.558l-2.041 2.045H11.078v-60h41.785l7.5-15zm-7.484 75h-5.225l-1.8 1.804 2.153 3.582 5.059-1.542a20.09 20.09 0 002.607 2.626l-1.402 5.237 3.658 2.025 3.597-3.852a20.09 20.09 0 003.585.974l1.403 5.218 4.183-.072 1.185-5.121a20.086 20.086 0 003.605-.954l3.813 3.807 3.582-2.153-1.529-5.017a20.094 20.094 0 002.652-2.638l5.199 1.39 2.025-3.657-1.775-1.657h-5.24a18.046 18.046 0 10-31.335 0zm3.298 0H52.88a18.05 18.05 0 0015.98 9.09 18.046 18.046 0 0015.355-9.09h-3.306a15.267 15.267 0 10-24.73 0zm1.698 0h-1.698a15.268 15.268 0 0024.73 0h-1.69a13.929 13.929 0 10-21.342 0zm0 0h21.343a13.932 13.932 0 01-15.778 4.007 13.928 13.928 0 01-5.565-4.007zm6.417-60h29.286v-7.5H68.22l-3.928 7.5zm-21.546 7.877l-2.275-6.805h-4.55l-2.217 6.645a13.47 13.47 0 00-1.284.506l-6.413-3.205-3.218 3.218 3.13 6.263c-.206.413-.39.836-.552 1.268l-6.8 2.269v4.553l6.642 2.213a13.557 13.557 0 00.508 1.29l-3.203 6.408 3.218 3.218 6.26-3.129c.415.206.839.39 1.272.553l2.268 6.797h4.554l2.213-6.642a13.48 13.48 0 001.287-.507l6.41 3.206 3.218-3.22-3.13-6.265c.203-.41.387-.831.548-1.262l6.804-2.274v-4.55l-6.647-2.218a13.47 13.47 0 00-.505-1.282l3.209-6.414-3.221-3.218-6.267 3.131a13.504 13.504 0 00-1.26-.547zm-4.825 7.944a4.7 4.7 0 11-4.614 4.783 4.7 4.7 0 014.614-4.775v-.008zM68.418 70.8a7.046 7.046 0 11.248 14.09 7.046 7.046 0 01-.248-14.09zM38.213 59.782a12.5 12.5 0 10-.396-24.997 12.5 12.5 0 00.396 24.997zm-.404-23.061a10.572 10.572 0 11-4.022.874 10.574 10.574 0 014.033-.874h-.01zm.364 20.286a9.718 9.718 0 10-.331-19.434 9.718 9.718 0 00.331 19.434zm-.267-15.268a5.554 5.554 0 11.19 11.105 5.554 5.554 0 01-.19-11.105zm30.507 28.496a7.6 7.6 0 11.27 15.197 7.6 7.6 0 01-.27-15.197z" fill="#6A2823"/></g><defs><clipPath id="clip0_694_2073"><path fill="#fff" d="M0 0h100v100H0z"/></clipPath></defs></svg>