<svg width="88" height="88" fill="none" xmlns="http://www.w3.org/2000/svg"><path d="M81.87.72H6.129C3.424.72.719 3.424.719 6.13v60.863c0 2.706 2.705 5.41 5.41 5.41h27.05v5.41c0 3.757-4.873 5.41-10.82 5.41v4.057h43.28v-4.058c-5.948 0-10.82-1.653-10.82-5.41v-5.41h27.05c2.706 0 5.41-2.705 5.41-5.41V6.13c0-2.705-2.704-5.41-5.41-5.41zm2.524 66.273c0 1.11-1.416 2.525-2.524 2.525H6.129c-1.11 0-2.525-1.415-2.525-2.525v-5.41h80.79v5.41z" fill="#6A2823"/><path d="M44 68.347a1.353 1.353 0 100-2.707 1.353 1.353 0 000 2.707z" fill="#6A2823"/></svg>