<svg width="92" height="92" fill="none" xmlns="http://www.w3.org/2000/svg"><path d="M90.124 85.95h-2.847l-.57-11.759-.57-11.756-.57-11.757L85 38.922l-.57-11.758h-.263a4.254 4.254 0 001.07-2.8 4.29 4.29 0 00-1.478-3.23c.035-.246.053-.492.053-.735 0-3.225-2.757-5.894-6.01-5.712a7.372 7.372 0 00-.714-1.225c.021-.19.032-.38.032-.575 0-4.542-3.746-8.235-8.35-8.235-.333 0-.667.023-.998.07a8.718 8.718 0 00-7.54-4.27 8.751 8.751 0 00-5.54 1.986A9.834 9.834 0 0048.725.452a9.938 9.938 0 00-5.444 1.625C40.283-.09 35.84-.017 32.888 2.323 29.53.139 25.013-.134 21.395 1.679A14.56 14.56 0 0015.519.452C7.481.452.942 6.892.942 14.81s6.54 14.36 14.577 14.36c4.787 0 9.185-2.273 11.921-6.12a11.434 11.434 0 009.204-5.85 8.306 8.306 0 004.8-.477 9.933 9.933 0 007.283 3.175 9.88 9.88 0 007.345-3.244 8.48 8.48 0 005.838.89 8.3 8.3 0 001.65 1.773c.756 3.375 3.802 5.845 7.35 5.845a7.519 7.519 0 003.097-.662 5.719 5.719 0 002.832 1.495c.174.431.42.823.718 1.17h-1.666l-.569 11.757-.57 11.756-.57 11.757-.568 11.756-.57 11.76V57.955h-17.08L38.884 43.96v13.997L21.804 43.96v13.997L4.722 43.96v41.99H1.874a1.418 1.418 0 00-1.424 1.4v2.798c0 .77.64 1.4 1.424 1.4h88.25a1.416 1.416 0 001.422-1.4V87.35a1.416 1.416 0 00-1.422-1.4zM75.673 21.76l-.84-1.373-1.322.918a4.55 4.55 0 01-2.604.819c-2.256 0-4.172-1.664-4.456-3.869l-.09-.686-.575-.383a5.289 5.289 0 01-1.8-2.084l-.59-1.212-1.274.444c-2.087.725-3.915.297-5.455-.911L55.372 12.4l-.91 1.381a6.838 6.838 0 01-5.737 3.078 6.875 6.875 0 01-5.627-2.91L42.29 12.8l-1.21.72c-1.444.859-3.005 1.073-4.743.449l-1.371-.492-.548 1.348c-1.285 3.158-4.35 5.206-7.812 5.218l-.835.003-.444.706c-2.126 3.368-5.793 5.38-9.807 5.38-6.363 0-11.54-5.08-11.54-11.324 0-6.24 5.175-11.318 11.54-11.318 1.834 0 3.598.42 5.243 1.248l.742.373.715-.424c3.05-1.808 7.118-1.472 9.811.769l1.115.926.977-1.069a5.51 5.51 0 014.106-1.823 5.557 5.557 0 013.932 1.607l.998.986 1.06-.917a6.893 6.893 0 014.507-1.676 6.83 6.83 0 014.93 2.07l1.154 1.182 1.08-1.25a5.747 5.747 0 014.343-2.002c2.346 0 4.426 1.386 5.3 3.53l.509 1.25 1.301-.36c.547-.153 1-.222 1.429-.222 2.93 0 5.312 2.332 5.312 5.198 0 .25-.04.488-.086.777l-.105.69.454.53c.484.563.808 1.188.962 1.858l.365 1.579 1.55-.466a2.73 2.73 0 01.799-.137c1.516 0 2.752 1.203 2.752 2.681 0 .281-.056.573-.173.896l-.486 1.335 1.3.572a1.288 1.288 0 01.783 1.165c0 .707-.596 1.281-1.328 1.281a1.292 1.292 0 01-1.31-1.177l-.116-1.392-1.504.002a2.737 2.737 0 01-2.267-1.32zm1.466 26.64l.35-7.2h5.34l.347 7.2H77.14zm-1.137 23.514l.348-7.201h7.617l.35 7.2h-8.315zm-6.185 18.462H59.189v-1.245h10.628v1.245zm.19-18.423v10.962h-.476V71.953h.476zM60.99 85.191v-12.48h7.022v12.48H60.99zm-.38 3.18v-1.662h7.782v1.661h-7.781zM22.513 72.652H38.17v4.901H22.512v-4.9zm-1.422 4.9H7.758v-4.901H21.09v4.9zm18.503-4.9h14.945v4.901H39.593v-4.9zm0-1.4v-4.899h14.945v4.9H39.593zm-1.423 0H22.512v-4.899H38.17v4.9zm-17.08 0H7.758v-4.899H21.09v4.9z" fill="#6A2823"/></svg>