<svg width="100" height="76" fill="none" xmlns="http://www.w3.org/2000/svg"><path d="M61.65 69.696v-.287H43.585v.287l.003.142a5.995 5.995 0 11-11.99 0l.003-.149v-.28h-2.06a3.848 3.848 0 01-3.76-3.028l-.002-.025L13.74 9.357 3.456 7.645A3.85 3.85 0 014.73.053L4.711.05l12.87 2.145a3.853 3.853 0 013.126 2.974l.003.025 2.183 10.294 37.546 3.129a20.534 20.534 0 00-.353 3.74v.013c0 1.268.11 2.51.325 3.718l-.02-.126a4.406 4.406 0 00-2.999 5.05l-.003-.03 2.268 16.369a4.58 4.58 0 001.318 2.665 3.554 3.554 0 002.479 1.04h.003c.215 0 .426-.021.628-.06l-.022.004a4.38 4.38 0 003.194-5.062l.004.029-1.237-8.9a20.993 20.993 0 0015.164 6.446c.135 0 .271 0 .403-.02l.294-.015-2.11 12.306a1.283 1.283 0 01-1.262 1.07h-46.88l1.03 4.878h44.649a3.851 3.851 0 01.006 7.696h-3.677v.287a5.995 5.995 0 01-11.991 0v-.02zm4.283 0a1.7 1.7 0 103.374-.297v.01h-3.343c-.017.094-.025.19-.025.287h-.006zm-30.05 0a1.7 1.7 0 103.375-.297v.01h-3.346a1.562 1.562 0 00-.022.28v.007h-.007zm12.196-43.76A4.378 4.378 0 0044.884 31l-.003-.029 2.268 16.368a4.579 4.579 0 001.318 2.665 3.554 3.554 0 002.479 1.041c.214 0 .429-.022.63-.06l-.021.003a4.38 4.38 0 003.194-5.062l.004.029-2.268-16.368a4.58 4.58 0 00-1.318-2.665 3.57 3.57 0 00-2.48-1.044h-.002c-.218 0-.43.022-.634.063l.022-.003h.006zm-12.508 0a4.375 4.375 0 00-3.198 5.075l-.003-.028 2.268 16.368a4.579 4.579 0 001.318 2.665 3.553 3.553 0 002.479 1.04h.003c.214 0 .426-.021.628-.06l-.023.004a4.377 4.377 0 003.199-5.062l.003.029-2.271-16.378a4.58 4.58 0 00-1.318-2.665 3.558 3.558 0 00-2.48-1.044h-.002a3.37 3.37 0 00-.625.06l.022-.003z" fill="#6A2823"/><path fill-rule="evenodd" clip-rule="evenodd" d="M90.829 19.655h-7.437v-7.06h-3.47v7.06h-7.42v3.311h7.42v7.526h3.47v-7.526h7.437v-3.311z" fill="#6A2823"/><path fill-rule="evenodd" clip-rule="evenodd" d="M81.666 36.544c8.285 0 15-6.716 15-15 0-8.284-6.715-15-15-15-8.284 0-15 6.716-15 15 0 8.284 6.716 15 15 15zm0 3.333C91.792 39.877 100 31.67 100 21.544c0-10.125-8.208-18.333-18.334-18.333-10.125 0-18.333 8.208-18.333 18.333 0 10.125 8.208 18.333 18.333 18.333z" fill="#6A2823"/></svg>