<svg width="98" height="92" fill="none" xmlns="http://www.w3.org/2000/svg"><path fill-rule="evenodd" clip-rule="evenodd" d="M55.61 65.037c.007.54.135 1.072.374 1.556h.005v11.4h-33.5c-11.5 0-11.79-7.304-11.79-7.304L8.192 33.432H4.644c-2.238 0-4.046-6.807-4.046-6.807 0-2.065 1.814-3.75 4.046-3.75H15.19l5.987-20.327a3.436 3.436 0 014.698-1.546l.39.2a3.671 3.671 0 011.569 4.827l-4.286 16.846h37.129L56.542 6.007a3.672 3.672 0 011.607-4.815L58.55.99a3.426 3.426 0 014.675 1.596l5.776 20.294H79.76c2.237 0 4.045 1.685 4.045 3.75 0 0-1.813 6.807-4.045 6.807h-4.275L74.57 50.21h-7.214v4.726a21.14 21.14 0 00-5.033 4.5v-17.59c0-1.886-1.635-3.214-3.315-3.214h-.117c-1.685 0-3.281 1.328-3.281 3.214v23.19zm17.694-37.045h-5.926v5.926h5.926v-5.926zM11.26 33.745h6.596v-6.278H11.26v6.278zm14.145 35.398c1.719 0 3.12-1.579 3.12-3.532V41.456c0-1.953-1.401-3.527-3.12-3.527h-.128c-1.735 0-3.13 1.574-3.13 3.527v24.155c0 1.953 1.395 3.532 3.13 3.532h.128zm16.98-1.244c1.584 0 2.868-1.512 2.868-3.376V41.651c0-1.858-1.29-3.37-2.868-3.37h-.117c-1.59 0-2.868 1.507-2.868 3.37v22.872c0 1.864 1.283 3.376 2.868 3.376h.117z" fill="#6A2823"/><path fill-rule="evenodd" clip-rule="evenodd" d="M79.065 88.062c8.284 0 15-6.716 15-15 0-8.285-6.716-15-15-15-8.284 0-15 6.715-15 15 0 8.284 6.716 15 15 15zm0 3.333c10.125 0 18.333-8.208 18.333-18.333 0-10.126-8.208-18.334-18.333-18.334-10.125 0-18.334 8.208-18.334 18.334 0 10.125 8.209 18.333 18.334 18.333z" fill="#6A2823"/><path fill-rule="evenodd" clip-rule="evenodd" d="M88.224 71.173h-7.437v-7.06h-3.47v7.06h-7.419v3.31h7.419v7.527h3.47v-7.526h7.437v-3.311z" fill="#6A2823"/></svg>