<svg width="92" height="68" fill="none" xmlns="http://www.w3.org/2000/svg"><path d="M88.19 46.914V9.607c0-4.736-3.797-8.61-8.438-8.61H40.374c-4.641 0-8.438 3.876-8.438 8.61H21.248c-3.612 0-6.469 0-8.52 2.433-1.931 2.29-2.31 6.102-2.31 11.917 0 3.157-1.355 4.614-3.234 6.632-2.13 2.286-4.782 5.136-4.782 10.587v6.142a2.87 2.87 0 00-1.405 2.465v2.87c0 1.577 1.267 2.869 2.812 2.869h2.925a10.28 10.28 0 00-.112 1.435c0 5.548 4.409 10.045 9.845 10.045 5.433 0 9.845-4.497 9.845-10.043 0-.49-.045-.966-.11-1.436h11.361v1.436c0 1.576 1.267 2.868 2.813 2.868h11.25c1.547 0 2.813-1.291 2.813-2.868v-1.436h9.958c-.071.476-.109.955-.113 1.436 0 5.546 4.409 10.043 9.845 10.043 5.434 0 9.846-4.497 9.846-10.043 0-.49-.045-.966-.111-1.436h4.33c1.547 0 2.813-1.291 2.813-2.87v-2.869c-.005-1.577-1.27-2.87-2.817-2.87zm-8.438-4.305H40.374c-2.327 0-4.22-1.932-4.22-4.305v-5.74h2.813v5.74a1.425 1.425 0 001.407 1.435h39.378a1.425 1.425 0 001.407-1.435v-5.74h2.813v5.74c0 2.373-1.894 4.305-4.22 4.305zM47.76 24.6v1.254h-3.118v2.485h3.487v1.269h-4.997v-8.46h4.812v1.27h-3.302v2.184h3.118V24.6zm-5.98-12.124a1.421 1.421 0 01-1.407-1.435c0-.794.63-1.436 1.407-1.436.779 0 1.407.642 1.407 1.436a1.424 1.424 0 01-1.407 1.435zm1.406 24.394a1.421 1.421 0 01-1.407 1.434c-.777 0-1.407-.642-1.407-1.434 0-.792.63-1.434 1.407-1.434.778 0 1.407.642 1.407 1.434zm11.177-8.557v1.295h-4.91v-8.46h1.51v7.165h3.4zm1.137 1.295v-8.46h1.514v8.46H55.5zm2.456-8.46h1.647l1.128 3.842c.32 1.064.591 2.057.81 3.086h.026a32.79 32.79 0 01.849-3.062l1.203-3.865h1.606l-2.859 8.459h-1.734l-2.676-8.46zM70.748 24.6v1.254h-3.12v2.485h3.486v1.269h-4.997v-8.46h4.816v1.27h-3.305v2.184h3.12V24.6zm6.191-13.558c0-.793.63-1.435 1.407-1.435.779 0 1.407.642 1.407 1.436a1.422 1.422 0 01-1.407 1.435 1.425 1.425 0 01-1.407-1.435zm2.813 25.828a1.421 1.421 0 01-1.407 1.434c-.777 0-1.407-.642-1.407-1.434 0-.792.63-1.434 1.407-1.434.778 0 1.407.642 1.407 1.434zm-2.474-15.105c.453.389.713.977.713 1.694 0 1.092-.722 1.834-1.498 2.12v.038c.592.225.946.816 1.154 1.63.258 1.054.477 2.032.653 2.36h-1.56c-.122-.251-.32-.94-.552-1.994-.233-1.104-.626-1.457-1.487-1.483h-.76v3.478h-1.5v-8.345a14.03 14.03 0 012.285-.177c1.189 0 1.999.202 2.552.68zm5.348 4.278v3.565h-1.51v-3.529l-2.612-4.932h1.716l.994 2.17c.282.628.495 1.106.716 1.684h.024c.207-.539.44-1.067.723-1.683l.993-2.17h1.709l-2.753 4.895zM36.156 9.607c0-2.375 1.893-4.305 4.22-4.305h39.376c2.326 0 4.22 1.93 4.22 4.305v8.609h-2.813v-8.61a1.423 1.423 0 00-1.407-1.435H40.374a1.425 1.425 0 00-1.407 1.436v8.609h-2.813v-8.61h.002zm-1.407 11.656a14.68 14.68 0 012.406-.177c1.545 0 2.615.327 3.377.978.798.666 1.288 1.67 1.288 3.114 0 1.505-.504 2.634-1.288 3.363-.822.765-2.136 1.155-3.745 1.155-.885 0-1.546-.05-2.038-.114v-8.32zM5.216 41.175c0-8.61 8.017-8.61 8.017-17.22 0-11.478 1.67-11.478 8.016-11.478h10.689v34.437H5.216v-5.74zm2.368 11.479H3.809v-2.87h5.776a10.03 10.03 0 00-2.001 2.87zm10.251 9.852c-.094-.699-.657-1.243-1.368-1.243-.708 0-1.273.544-1.368 1.243a5.561 5.561 0 01-2.664-1.558 1.44 1.44 0 00.38-1.838 1.38 1.38 0 00-1.733-.59 5.786 5.786 0 01-.239-1.563c0-.544.098-1.063.237-1.563a1.377 1.377 0 001.736-.59 1.44 1.44 0 00-.381-1.837 5.577 5.577 0 012.664-1.56c.095.7.657 1.244 1.368 1.244.71 0 1.274-.543 1.368-1.244a5.573 5.573 0 012.664 1.559 1.44 1.44 0 00-.38 1.837 1.377 1.377 0 001.735.59c.14.5.237 1.018.237 1.564 0 .545-.098 1.061-.237 1.562a1.376 1.376 0 00-1.734.591 1.44 1.44 0 00.38 1.838 5.599 5.599 0 01-2.665 1.558zm33.439-6.983H40.727c-.968 0-1.758-.645-1.758-1.435 0-.788.79-1.434 1.758-1.434h10.547c.967 0 1.758.646 1.758 1.434 0 .79-.792 1.435-1.758 1.435zm13.969-2.87H54.045a2.8 2.8 0 00-2.42-1.433h-11.25c-1.033 0-1.93.582-2.419 1.434H25.351a10.09 10.09 0 00-2.003-2.872h43.896c-.824.824-1.5 1.798-2.001 2.872zm10.251 9.853c-.094-.699-.657-1.243-1.368-1.243-.708 0-1.272.544-1.368 1.243a5.577 5.577 0 01-2.662-1.558 1.44 1.44 0 00.38-1.838 1.38 1.38 0 00-1.735-.59 5.709 5.709 0 01-.24-1.561c0-.545.099-1.064.239-1.563a1.375 1.375 0 001.734-.591 1.437 1.437 0 00-.38-1.836 5.592 5.592 0 012.663-1.56c.096.7.658 1.243 1.368 1.243.71 0 1.273-.543 1.368-1.243a5.573 5.573 0 012.664 1.558 1.443 1.443 0 00-.38 1.838 1.379 1.379 0 001.735.59c.14.5.237 1.018.237 1.564 0 .544-.096 1.06-.237 1.561a1.376 1.376 0 00-1.734.592 1.443 1.443 0 00.38 1.837 5.583 5.583 0 01-2.664 1.557zm12.696-9.852h-5.18a10.049 10.049 0 00-2.001-2.87h7.18v2.87z" fill="#6A2823"/></svg>