<svg width="100" height="100" fill="none" xmlns="http://www.w3.org/2000/svg"><g clip-path="url(#clip0_694_2128)"><path d="M42.54 12.185c-9.626-3.546-11.39 3.27-11.566 4.742h-.017v.193c-.008.117-.017.192-.017.192h.017c.945 3.939 1.64 5.745 10.73 5.219 8.899-.519 9.175-3.287 9.175-3.287s.87-3.672-8.322-7.059zm-6.18 2.275s1.238-1.765 3.17.636c-.009 0-1.757 1.723-3.17-.636zM19.975 87.64c-.912.426-3.12 1.388-6.473 2.5-5.888 1.948 1.321 1.94 1.321 1.94s2.124-.167 5.21-1.12l-.058-3.32zm9.527-55.023l-.134 7.719c3.922.326 7.2 1.455 8.12 4.182 2.476 7.334-10.479 8.087-20.983 11.575-10.94 3.63-9.743 17.303 3.262 19.779l-.109-6.214c-.134-.042-.268-.092-.393-.134-1.338-.527-2.576-1.472-2.936-2.4-.35-1.966 1.322-4.8 6.825-6.055 9.994-2.292 18.433-3.772 20.942-8.598 6.364-12.252-4.901-19.687-14.594-19.854z" fill="#6A2823"/><path d="M32.671 13.172C22.62 13.791 4.144 16.166.866 25.868c-4.19 12.42 7.878 16.15 13.79 15.405 1.297-.16 2.76-.26 4.475-.577l-.125-7.1c-9.392.367-12.52-2.485-8.99-6.399 4.473-4.96 15.421-6.155 22.363-6.398m-2.726 50.339c-.293-.025-.56-.05-.836-.075l-.1 5.528c3.018.677 1.931 2.342 0 4.8-.026.034-.06.067-.084.1l-.1 5.445a31.837 31.837 0 002.157-1.555c2.484-1.974 3.053-2.802 4.566-4.65 2.334-3.538 2.233-8.949-5.603-9.593z" fill="#6A2823"/><path d="M20.32 23.852l.652 28.996a574.01 574.01 0 006.59-1.765l.644-28.468c-1.924.184-4.993.552-7.887 1.238zm4.767 38.547s-2.576.518-3.872 1.045l.753 33.345c0 1.781 1.028 3.211 2.283 3.211 1.254 0 2.283-1.17 2.283-3.211l.786-34.917-2.233.527zM24.125 0c-2.45 0-4.073 2.007-4.073 4.466v4.775l.092 4.023c1.413-.31 4.081-.794 8.371-1.246l.059-2.768V4.474A4.464 4.464 0 0024.124 0z" fill="#6A2823"/><g clip-path="url(#clip1_694_2128)"><path d="M74.796 53.024c4.73 0 6.922 3.587 7.382 8.683.108 1.218-.002 2.996-.16 5.054C81.487 73.6 80.876 82 85.427 82c3.853 0 5.828-7.387 6.972-15.808 1.101-8.336-.068-12.484.51-16.187 1.094-7.013 7.215-13.301 5.325-22.244-1.048-4.961-3.782-7.293-6.486-8.276-6.232-2.268-10.258 2.103-16.952 2.103-6.692 0-10.716-4.37-16.95-2.103-2.703.982-5.438 3.315-6.488 8.276-1.887 8.943 4.233 15.23 5.332 22.244.572 3.702-.591 7.85.509 16.187C58.34 74.613 60.319 82 64.169 82c4.547 0 3.94-8.401 3.41-15.239-.155-2.06-.272-3.837-.161-5.056.458-5.094 2.682-8.681 7.378-8.681z" fill="#6A2823"/></g></g><defs><clipPath id="clip0_694_2128"><path fill="#fff" d="M0 0h100v100H0z"/></clipPath><clipPath id="clip1_694_2128"><path fill="#fff" transform="translate(50 18.333)" d="M0 0h50v65H0z"/></clipPath></defs></svg>