<svg width="101" height="101" fill="none" xmlns="http://www.w3.org/2000/svg"><path fill-rule="evenodd" clip-rule="evenodd" d="M50.098 75.856c-9.024 0-18.192-5.37-23.542-12.476C.886 63.38.11 100.136.11 100.136h99.97s2.015-36.92-26.853-36.92c-5.344 7.195-14.105 12.64-23.13 12.64zm21.508-44.063c0 10.575-9.631 30.797-21.521 30.797-11.871 0-21.508-20.228-21.508-30.797 0-10.569 9.63-19.15 21.508-19.15 11.89.007 21.52 8.587 21.52 19.15z" fill="#6A2823"/><path fill-rule="evenodd" clip-rule="evenodd" d="M81.203 22.667c0-1.982-2.753-3.581-6.17-3.594V14.99c0-.608.232-14.853-24.875-14.853-25.094 0-24.863 14.245-24.863 14.853v4.228c-.062 0-.112-.02-.169-.02-3.398 0-6.132 1.575-6.132 3.526v17.274c0 1.938 2.74 3.518 6.132 3.518 3.392 0 6.146-1.58 6.146-3.518V22.724c0-.27-.17-.515-.27-.765v-4.711c0-.433-1.802-11.183 19.156-11.183 20.964 0 18.786 10.75 18.786 11.183v4.961c-.037.157-.156.295-.156.458v17.67c0 1.988 2.772 3.6 6.208 3.6.075 0 .13-.025.206-.025v6.454h-6.158v6.084h12.222l-.063-33.783z" fill="#6A2823"/></svg>