<svg width="100" height="100" fill="none" xmlns="http://www.w3.org/2000/svg"><path d="M71.459 0h-43.75c-5.176 0-9.375 4.2-9.375 9.375v81.25c0 5.176 4.199 9.375 9.375 9.375h43.75c5.175 0 9.374-4.2 9.374-9.375V9.375C80.834 4.199 76.635 0 71.46 0zM49.582 93.75a6.243 6.243 0 01-6.25-6.25 6.243 6.243 0 016.25-6.25 6.243 6.243 0 016.25 6.25 6.243 6.243 0 01-6.25 6.25z" fill="#6A2823"/><path d="M70.462 37.172l2.871 2.848L59.94 53.333l-7.118-7.07 2.872-2.849 4.246 4.202 10.523-10.444zm-22.77 9.09l6.154 6.061H33.334v-4.04c0-4.465 7.343-8.081 16.41-8.081l3.877.222-5.928 5.839zM49.745 20a8.27 8.27 0 015.802 2.367 8.02 8.02 0 012.403 5.714 8.02 8.02 0 01-2.403 5.714 8.27 8.27 0 01-5.802 2.367 8.27 8.27 0 01-5.802-2.367 8.019 8.019 0 01-2.403-5.714 8.02 8.02 0 012.403-5.714A8.27 8.27 0 0149.744 20z" fill="#fff"/></svg>