<svg width="100" height="100" fill="none" xmlns="http://www.w3.org/2000/svg"><path d="M50 5.556c15.65 0 24.528 10.683 25.817 23.589h.389c10.083 0 18.239 8.4 18.239 18.76 0 .528-.023 1.056-.062 1.573a31.944 31.944 0 00-56.76 17.189H23.788c-10.072 0-18.233-8.4-18.233-18.761 0-10.361 8.166-18.761 18.233-18.761h.394C25.483 16.155 34.35 5.555 50 5.555zm44.445 63.889a25 25 0 11-50 0 25 25 0 0150 0zm-11.923-10.3a2.776 2.776 0 00-3.933 0l-14.7 14.705-3.589-3.594a2.78 2.78 0 10-3.933 3.933l5.555 5.556a2.78 2.78 0 003.934 0l16.666-16.667a2.777 2.777 0 000-3.933z" fill="#6A2823"/><path d="M44.921 34.219h-3.763V19.713l-4.492 1.394v-3.06l7.852-2.813h.403V34.22zm18.459-6.315c-.148 2.04-.903 3.645-2.266 4.817-1.354 1.172-3.142 1.758-5.365 1.758-2.43 0-4.344-.816-5.742-2.448-1.389-1.64-2.083-3.889-2.083-6.744v-1.16c0-1.822.321-3.428.963-4.817.643-1.389 1.559-2.452 2.748-3.19C52.833 15.373 54.222 15 55.8 15c2.188 0 3.95.586 5.287 1.758 1.337 1.172 2.11 2.817 2.318 4.935h-3.907c-.095-1.224-.438-2.11-1.028-2.657-.582-.555-1.472-.833-2.67-.833-1.302 0-2.278.469-2.93 1.406-.642.93-.971 2.374-.989 4.336v1.433c0 2.048.308 3.546.925 4.492.625.946 1.605 1.42 2.942 1.42 1.207 0 2.105-.274 2.696-.821.599-.556.941-1.41 1.028-2.565h3.907z" fill="#fff"/></svg>