<svg width="100" height="101" fill="none" xmlns="http://www.w3.org/2000/svg"><path d="M100 58.143V51H78.57v35.714h7.143V72.43h10.714v-7.143H85.714v-7.143H100zM60.714 86.714H46.43V51h14.285A10.725 10.725 0 0171.43 61.714V76a10.725 10.725 0 01-10.715 10.714zm-7.142-7.143h7.142A3.575 3.575 0 0064.286 76V61.714a3.575 3.575 0 00-3.572-3.571h-7.142V79.57zM32.143 51H14.286v35.714h7.143V76h10.714a7.153 7.153 0 007.143-7.143V58.143A7.15 7.15 0 0032.143 51zM21.428 68.857V58.143h10.715l.003 10.714H21.428z" fill="#6A2823"/><path d="M71.429 43.856V29.571a3.251 3.251 0 00-1.072-2.5l-25-25a3.246 3.246 0 00-2.5-1.072H7.143A7.164 7.164 0 000 8.142v85.714A7.143 7.143 0 007.143 101h57.143v-7.143H7.143V8.142h28.571v21.429a7.164 7.164 0 007.143 7.143h21.429v7.142h7.143zM42.857 29.571v-20l20 20h-20z" fill="#6A2823"/></svg>