<svg width="100" height="100" fill="none" xmlns="http://www.w3.org/2000/svg"><g clip-path="url(#clip0_694_2195)"><path d="M29.39 3.281c-1.29-4.375-7.49-4.375-8.78 0l-.313 1.063a4.576 4.576 0 01-6.578 2.725l-.969-.532c-4.01-2.18-8.394 2.204-6.21 6.21l.529.972a4.576 4.576 0 01-2.725 6.578l-1.063.312c-4.375 1.291-4.375 7.491 0 8.782l1.063.312a4.576 4.576 0 012.725 6.578l-.532.969c-2.18 4.01 2.204 8.394 6.21 6.21l.972-.529a4.574 4.574 0 016.578 2.725l.312 1.063c1.291 4.375 7.491 4.375 8.782 0l.312-1.063a4.577 4.577 0 016.578-2.725l.969.532c4.01 2.18 8.394-2.204 6.21-6.21l-.529-.972a4.574 4.574 0 012.725-6.578l1.063-.312c4.375-1.291 4.375-7.491 0-8.782l-1.063-.312a4.577 4.577 0 01-2.725-6.578l.532-.969c2.18-4.01-2.204-8.394-6.21-6.21l-.972.529a4.575 4.575 0 01-6.578-2.725l-.312-1.063zM25 34.156a9.156 9.156 0 116.472-15.631A9.153 9.153 0 0125 34.15v.006zm16.057 19.125c-1.29-4.375-7.49-4.375-8.781 0l-.313 1.063a4.577 4.577 0 01-6.578 2.725l-.969-.532c-4.009-2.18-8.393 2.204-6.209 6.21l.528.972a4.576 4.576 0 01-2.725 6.578l-1.062.312c-4.375 1.291-4.375 7.491 0 8.782l1.062.312a4.576 4.576 0 012.725 6.578l-.531.969c-2.181 4.01 2.203 8.394 6.21 6.21l.971-.529a4.574 4.574 0 016.578 2.725l.313 1.063c1.29 4.375 7.49 4.375 8.781 0l.313-1.063a4.577 4.577 0 016.578-2.725l.968.532c4.01 2.18 8.394-2.204 6.21-6.21l-.528-.972a4.574 4.574 0 012.725-6.578l1.062-.312c4.375-1.291 4.375-7.491 0-8.782l-1.062-.312a4.576 4.576 0 01-2.725-6.578l.531-.969c2.181-4.01-2.203-8.394-6.21-6.21l-.971.529a4.577 4.577 0 01-6.578-2.725l-.313-1.063zm-4.39 30.875a9.156 9.156 0 116.472-15.631 9.153 9.153 0 01-6.473 15.625v.006z" fill="#6A2823"/><path d="M97.318.469c-2.151-7.292-12.484-7.292-14.635 0l-.521 1.77a7.624 7.624 0 01-10.964 4.542l-1.614-.885C62.9 2.26 55.593 9.568 59.233 16.245l.88 1.62c2.324 4.27.12 9.588-4.54 10.963l-1.772.521c-7.291 2.151-7.291 12.484 0 14.635l1.771.521a7.626 7.626 0 014.542 10.964l-.886 1.614c-3.635 6.683 3.672 13.99 10.35 10.35l1.62-.88a7.626 7.626 0 0110.963 4.54l.52 1.772c2.151 7.291 12.485 7.291 14.636 0l.52-1.771a7.626 7.626 0 0110.964-4.542l1.615.885c6.682 3.636 13.989-3.671 10.349-10.348l-.88-1.62a7.624 7.624 0 014.541-10.964l1.771-.52c7.292-2.152 7.292-12.485 0-14.636l-1.771-.52a7.635 7.635 0 01-4.891-4.397 7.624 7.624 0 01.35-6.567l.885-1.615c3.635-6.682-3.672-13.99-10.349-10.349l-1.62.88a7.622 7.622 0 01-9.32-1.598A7.626 7.626 0 0197.84 2.24L97.318.469z" fill="#6A2823"/><path d="M79.182 46.377h-4.185V30.243L70 31.793v-3.404l8.733-3.128h.45v21.116zm20.531-7.024c-.164 2.269-1.004 4.055-2.52 5.358-1.506 1.304-3.495 1.956-5.967 1.956-2.703 0-4.832-.908-6.387-2.723-1.544-1.825-2.317-4.326-2.317-7.502v-1.29c0-2.027.357-3.813 1.072-5.358.714-1.545 1.733-2.728 3.056-3.549 1.332-.83 2.877-1.245 4.634-1.245 2.433 0 4.393.652 5.88 1.955 1.487 1.304 2.347 3.133 2.578 5.49h-4.345c-.106-1.362-.487-2.347-1.144-2.955-.647-.618-1.636-.927-2.969-.927-1.448 0-2.534.521-3.258 1.564-.715 1.033-1.082 2.64-1.101 4.823v1.593c0 2.279.343 3.944 1.028 4.997.695 1.052 1.787 1.578 3.273 1.578 1.343 0 2.342-.304 2.998-.912.667-.618 1.048-1.57 1.144-2.853h4.346z" fill="#fff"/></g><defs><clipPath id="clip0_694_2195"><path fill="#fff" d="M0 0h100v100H0z"/></clipPath></defs></svg>