<svg width="100" height="101" fill="none" xmlns="http://www.w3.org/2000/svg"><path d="M71.429 43.856V29.571a3.251 3.251 0 00-1.072-2.5l-25-25a3.246 3.246 0 00-2.5-1.072H7.143A7.164 7.164 0 000 8.142v85.714A7.143 7.143 0 007.143 101h57.143v-7.143H7.143V8.142h28.571v21.429a7.164 7.164 0 007.143 7.143h21.429v7.142h7.143zM42.857 29.571v-20l20 20h-20z" fill="#6A2823"/><path d="M36.311 71.273H23.284v8.189H38.67v6.372H15V51.472h23.718v6.396H23.284v7.245H36.31v6.16zm4.069 14.561V51.472h11.068c3.036 0 5.766.692 8.189 2.077 2.423 1.369 4.311 3.312 5.664 5.83 1.369 2.5 2.061 5.31 2.077 8.424v1.582c0 3.146-.669 5.97-2.006 8.472a14.574 14.574 0 01-5.617 5.853c-2.407 1.4-5.098 2.108-8.071 2.124H40.379zm8.283-27.966v21.594h2.88c2.375 0 4.2-.842 5.474-2.525 1.275-1.7 1.912-4.217 1.912-7.552v-1.487c0-3.32-.637-5.822-1.912-7.505-1.274-1.684-3.13-2.525-5.57-2.525h-2.784zm50.395 11.493c0 3.351-.621 6.317-1.864 8.897s-3.013 4.57-5.31 5.971c-2.281 1.385-4.885 2.077-7.812 2.077-2.926 0-5.522-.669-7.788-2.006-2.265-1.353-4.035-3.28-5.31-5.782-1.259-2.502-1.92-5.373-1.982-8.614v-1.935c0-3.367.613-6.333 1.84-8.898 1.244-2.58 3.014-4.57 5.31-5.97C78.456 51.7 81.083 51 84.026 51c2.91 0 5.507.692 7.788 2.077 2.281 1.384 4.052 3.359 5.31 5.924 1.275 2.548 1.92 5.475 1.935 8.779v1.581zm-8.425-1.44c0-3.414-.574-6.002-1.723-7.764-1.132-1.778-2.76-2.667-4.885-2.667-4.154 0-6.348 3.115-6.584 9.346l-.024 2.525c0 3.367.558 5.955 1.676 7.764 1.117 1.81 2.777 2.715 4.98 2.715 2.092 0 3.705-.89 4.837-2.667 1.133-1.778 1.707-4.335 1.723-7.67V67.92z" fill="#6A2823"/></svg>