<svg width="190" height="26" fill="none" xmlns="http://www.w3.org/2000/svg"><path d="M112.117 13.267H0v-1.214h112.131C112.355 5.318 114.889 0 117.983 0c3.099 0 5.628 5.318 5.854 12.053h4.128C128.187 5.318 130.721 0 133.817 0c3.097 0 5.63 5.318 5.848 12.053h4.132C144.014 5.318 146.551 0 149.644 0c3.101 0 5.636 5.318 5.855 12.053H190v1.213h-34.486C155.449 20.32 152.852 26 149.644 26c-3.2 0-5.8-5.68-5.859-12.733h-4.104C139.62 20.32 137.021 26 133.817 26c-3.202 0-5.802-5.68-5.87-12.733h-4.097C123.785 20.32 121.188 26 117.983 26c-3.201 0-5.803-5.68-5.866-12.733z" fill="#B49391"/></svg>