<svg width="88" height="100" viewBox="0 0 88 100" fill="none" xmlns="http://www.w3.org/2000/svg">
<path d="M87.3332 10H80.6665V4.66833C80.6665 2.1 78.7365 0 76.3832 0H54.9432C52.5965 0 50.6665 2.1 50.6665 4.66833V10H10.5682L0.666504 30H7.5415V43.3333H6.42817L0.874837 50L6.42817 56.6667H7.64484V60.2467C7.64484 61.1517 8.34317 61.8833 9.20817 61.8833C11.7932 61.8833 13.8965 64.09 13.8965 66.8017C13.8965 69.5133 11.7932 71.72 9.20817 71.72C6.62317 71.72 4.51984 69.5133 4.51984 66.8017C4.51984 65.8967 3.81984 65.165 2.9565 65.165C2.0915 65.165 1.39317 65.8967 1.39317 66.8017C1.3965 71.325 4.89984 75 9.20817 75C13.5148 75 17.0215 71.325 17.0215 66.8033C17.0215 62.845 14.3332 59.5317 10.7715 58.7733V56.6667H11.9865L17.5415 50L11.9865 43.3333H10.8748V30H50.6665V41.9983C50.6665 44.2117 52.1015 46.0667 53.9998 46.5433V100H58.3748V90L72.9582 95L58.3748 100H77.3332V46.5417C79.2332 46.0667 80.6665 44.2117 80.6665 41.9983V30H87.3332V25H83.8698L87.3332 18.425V10ZM8.40484 25L12.2982 17.0017L16.5082 25H8.40484ZM15.7748 15H22.6965L19.2365 21.575L15.7748 15ZM21.9648 25L25.4265 18.425L28.8898 25H21.9648ZM28.1565 15H35.0782L31.6165 21.575L28.1565 15ZM34.3482 25L37.8082 18.425L41.2682 25H34.3482ZM40.5382 15H47.4598L43.9998 21.575L40.5382 15ZM50.6665 25H46.7282L50.1882 18.425L50.6665 19.3333V25ZM72.9582 90L58.3748 85L72.9582 80V90ZM58.3748 80V70L72.9582 75.0033L58.3748 80ZM72.9582 70L58.3748 65L72.9582 60V70ZM58.3748 60V50.0033L72.9582 55L58.3748 60ZM72.9582 50.0033L63.2332 46.6667H72.9582V50.0033ZM75.4582 22.08C75.4582 23.685 74.3315 25 72.9582 25H57.9548C56.5815 25 55.4582 23.685 55.4582 22.08V7.93C55.4582 6.315 56.5815 5 57.9548 5H72.9582C74.3315 5 75.4582 6.315 75.4582 7.93V22.08ZM81.1415 21.575L80.6665 20.6717V15H84.6015L81.1415 21.575Z" fill="#6A2823"/>
</svg>
