<svg width="100" height="100" viewBox="0 0 100 100" fill="none" xmlns="http://www.w3.org/2000/svg">
<g clip-path="url(#clip0_694_2073)">
<path fill-rule="evenodd" clip-rule="evenodd" d="M60.3633 11.7852H93.5776H101.078V86.7852H89.4538L87.3958 84.8636C87.8332 83.69 88.1586 82.4816 88.3698 81.2547L93.5679 79.8565L93.4965 75.678L88.3793 74.4933C88.3276 74.1879 88.2687 73.8831 88.2027 73.5792C88.0031 72.6606 87.7403 71.7618 87.4179 70.8884L91.2286 67.0744L89.075 63.4887L84.0399 65.0264C83.2516 64.075 82.3732 63.1934 81.4131 62.3953L82.8107 57.1708L79.1536 55.1422L75.5475 59.0045C74.3913 58.5762 73.1964 58.2546 71.9778 58.0447L70.5679 52.803L66.3893 52.878L65.1939 58.0384C63.9767 58.2457 62.7854 58.5641 61.6342 58.9874L57.7857 55.1422L54.2 57.2958L55.7504 62.3725C55.1814 62.8439 54.6362 63.3485 54.1179 63.8851C53.7796 64.2352 53.4552 64.5965 53.1449 64.968L47.8822 63.5601L45.8536 67.2172L49.7357 70.8418C49.3094 71.9879 48.9871 73.1746 48.7751 74.3879L43.5143 75.8029L43.5893 79.9851L48.754 81.1815C48.9582 82.3942 49.2732 83.5856 49.6951 84.7404L47.6539 86.7852H11.0776V26.7852H52.8633L60.3633 11.7852ZM52.879 86.7852H47.6539L45.8536 88.5887L48.0072 92.1708L53.0659 90.6292C53.8552 91.5864 54.7284 92.4647 55.6726 93.2549L54.2714 98.4922L57.9286 100.517L61.5258 96.6645C62.0324 96.8541 62.548 97.0237 63.0715 97.1726C63.7454 97.3643 64.4262 97.5198 65.111 97.6395L66.5143 102.857L70.6965 102.785L71.882 97.6639C73.1051 97.4594 74.312 97.1412 75.4865 96.7104L79.3 100.517L82.8822 98.3637L81.3533 93.3467C82.3165 92.5522 83.2043 91.669 84.0046 90.7085L89.2036 92.0994L91.2286 88.4422L89.4538 86.7852H84.214C84.6419 86.0363 85.0173 85.2548 85.3361 84.4458C86.6444 81.1249 86.9386 77.4907 86.1814 74.0026C85.4243 70.5145 83.6498 67.3293 81.0823 64.8497C78.5149 62.3702 75.2698 60.7077 71.7574 60.0724C68.2451 59.4372 64.6233 59.8578 61.35 61.281C58.0767 62.7043 55.2989 65.0662 53.368 68.0681C51.4371 71.07 50.4397 74.5771 50.5021 78.1459C50.5561 81.207 51.3865 84.1741 52.879 86.7852ZM56.1772 86.7852H52.879C53.7195 88.2556 54.77 89.6131 56.0102 90.8108C59.4526 94.1353 64.0743 95.9567 68.8592 95.8745C72.428 95.8125 75.8982 94.6936 78.8311 92.6593C81.0495 91.1206 82.8851 89.1104 84.214 86.7852H80.9078C82.2455 84.9383 83.158 82.8073 83.5669 80.5454C84.104 77.5741 83.7481 74.5102 82.544 71.7411C81.34 68.9721 79.3419 66.6222 76.8024 64.9887C74.2629 63.3551 71.2961 62.5113 68.2771 62.5638C66.272 62.5986 64.2934 63.0282 62.4543 63.8279C60.6153 64.6275 58.9518 65.7817 57.5588 67.2244C56.1659 68.667 55.0708 70.37 54.3361 72.236C53.6015 74.102 53.2416 76.0944 53.2771 78.0995C53.3305 81.1185 54.2779 84.0539 55.9995 86.5345C56.058 86.6187 56.1172 86.7023 56.1772 86.7852ZM57.8751 86.7852H56.1772C57.8858 89.1442 60.235 90.9671 62.9492 92.0357C65.7588 93.1419 68.8333 93.3902 71.7839 92.7491C74.7346 92.1081 77.4289 90.6065 79.5263 88.4343C80.027 87.9157 80.4883 87.3644 80.9078 86.7852H79.2177C80.1772 85.6413 80.9518 84.3444 81.5051 82.9403C82.5151 80.3773 82.7424 77.5724 82.1583 74.8803C81.5741 72.1882 80.2048 69.7297 78.2235 67.8158C76.2421 65.9018 73.7377 64.6184 71.027 64.1278C68.3162 63.6372 65.5209 63.9615 62.9944 65.0595C60.4679 66.1576 58.3238 67.9802 56.8332 70.2968C55.3425 72.6135 54.5723 75.3201 54.6199 78.0745C54.6515 79.9034 55.0431 81.7082 55.7722 83.3857C56.3071 84.6164 57.016 85.761 57.8751 86.7852ZM57.8751 86.7852H79.2177C78.4257 87.7293 77.5077 88.5692 76.4842 89.2791C74.2205 90.849 71.5422 91.7125 68.7878 91.7602C66.9589 91.7919 65.1416 91.4631 63.4398 90.7924C61.738 90.1218 60.185 89.1225 58.8694 87.8517C58.5189 87.5132 58.1871 87.1571 57.8751 86.7852ZM64.2919 26.7852H93.5776V19.2852H68.2205L64.2919 26.7852ZM42.7458 34.6619L40.4714 27.8565H35.9214L33.704 34.5019C33.2668 34.6487 32.8382 34.8176 32.42 35.0076L26.0072 31.803L22.7893 35.0208L25.919 41.2837C25.7134 41.6971 25.5293 42.1204 25.3674 42.5519L18.5679 44.8208V49.3744L25.2087 51.5869C25.3072 51.8801 25.4159 52.1704 25.5346 52.457C25.593 52.5979 25.6538 52.7378 25.7168 52.8765L22.5143 59.2851L25.7322 62.503L31.9927 59.3744C32.4066 59.5802 32.8309 59.7646 33.264 59.927L35.5322 66.7244H40.0857L42.2986 60.0824C42.7355 59.9356 43.1654 59.7662 43.5864 59.5747L49.9964 62.7815L53.2143 59.5601L50.0839 53.2958C50.2875 52.8859 50.4707 52.4648 50.6325 52.0338L57.4357 49.7601V45.2101L50.7893 42.9923C50.6915 42.7014 50.5835 42.4132 50.4654 42.1282C50.4072 41.9877 50.3467 41.8483 50.2839 41.7102L53.4929 35.2958L50.2715 32.078L44.0048 35.2095C43.5933 35.0051 43.1731 34.8224 42.7458 34.6619ZM37.9214 42.6065C38.851 42.5897 39.7646 42.8489 40.5467 43.3514C41.3289 43.8539 41.9445 44.577 42.3156 45.4294C42.6868 46.2818 42.7968 47.225 42.6318 48.1399C42.4668 49.0548 42.0342 49.9003 41.3887 50.5693C40.7431 51.2383 39.9137 51.7008 39.0053 51.8984C38.0969 52.096 37.1502 52.0197 36.2852 51.6792C35.4201 51.3388 34.6754 50.7494 34.1453 49.9857C33.6152 49.222 33.3236 48.3182 33.3072 47.3887C33.2871 46.1439 33.7617 44.9421 34.6268 44.0469C35.4918 43.1516 36.6767 42.6362 37.9214 42.6137V42.6065ZM68.4179 70.7994C69.8114 70.7749 71.1808 71.1641 72.3531 71.918C73.5253 72.6718 74.4477 73.7563 75.0036 75.0344C75.5594 76.3125 75.7238 77.7267 75.4759 79.0982C75.2279 80.4697 74.5789 81.7368 73.6108 82.7394C72.6426 83.742 71.399 84.435 70.037 84.7307C68.675 85.0264 67.2559 84.9116 65.9592 84.4008C64.6625 83.89 63.5463 83.0061 62.752 81.8609C61.9576 80.7158 61.5207 79.3607 61.4964 77.9672C61.4799 77.042 61.6458 76.1226 61.9848 75.2616C62.3237 74.4005 62.829 73.6147 63.4718 72.949C64.1146 72.2833 64.8823 71.7509 65.7309 71.382C66.5796 71.0132 67.4926 70.8152 68.4179 70.7994ZM38.2128 59.7816C40.6855 59.7424 43.091 58.9706 45.125 57.5638C47.1589 56.1571 48.7299 54.1786 49.6391 51.8788C50.5483 49.5789 50.7548 47.0611 50.2327 44.6438C49.7105 42.2265 48.483 40.0185 46.7055 38.299C44.9281 36.5796 42.6805 35.426 40.2473 34.9842C37.814 34.5425 35.3044 34.8325 33.036 35.8174C30.7675 36.8024 28.8423 38.4381 27.5037 40.5176C26.1652 42.597 25.4736 45.0268 25.5164 47.4995C25.5737 50.8111 26.9429 53.9646 29.3234 56.2674C31.704 58.5702 34.9011 59.8342 38.2128 59.7816ZM37.8092 36.7209C39.8997 36.6838 41.9543 37.2675 43.7131 38.398C45.4719 39.5286 46.856 41.1553 47.6903 43.0725C48.5245 44.9897 48.7716 47.1112 48.4001 49.1688C48.0286 51.2264 47.0554 53.1276 45.6034 54.6321C44.1514 56.1365 42.2859 57.1766 40.2428 57.6208C38.1997 58.065 36.0707 57.8934 34.1251 57.1276C32.1796 56.3618 30.5048 55.0364 29.3125 53.3188C28.1203 51.6012 27.4641 49.5686 27.4271 47.4781C27.4029 46.0893 27.6527 44.7094 28.1619 43.4171C28.6712 42.1248 29.43 40.9455 30.3952 39.9466C31.3603 38.9477 32.5127 38.1487 33.7867 37.5952C35.0606 37.0417 36.4311 36.7446 37.8199 36.7209H37.8092ZM38.1735 57.0066C40.0954 56.9738 41.9644 56.3718 43.5442 55.2767C45.1239 54.1816 46.3434 52.6426 47.0484 50.8544C47.7534 49.0661 47.9122 47.109 47.5048 45.2305C47.0974 43.3519 46.142 41.6364 44.7595 40.3009C43.3771 38.9654 41.6296 38.0699 39.7381 37.7276C37.8466 37.3854 35.8961 37.6117 34.1333 38.3781C32.3705 39.1444 30.8746 40.4164 29.8347 42.033C28.7948 43.6496 28.2577 45.5383 28.2914 47.4602C28.3132 48.736 28.5862 49.9949 29.0947 51.1652C29.6032 52.3354 30.3372 53.394 31.2549 54.2805C32.1726 55.167 33.2559 55.864 34.443 56.3318C35.6301 56.7996 36.8978 57.0289 38.1735 57.0066ZM37.9056 41.7388C39.0036 41.7199 40.0826 42.027 41.0061 42.6212C41.9296 43.2154 42.6563 44.07 43.0941 45.0771C43.532 46.0842 43.6615 47.1985 43.4662 48.2792C43.2709 49.3598 42.7596 50.3583 41.9969 51.1485C41.2342 51.9386 40.2544 52.4849 39.1814 52.7182C38.1083 52.9516 36.9901 52.8616 35.9682 52.4596C34.9462 52.0576 34.0664 51.3616 33.4399 50.4597C32.8134 49.5578 32.4684 48.4903 32.4485 47.3923C32.4353 46.6627 32.5659 45.9376 32.8331 45.2585C33.1002 44.5794 33.4986 43.9596 34.0054 43.4346C34.5122 42.9095 35.1175 42.4895 35.7868 42.1985C36.456 41.9076 37.176 41.7513 37.9056 41.7388ZM68.4128 70.2352C69.9159 70.2086 71.3931 70.6283 72.6576 71.4414C73.9222 72.2544 74.9171 73.4242 75.5167 74.8028C76.1163 76.1814 76.2936 77.7069 76.0261 79.1862C75.7586 80.6656 75.0584 82.0324 74.0141 83.1137C72.9697 84.1951 71.6281 84.9424 70.1589 85.2612C68.6897 85.58 67.159 85.4559 65.7604 84.9046C64.3618 84.3533 63.1581 83.3996 62.3016 82.1641C61.445 80.9286 60.9742 79.4669 60.9485 77.9638C60.9131 75.9496 61.6793 74.0039 63.0784 72.5545C64.4775 71.1051 66.3986 70.2709 68.4128 70.2352Z" fill="#6A2823"/>
</g>
<defs>
<clipPath id="clip0_694_2073">
<rect width="100" height="100" fill="white"/>
</clipPath>
</defs>
</svg>
