<svg width="88" height="88" viewBox="0 0 88 88" fill="none" xmlns="http://www.w3.org/2000/svg">
<path d="M81.8697 0.719482H6.12881C3.42378 0.719482 0.71875 3.42451 0.71875 6.12954V66.9934C0.71875 69.6985 3.42378 72.4035 6.12881 72.4035H33.1791V77.8136C33.1791 81.5703 28.3057 83.2236 22.359 83.2236V87.2804H65.6395V83.2222C59.6913 83.2222 54.8194 81.5689 54.8194 77.8121V72.4021H81.8697C84.5747 72.4021 87.2797 69.697 87.2797 66.992V6.12954C87.2797 3.42451 84.5747 0.719482 81.8697 0.719482ZM84.3943 66.9934C84.3943 68.1029 82.9776 69.5181 81.8697 69.5181H6.12881C5.01939 69.5181 3.60412 68.1029 3.60412 66.9934V61.5834H84.3943V66.9934Z" fill="#6A2823"/>
<path d="M44 68.3467C44.7473 68.3467 45.3532 67.7408 45.3532 66.9934C45.3532 66.2461 44.7473 65.6402 44 65.6402C43.2526 65.6402 42.6467 66.2461 42.6467 66.9934C42.6467 67.7408 43.2526 68.3467 44 68.3467Z" fill="#6A2823"/>
</svg>
