<svg width="92" height="92" viewBox="0 0 92 92" fill="none" xmlns="http://www.w3.org/2000/svg">
<path d="M90.1237 85.9503H87.277L86.7076 74.1913L86.1367 62.4353L85.5674 50.6779L84.9995 38.9219L84.4302 27.1644H84.1675C84.8516 26.3917 85.2315 25.3967 85.2364 24.3647C85.2364 23.1122 84.6837 21.9401 83.7591 21.1339C83.794 20.8879 83.8123 20.6419 83.8123 20.399C83.8123 17.1742 81.0551 14.5051 77.8014 14.6873C77.6035 14.2569 77.3645 13.8466 77.0879 13.4621C77.1091 13.2723 77.1197 13.0825 77.1197 12.8866C77.1197 8.34548 73.3742 4.65154 68.7708 4.65154C68.4366 4.65174 68.1028 4.67507 67.7718 4.72138C66.9962 3.41425 65.8924 2.33259 64.5698 1.58368C63.2473 0.834779 61.7519 0.444654 60.232 0.452006C58.2114 0.45453 56.2539 1.1562 54.6919 2.4379C52.9739 1.14069 50.8778 0.443039 48.7251 0.452006C46.7908 0.452177 44.8986 1.01677 43.2806 2.07655C40.2835 -0.0900158 35.8395 -0.0171385 32.888 2.32251C29.5296 0.139243 25.0127 -0.134045 21.3947 1.67877C19.5426 0.866197 17.5415 0.4484 15.519 0.452006C7.4813 0.452006 0.942114 6.8925 0.942114 14.8103C0.942114 22.728 7.4813 29.1701 15.519 29.1701C20.3061 29.1701 24.7045 26.8972 27.4405 23.0499C29.3404 22.9185 31.1774 22.3145 32.7847 21.2929C34.392 20.2713 35.7186 18.8645 36.6442 17.2C38.2559 17.5193 39.9261 17.3534 41.4435 16.7233C42.3737 17.7251 43.5007 18.5241 44.7539 19.0703C46.0071 19.6166 47.3595 19.8984 48.7266 19.898C50.1099 19.9016 51.4785 19.6147 52.7439 19.0558C54.0092 18.4969 55.143 17.6784 56.072 16.6535C57.8484 17.6399 59.9201 17.9556 61.9097 17.5432C62.3743 18.2158 62.93 18.8139 63.5601 19.3165C64.3162 22.6916 67.3618 25.1618 70.91 25.1618C71.9865 25.1618 73.0371 24.9371 74.0073 24.4999C74.7907 25.2575 75.767 25.7752 76.8389 25.9954C77.0135 26.4265 77.2594 26.8183 77.557 27.1644H75.8915L75.3221 38.9219L74.7512 50.6779L74.1819 62.4353L73.6141 74.1913L73.0447 85.9503V57.9564H55.9642L38.8837 43.9595V57.9564L21.8031 43.9595V57.9564L4.7226 43.9595V85.9488H1.87433C1.50006 85.9471 1.14033 86.0935 0.873553 86.356C0.606778 86.6186 0.4546 86.9759 0.450195 87.3501V90.1483C0.450195 90.9181 1.08939 91.5481 1.87433 91.5481H90.1237C90.4976 91.5498 90.8569 91.4035 91.1234 91.1413C91.3899 90.8791 91.5419 90.5221 91.5463 90.1483V87.3501C91.5419 86.9763 91.3899 86.6193 91.1234 86.3571C90.8569 86.0949 90.4976 85.9487 90.1237 85.9503ZM75.6728 21.7594L74.8332 20.3869L73.5108 21.3054C72.7471 21.8382 71.8382 22.1239 70.907 22.1238C68.6508 22.1238 66.7348 20.4598 66.4509 18.2552L66.3613 17.569L65.7859 17.1864C65.0126 16.6626 64.3918 15.9433 63.9867 15.1018L63.3961 13.8902L62.1223 14.3335C60.0347 15.0593 58.2067 14.6311 56.6671 13.4226L55.3721 12.4008L54.4626 13.7824C53.8374 14.7319 52.9854 15.5105 51.9836 16.0478C50.9818 16.5852 49.8619 16.8643 48.7251 16.8599C47.6227 16.8617 46.536 16.5984 45.5567 16.0921C44.5775 15.5858 43.7343 14.8514 43.0984 13.9509L42.2891 12.7986L41.0791 13.5182C39.6352 14.3776 38.0744 14.5916 36.336 13.9676L34.965 13.4757L34.4169 14.8239C33.1325 17.9819 30.0671 20.0301 26.6054 20.0422L25.7704 20.0453L25.3255 20.7513C23.1999 24.1188 19.5333 26.1305 15.519 26.1305C9.15595 26.1305 3.97865 21.0504 3.97865 14.8072C3.97865 8.56715 9.15443 3.48854 15.519 3.48854C17.3531 3.48854 19.1173 3.9091 20.7616 4.73656L21.504 5.11005L22.2191 4.68646C25.2693 2.8782 29.3368 3.21374 32.0302 5.4547L33.1446 6.38085L34.1224 5.31199C34.6403 4.73682 35.2735 4.27718 35.9809 3.96301C36.6882 3.64884 37.4538 3.48717 38.2278 3.48854C39.6998 3.48251 41.114 4.06076 42.1601 5.09639L43.1576 6.08175L44.2188 5.16471C45.4711 4.08327 47.0705 3.48833 48.7251 3.48854C50.6001 3.48854 52.3522 4.22339 53.6549 5.55946L54.8088 6.74068L55.8898 5.49114C56.4274 4.86525 57.0935 4.36244 57.8428 4.01689C58.592 3.67133 59.4069 3.49114 60.232 3.48854C62.5778 3.48854 64.6578 4.87472 65.5323 7.01852L66.0409 8.26805L67.3421 7.90822C67.8887 7.7564 68.3426 7.68656 68.7708 7.68656C71.701 7.68656 74.0832 10.0186 74.0832 12.8851C74.0832 13.1341 74.0422 13.3725 73.9967 13.6625L73.8919 14.3518L74.3459 14.8816C74.8302 15.4449 75.1536 16.0704 75.3084 16.74L75.6728 18.319L77.223 17.8529C77.5327 17.7588 77.7863 17.7162 78.0216 17.7162C79.5383 17.7162 80.7742 18.9187 80.7742 20.3975C80.7742 20.6784 80.718 20.9699 80.6011 21.2933L80.1153 22.6278L81.4149 23.2002C81.6442 23.2977 81.8402 23.4596 81.9793 23.6663C82.1183 23.873 82.1944 24.1156 82.1983 24.3647C82.1983 25.0723 81.6017 25.6462 80.8699 25.6462C80.5431 25.6521 80.2263 25.534 79.9832 25.3156C79.7401 25.0973 79.5887 24.795 79.5596 24.4695L79.4442 23.0772L77.9396 23.0788C77.4815 23.0663 77.0339 22.9389 76.6378 22.7084C76.2417 22.4779 75.9099 22.1516 75.6728 21.7594ZM77.1395 48.4005L77.4887 41.1993H82.8284L83.1761 48.4005H77.1395ZM76.0023 71.9139L76.35 64.7127H83.9671L84.3163 71.9139H76.0023ZM69.8169 90.376H59.189V89.1311H69.8169V90.376ZM70.0066 71.9534V82.9153H69.5314V71.9534H70.0066ZM60.9912 85.1911V72.711H68.0132V85.1911H60.9912ZM60.6116 88.3704V86.7094H68.3927V88.3704H60.6116ZM22.5122 72.6533H38.1701V77.5543H22.5122V72.6533ZM21.0895 77.5527H7.75762V72.6518H21.0895V77.5527ZM39.5927 72.6533H54.5385V77.5543H39.5927V72.6533ZM39.5927 71.2534V66.354H54.5385V71.2534H39.5927ZM38.1701 71.2534H22.5122V66.354H38.1701V71.2534ZM21.0895 71.2534H7.75762V66.354H21.0895V71.2534Z" fill="#6A2823"/>
</svg>
