<svg width="100" height="76" viewBox="0 0 100 76" fill="none" xmlns="http://www.w3.org/2000/svg">
<path d="M61.65 69.6957V69.4087H43.585V69.6957L43.5881 69.8376C43.5881 71.4277 42.9565 72.9526 41.8321 74.077C40.7078 75.2013 39.1828 75.833 37.5928 75.833C36.0027 75.833 34.4778 75.2013 33.3534 74.077C32.2291 72.9526 31.5974 71.4277 31.5974 69.8376L31.6006 69.6894V69.4087H29.5411C28.6631 69.4087 27.8115 69.1084 27.1276 68.5577C26.4438 68.0069 25.9689 67.2389 25.7818 66.381L25.7786 66.3558L13.7406 9.35716L3.45604 7.64465C2.47654 7.44679 1.61231 6.87593 1.04594 6.05265C0.479564 5.22937 0.255402 4.21817 0.420812 3.23268C0.586221 2.24718 1.12825 1.36458 1.93238 0.771331C2.73651 0.178086 3.73976 -0.0793361 4.73018 0.0534496L4.71125 0.0502958L17.5819 2.19488C19.1493 2.46295 20.3793 3.64878 20.7073 5.16891L20.7105 5.19414L22.8929 15.4881L60.4389 18.6167C60.2071 19.8501 60.0889 21.1021 60.0857 22.3571V22.3697C60.0857 23.6376 60.1961 24.8802 60.4105 26.0881L60.3916 25.9619C59.3583 26.2876 58.4813 26.9825 57.928 27.9139C57.3747 28.8454 57.184 29.948 57.3923 31.0112L57.3892 30.9828L59.6568 47.351C59.7955 48.4012 60.2749 49.3221 60.975 50.016C61.6121 50.6499 62.4857 51.0472 63.4539 51.0567H63.4571C63.6715 51.0567 63.8828 51.0346 64.0847 50.9968L64.0626 50.9999C65.1379 50.7189 66.0662 50.0396 66.6594 49.0998C67.2526 48.1599 67.4664 47.0297 67.2574 45.9381L67.2606 45.9665L66.0243 37.0664C67.9864 39.108 70.3413 40.7315 72.9472 41.8393C75.5531 42.9472 78.3561 43.5164 81.1877 43.5128C81.3234 43.5128 81.459 43.5128 81.5914 43.4939L81.8847 43.4781L79.7748 55.7842C79.7243 56.0826 79.57 56.3534 79.3392 56.549C79.1084 56.7446 78.8159 56.8524 78.5133 56.8534H31.6321L32.6634 61.7323H77.3117C78.3053 61.7717 79.245 62.1939 79.9344 62.9105C80.6237 63.6271 81.0091 64.5826 81.0099 65.5769C81.0107 66.5712 80.6269 67.5273 79.9387 68.2451C79.2506 68.9628 78.3115 69.3865 77.318 69.4276H73.6407V69.7146C73.6407 71.3046 73.009 72.8296 71.8847 73.9539C70.7603 75.0783 69.2354 75.71 67.6453 75.71C66.0553 75.71 64.5303 75.0783 63.406 73.9539C62.2816 72.8296 61.65 71.3046 61.65 69.7146V69.6957ZM65.9328 69.6957C65.9335 69.931 65.983 70.1637 66.0783 70.379C66.1735 70.5942 66.3124 70.7873 66.4862 70.946C66.66 71.1048 66.8649 71.2257 67.0878 71.3012C67.3108 71.3766 67.547 71.4049 67.7815 71.3843C68.0159 71.3637 68.2436 71.2947 68.45 71.1815C68.6564 71.0683 68.837 70.9135 68.9805 70.7269C69.1239 70.5403 69.227 70.3259 69.2833 70.0974C69.3396 69.8688 69.3478 69.6311 69.3074 69.3992V69.4087H65.9644C65.9474 69.5034 65.939 69.5994 65.9391 69.6957H65.9328ZM35.8834 69.6957C35.8841 69.931 35.9336 70.1637 36.0289 70.379C36.1241 70.5942 36.263 70.7873 36.4368 70.946C36.6106 71.1048 36.8155 71.2257 37.0384 71.3012C37.2614 71.3766 37.4976 71.4049 37.7321 71.3843C37.9665 71.3637 38.1942 71.2947 38.4006 71.1815C38.607 71.0683 38.7876 70.9135 38.931 70.7269C39.0745 70.5403 39.1776 70.3259 39.2339 70.0974C39.2902 69.8688 39.2984 69.6311 39.258 69.3992V69.4087H35.9118C35.896 69.5014 35.8886 69.5953 35.8897 69.6894V69.6957H35.8834ZM48.0792 25.9367C47.0035 26.2171 46.0747 26.8962 45.4814 27.8362C44.8881 28.7763 44.6746 29.9069 44.8844 30.9985L44.8812 30.9702L47.1488 47.3384C47.2876 48.3886 47.7669 49.3095 48.4671 50.0033C49.1041 50.6372 49.9777 51.0346 50.946 51.0441C51.1604 51.0441 51.3749 51.022 51.5767 50.9842L51.5546 50.9873C52.6299 50.7063 53.5582 50.027 54.1514 49.0872C54.7446 48.1473 54.9584 47.0171 54.7494 45.9255L54.7526 45.9539L52.485 29.5856C52.3542 28.5754 51.8903 27.6376 51.1667 26.9207C50.5081 26.2628 49.6186 25.8883 48.6878 25.8768H48.6847C48.4671 25.8768 48.2558 25.8988 48.0508 25.9398L48.0728 25.9367H48.0792ZM35.5712 25.9367C34.4919 26.2158 33.5599 26.8964 32.9655 27.8395C32.3712 28.7826 32.1593 29.9171 32.3732 31.0112L32.3701 30.9828L34.6377 47.351C34.7764 48.4012 35.2558 49.3221 35.956 50.016C36.593 50.6499 37.4666 51.0472 38.4348 51.0567H38.438C38.6524 51.0567 38.8638 51.0346 39.0656 50.9968L39.0435 50.9999C40.1198 50.7202 41.0493 50.0414 41.6432 49.1013C42.2372 48.1611 42.4511 47.0302 42.2415 45.9381L42.2446 45.9665L39.9739 29.5888C39.8431 28.5786 39.3792 27.6408 38.6556 26.9238C37.9978 26.2649 37.1078 25.8901 36.1767 25.8799H36.1736C35.9591 25.8799 35.7509 25.902 35.5491 25.9398L35.5712 25.9367Z" fill="#6A2823"/>
<path fill-rule="evenodd" clip-rule="evenodd" d="M90.8289 19.655H83.3918V12.5957H79.9215V19.655H72.5029V22.9661H79.9215V30.492H83.3918V22.9661H90.8289V19.655Z" fill="#6A2823"/>
<path fill-rule="evenodd" clip-rule="evenodd" d="M81.6663 36.544C89.9506 36.544 96.6663 29.8283 96.6663 21.544C96.6663 13.2598 89.9506 6.54403 81.6663 6.54403C73.3821 6.54403 66.6663 13.2598 66.6663 21.544C66.6663 29.8283 73.3821 36.544 81.6663 36.544ZM81.6663 39.8774C91.7916 39.8774 99.9997 31.6692 99.9997 21.544C99.9997 11.4188 91.7916 3.21069 81.6663 3.21069C71.5411 3.21069 63.333 11.4188 63.333 21.544C63.333 31.6692 71.5411 39.8774 81.6663 39.8774Z" fill="#6A2823"/>
</svg>
