<svg width="98" height="92" viewBox="0 0 98 92" fill="none" xmlns="http://www.w3.org/2000/svg">
<path fill-rule="evenodd" clip-rule="evenodd" d="M55.61 65.0365C55.6167 65.5768 55.7445 66.1088 55.9839 66.5933H55.9895V77.9929H22.488C10.9879 77.9929 10.6977 70.6889 10.6977 70.6889L8.19234 33.4321H4.64355C2.40602 33.4321 0.598145 26.6247 0.598145 26.6247C0.598145 24.5602 2.4116 22.875 4.64355 22.875H15.1895L21.1767 2.54759C21.3774 2.13194 21.6598 1.76098 22.0071 1.45684C22.3543 1.1527 22.7592 0.921618 23.1977 0.77737C23.6362 0.633123 24.0992 0.578668 24.5592 0.617257C25.0191 0.655845 25.4666 0.786686 25.8749 1.00197L26.2655 1.20285C27.098 1.6508 27.7256 2.40257 28.0176 3.30164C28.3097 4.2007 28.2437 5.17778 27.8335 6.02943L23.5481 22.875H60.6765L56.5419 6.00711C56.138 5.15198 56.0797 4.17399 56.379 3.27692C56.6784 2.37985 57.3124 1.63289 58.1489 1.19169L58.5506 0.990813C58.9606 0.779204 59.4092 0.652598 59.8693 0.618591C60.3295 0.584583 60.7918 0.643873 61.2284 0.792906C61.6651 0.941939 62.0672 1.17764 62.4105 1.48588C62.7539 1.79411 63.0314 2.16852 63.2265 2.58665L69.0017 22.8806H79.7597C81.9972 22.8806 83.8051 24.5657 83.8051 26.6303C83.8051 26.6303 81.9916 33.4377 79.7597 33.4377H75.4855L74.5704 50.2108H67.3556V54.9367C65.4451 56.1585 63.7452 57.6806 62.3226 59.4365V41.8466C62.3226 39.9606 60.6877 38.6326 59.0082 38.6326H58.891C57.2059 38.6326 55.61 39.9606 55.61 41.8466V65.0365ZM73.3038 27.9918H67.378V33.9176H73.3038V27.9918ZM11.2613 33.7446H17.8567V27.4673H11.2613V33.7446ZM25.4062 69.1433C27.1248 69.1433 28.5254 67.5642 28.5254 65.6112V41.456C28.5254 39.503 27.1248 37.9295 25.4062 37.9295H25.2779C23.5425 37.9295 22.1476 39.503 22.1476 41.456V65.6112C22.1476 67.5642 23.5425 69.1433 25.2779 69.1433H25.4062ZM42.3857 67.899C43.9704 67.899 45.2538 66.3868 45.2538 64.5231V41.6513C45.2538 39.7932 43.9649 38.281 42.3857 38.281H42.2686C40.6783 38.281 39.4005 39.7876 39.4005 41.6513V64.5231C39.4005 66.3868 40.6839 67.899 42.2686 67.899H42.3857Z" fill="#6A2823"/>
<path fill-rule="evenodd" clip-rule="evenodd" d="M79.0648 88.0616C87.349 88.0616 94.0648 81.3459 94.0648 73.0616C94.0648 64.7773 87.349 58.0616 79.0648 58.0616C70.7805 58.0616 64.0648 64.7773 64.0648 73.0616C64.0648 81.3459 70.7805 88.0616 79.0648 88.0616ZM79.0648 91.3949C89.19 91.3949 97.3981 83.1868 97.3981 73.0616C97.3981 62.9364 89.19 54.7283 79.0648 54.7283C68.9396 54.7283 60.7314 62.9364 60.7314 73.0616C60.7314 83.1868 68.9396 91.3949 79.0648 91.3949Z" fill="#6A2823"/>
<path fill-rule="evenodd" clip-rule="evenodd" d="M88.2244 71.1728H80.7873V64.1135H77.317V71.1728H69.8984V74.4839H77.317V82.0098H80.7873V74.4839H88.2244V71.1728Z" fill="#6A2823"/>
</svg>
