<svg width="92" height="68" viewBox="0 0 92 68" fill="none" xmlns="http://www.w3.org/2000/svg">
<path d="M88.1898 46.9143V9.60686C88.1898 4.87105 84.393 0.997803 79.7517 0.997803H40.3741C35.7328 0.997803 31.9361 4.87256 31.9361 9.60686H21.2479C17.6357 9.60686 14.7795 9.60686 12.7273 12.04C10.7967 14.3292 10.4187 18.1424 10.4187 23.9568C10.4187 27.1145 9.06261 28.5711 7.18448 30.5887C5.05435 32.8749 2.40217 35.7251 2.40217 41.1764V47.3178C1.97437 47.5716 1.61988 47.9322 1.37347 48.3643C1.12705 48.7964 0.997179 49.2851 0.996582 49.7825V52.6522C0.996582 54.2303 2.26416 55.5218 3.80927 55.5218H6.73446C6.66344 55.9972 6.62584 56.4769 6.62195 56.9574C6.62195 62.5048 11.0307 67.0021 16.4671 67.0021C21.9004 67.0021 26.3122 62.5048 26.3122 56.9589C26.3122 56.4699 26.2672 55.9929 26.2012 55.5233H37.563V56.9589C37.563 58.5355 38.8305 59.8271 40.3756 59.8271H51.6264C53.173 59.8271 54.4391 58.5355 54.4391 56.9589V55.5233H64.3967C64.3257 55.9987 64.2881 56.4784 64.2842 56.9589C64.2842 62.5048 68.693 67.0021 74.1293 67.0021C79.5627 67.0021 83.9745 62.5048 83.9745 56.9589C83.9745 56.4699 83.9295 55.9929 83.8635 55.5233H88.1943C89.7409 55.5233 91.0069 54.2318 91.0069 52.6537V49.784C91.0024 48.2074 89.7364 46.9143 88.1898 46.9143ZM79.7517 42.609H40.3741C38.0475 42.609 36.1544 40.6769 36.1544 38.3037V32.5644H38.9671V38.3037C38.9642 38.6804 39.1107 39.0429 39.3744 39.3119C39.638 39.5809 39.9975 39.7346 40.3741 39.7393H79.7517C80.1284 39.7346 80.4878 39.5809 80.7515 39.3119C81.0152 39.0429 81.1616 38.6804 81.1588 38.3037V32.5644H83.9715V38.3037C83.9715 40.6769 82.0784 42.609 79.7517 42.609ZM47.7606 24.6003V25.8544H44.6434V28.3386H48.1296V29.6077H43.1328V21.1486H47.9451V22.4177H44.6434V24.6018H47.7606V24.6003ZM41.7812 12.4765C41.4043 12.4726 41.0444 12.3192 40.7806 12.05C40.5167 11.7808 40.3705 11.4179 40.3741 11.041C40.3741 10.2474 41.0042 9.60536 41.7812 9.60536C42.5598 9.60536 43.1883 10.2474 43.1883 11.041C43.1915 11.4177 43.0452 11.7804 42.7815 12.0495C42.5177 12.3186 42.158 12.4722 41.7812 12.4765ZM43.1868 36.8696C43.1886 37.0562 43.1536 37.2413 43.0839 37.4143C43.0141 37.5873 42.911 37.7449 42.7803 37.8781C42.6496 38.0113 42.494 38.1174 42.3224 38.1904C42.1507 38.2635 41.9663 38.302 41.7797 38.3037C41.0027 38.3037 40.3726 37.6617 40.3726 36.8696C40.3726 36.0776 41.0027 35.4355 41.7797 35.4355C42.5583 35.4355 43.1868 36.0776 43.1868 36.8696ZM54.3641 28.3131V29.6077H49.4542V21.1486H50.9633V28.3131H54.3641ZM55.5011 29.6077V21.1486H57.0147V29.6077H55.5011ZM57.9568 21.1486H59.6039L60.732 24.9904C61.0515 26.0539 61.323 27.047 61.542 28.0761H61.5675C61.7865 27.0725 62.0836 26.0449 62.4166 25.0144L63.6197 21.1486H65.2263L62.3671 29.6077H60.633L57.9568 21.1486ZM70.7481 24.6003V25.8544H67.6279V28.3386H71.1141V29.6077H66.1173V21.1486H70.9326V22.4177H67.6279V24.6018H70.7481V24.6003ZM76.939 11.0425C76.939 10.2489 77.5691 9.60686 78.3461 9.60686C79.1247 9.60686 79.7532 10.2489 79.7532 11.0425C79.7568 11.4194 79.6106 11.7823 79.3468 12.0515C79.0829 12.3207 78.723 12.4741 78.3461 12.478C77.9695 12.4733 77.61 12.3196 77.3463 12.0506C77.0827 11.7816 76.9362 11.4191 76.939 11.0425ZM79.7517 36.8696C79.7535 37.0562 79.7185 37.2413 79.6488 37.4143C79.579 37.5873 79.4759 37.7449 79.3452 37.8781C79.2145 38.0113 79.0589 38.1174 78.8872 38.1904C78.7156 38.2635 78.5312 38.302 78.3446 38.3037C77.5676 38.3037 76.9375 37.6617 76.9375 36.8696C76.9375 36.0776 77.5676 35.4355 78.3446 35.4355C79.1232 35.4355 79.7517 36.0776 79.7517 36.8696ZM77.278 21.7652C77.7311 22.1537 77.9906 22.7417 77.9906 23.4588C77.9906 24.5508 77.269 25.2934 76.4935 25.5784V25.6174C77.0845 25.8424 77.4386 26.4335 77.6471 27.2465C77.9051 28.3011 78.1241 29.2791 78.2996 29.6077H76.7395C76.618 29.3556 76.42 28.6671 76.1875 27.6125C75.955 26.5085 75.5619 26.1559 74.7009 26.1304H73.9403V29.6077H72.4417V21.2626C73.1972 21.1414 73.9613 21.0822 74.7264 21.0856C75.9145 21.0856 76.7245 21.2881 77.278 21.7652ZM82.6259 26.0434V29.6077H81.1168V26.0794L78.5036 21.1471H80.2197L81.2143 23.3178C81.4963 23.9448 81.7093 24.4233 81.9298 25.0009H81.9538C82.1609 24.4623 82.3934 23.9343 82.6769 23.3178L83.67 21.1471H85.3786L82.6259 26.0434ZM36.1559 9.60686C36.1559 7.23221 38.049 5.30158 40.3756 5.30158H79.7517C82.0784 5.30158 83.9715 7.23221 83.9715 9.60686V18.2159H81.1588V9.60686C81.162 9.23007 81.0157 8.86738 80.7519 8.59828C80.4882 8.32918 80.1285 8.17562 79.7517 8.17127H40.3741C39.9975 8.17602 39.638 8.3297 39.3744 8.59871C39.1107 8.86772 38.9642 9.23019 38.9671 9.60686V18.2159H36.1544V9.60686H36.1559ZM34.7488 21.2626C35.5447 21.1383 36.3494 21.0791 37.1549 21.0856C38.7 21.0856 39.7696 21.4126 40.5317 22.0637C41.3297 22.7297 41.8202 23.7333 41.8202 25.1779C41.8202 26.6825 41.3162 27.812 40.5317 28.5411C39.7096 29.3061 38.3955 29.6962 36.7874 29.6962C35.9024 29.6962 35.2408 29.6452 34.7488 29.5822V21.2626ZM5.21636 41.1749C5.21636 32.5644 13.2329 32.5644 13.2329 23.9553C13.2329 12.4765 14.9025 12.4765 21.2494 12.4765H31.9376V46.9143H5.21636V41.1749ZM7.58351 52.6537H3.80927V49.784H9.58464C8.75959 50.606 8.08454 51.5796 7.58351 52.6537ZM17.8352 62.5063C17.7407 61.8072 17.1781 61.2627 16.4671 61.2627C15.759 61.2627 15.1935 61.8072 15.099 62.5063C14.0817 62.2486 13.158 61.7082 12.4348 60.9477C12.7075 60.7375 12.8959 60.4366 12.9658 60.0995C13.0357 59.7624 12.9825 59.4113 12.8159 59.1101C12.6489 58.8168 12.3802 58.5948 12.0607 58.4862C11.7411 58.3775 11.3929 58.3898 11.0817 58.5205C10.9422 58.021 10.8432 57.502 10.8432 56.9574C10.8432 56.4129 10.9407 55.8939 11.0802 55.3943C11.3916 55.5261 11.7406 55.5386 12.0607 55.4296C12.3808 55.3207 12.6496 55.0977 12.8159 54.8033C12.9821 54.5022 13.035 54.1515 12.9651 53.8147C12.8953 53.4779 12.7071 53.1773 12.4348 52.9672C13.1584 52.2068 14.0818 51.6661 15.099 51.4071C15.1935 52.1076 15.756 52.6507 16.4671 52.6507C17.1766 52.6507 17.7407 52.1076 17.8352 51.4071C18.8523 51.6654 19.7758 52.2057 20.4994 52.9657C20.2269 53.1761 20.0388 53.4771 19.9692 53.8142C19.8996 54.1513 19.953 54.5022 20.1198 54.8033C20.2863 55.0971 20.5549 55.3195 20.8747 55.4282C21.1944 55.5368 21.5429 55.5243 21.8539 55.3928C21.9934 55.8939 22.091 56.4114 22.091 56.9574C22.091 57.502 21.9934 58.018 21.8539 58.519C21.5428 58.3874 21.194 58.3749 20.8742 58.4839C20.5543 58.5929 20.2858 58.8158 20.1198 59.1101C19.953 59.4112 19.8996 59.7621 19.9692 60.0992C20.0388 60.4363 20.2269 60.7373 20.4994 60.9477C19.7749 61.7066 18.8517 62.2467 17.8352 62.5063ZM51.2739 55.5233H40.7267C39.7591 55.5233 38.9686 54.8783 38.9686 54.0877C38.9686 53.3002 39.7591 52.6537 40.7267 52.6537H51.2739C52.2414 52.6537 53.032 53.3002 53.032 54.0877C53.032 54.8783 52.2399 55.5233 51.2739 55.5233ZM65.2428 52.6537H54.0445C53.8036 52.2224 53.4529 51.8625 53.0279 51.6106C52.6029 51.3587 52.1189 51.2238 51.6249 51.2196H40.3741C39.3421 51.2196 38.445 51.8016 37.956 52.6537H25.3507C24.8555 51.5872 24.1778 50.6156 23.348 49.7825H67.2439C66.4203 50.606 65.7438 51.5796 65.2428 52.6537ZM75.4944 62.5063C75.3999 61.8072 74.8374 61.2627 74.1263 61.2627C73.4183 61.2627 72.8543 61.8072 72.7583 62.5063C71.7418 62.2475 70.8189 61.7073 70.0956 60.9477C70.368 60.7373 70.5561 60.4363 70.6257 60.0992C70.6953 59.7621 70.6419 59.4112 70.4751 59.1101C70.3081 58.8168 70.0395 58.5948 69.7199 58.4862C69.4004 58.3775 69.0521 58.3898 68.741 58.5205C68.6 58.0225 68.501 57.5035 68.501 56.9589C68.501 56.4144 68.6 55.8954 68.7395 55.3958C69.0507 55.5275 69.3994 55.54 69.7193 55.431C70.0391 55.322 70.3076 55.0991 70.4736 54.8048C70.6406 54.504 70.6942 54.1533 70.6245 53.8163C70.5549 53.4794 70.3667 53.1786 70.0941 52.9687C70.8177 52.2092 71.7404 51.6686 72.7568 51.4086C72.8528 52.1091 73.4153 52.6522 74.1248 52.6522C74.8344 52.6522 75.3984 52.1091 75.4929 51.4086C76.51 51.6669 77.4335 52.2072 78.1571 52.9672C77.8852 53.178 77.6975 53.4789 77.6279 53.8159C77.5583 54.1528 77.6114 54.5035 77.7776 54.8048C77.9443 55.0983 78.213 55.3205 78.5326 55.4292C78.8522 55.5378 79.2006 55.5254 79.5117 55.3943C79.6512 55.8954 79.7487 56.4129 79.7487 56.9589C79.7487 57.5035 79.6527 58.0195 79.5117 58.5205C79.2005 58.3889 78.8518 58.3764 78.5319 58.4854C78.2121 58.5944 77.9436 58.8173 77.7776 59.1116C77.6114 59.4128 77.5583 59.7635 77.6279 60.1005C77.6975 60.4374 77.8852 60.7384 78.1571 60.9492C77.4334 61.708 76.5106 62.2476 75.4944 62.5063ZM88.1898 52.6537H83.0099C82.5158 51.5875 81.8385 50.6162 81.0088 49.784H88.1898V52.6537Z" fill="#6A2823"/>
</svg>
