<svg width="100" height="100" viewBox="0 0 100 100" fill="none" xmlns="http://www.w3.org/2000/svg">
<g clip-path="url(#clip0_694_2128)">
<path d="M42.5403 12.1852C32.9142 8.63916 31.1495 15.4553 30.9739 16.9272H30.9572V17.1196C30.9488 17.2366 30.9404 17.3119 30.9404 17.3119H30.9572C31.9022 21.251 32.5964 23.0575 41.6873 22.5306C50.5858 22.0121 50.8618 19.2438 50.8618 19.2438C50.8618 19.2438 51.7316 15.5723 42.5403 12.1852ZM36.3599 14.46C36.3599 14.46 37.5976 12.6954 39.5295 15.0956C39.5212 15.0956 37.7732 16.8185 36.3599 14.46Z" fill="#6A2823"/>
<path d="M19.9749 87.6392C19.0633 88.0657 16.8554 89.0275 13.5017 90.1398C7.61396 92.0884 14.8231 92.0801 14.8231 92.0801C14.8231 92.0801 16.9474 91.9128 20.0335 90.9594L19.9749 87.6392Z" fill="#6A2823"/>
<path d="M29.5016 32.6167L29.3678 40.336C33.2902 40.6622 36.5686 41.7912 37.4886 44.5177C39.9641 51.8523 27.0094 52.605 16.5051 56.0925C5.56588 59.7222 6.76183 73.3962 19.7668 75.8717L19.658 69.6578C19.5242 69.6159 19.3904 69.5658 19.265 69.5239C17.9268 68.9971 16.6891 68.052 16.3294 67.1237C15.9782 65.1583 17.6508 62.3231 23.1539 61.0686C33.148 58.7771 41.5866 57.2968 44.0956 52.4712C50.4601 40.2189 39.1947 32.784 29.5016 32.6167Z" fill="#6A2823"/>
<path d="M32.6713 13.1721C22.6186 13.791 4.14408 16.1662 0.865663 25.8676C-3.32435 38.2871 8.74389 42.0171 14.6567 41.2728C15.9531 41.1139 17.4166 41.0136 19.1311 40.6957L19.0057 33.5953C9.61368 33.9633 6.4858 31.1114 10.0151 27.1974C14.4895 22.2379 25.437 21.042 32.3786 20.7994" fill="#6A2823"/>
<path d="M29.6529 71.138C29.3602 71.1129 29.0926 71.0878 28.8166 71.0627L28.7162 76.5909C31.7354 77.2683 30.6481 78.9326 28.7162 81.3914C28.6911 81.4249 28.6577 81.4583 28.6326 81.4918L28.5322 86.9363C29.2515 86.4596 29.9707 85.9494 30.69 85.3807C33.1739 83.407 33.7426 82.579 35.2563 80.7307C37.5897 77.193 37.4893 71.782 29.6529 71.138Z" fill="#6A2823"/>
<path d="M20.3193 23.8525L20.9717 52.8481C23.1629 52.2794 25.8809 51.5434 27.562 51.0834L28.2059 22.6147C26.2824 22.7987 23.213 23.1667 20.3193 23.8525Z" fill="#6A2823"/>
<path d="M25.0871 62.399C25.0871 62.399 22.5112 62.9175 21.2148 63.4444L21.9675 96.7889C21.9675 98.5702 22.9962 100 24.2507 100C25.5052 100 26.5339 98.8295 26.5339 96.7889L27.3201 61.8721L25.0871 62.399Z" fill="#6A2823"/>
<path d="M24.1247 0C21.6742 0 20.0518 2.00719 20.0518 4.466V9.24145L20.1438 13.2642C21.5572 12.9548 24.225 12.4697 28.5154 12.0181L28.574 9.24981V4.47437C28.5823 2.00719 26.5751 0 24.1247 0Z" fill="#6A2823"/>
<g clip-path="url(#clip1_694_2128)">
<path d="M74.7962 53.0239C79.5256 53.0239 81.7176 56.6106 82.1776 61.7066C82.2856 62.9252 82.1762 64.7026 82.0176 66.7612C81.4869 73.5986 80.8762 81.9999 85.4269 81.9999C89.2802 81.9999 91.2549 74.6132 92.3989 66.1919C93.5002 57.8559 92.3309 53.7079 92.9082 50.0052C94.0029 42.9919 100.124 36.7039 98.2336 27.7612C97.1856 22.7999 94.4522 20.4679 91.7482 19.4852C85.5162 17.2172 81.4896 21.5879 74.7962 21.5879C68.1042 21.5879 64.0802 17.2172 57.8456 19.4852C55.1429 20.4666 52.4082 22.7999 51.3576 27.7612C49.4709 36.7039 55.5909 42.9906 56.6896 50.0052C57.2616 53.7066 56.0989 57.8559 57.1989 66.1919C58.3402 74.6132 60.3189 81.9999 64.1682 81.9999C68.7162 81.9999 68.1096 73.5986 67.5789 66.7612C67.4242 64.7012 67.3069 62.9239 67.4176 61.7052C67.8762 56.6106 70.1002 53.0239 74.7962 53.0239Z" fill="#6A2823"/>
</g>
</g>
<defs>
<clipPath id="clip0_694_2128">
<rect width="100" height="100" fill="white"/>
</clipPath>
<clipPath id="clip1_694_2128">
<rect width="50" height="65" fill="white" transform="translate(50 18.3333)"/>
</clipPath>
</defs>
</svg>
