<svg width="197" height="60" fill="none" xmlns="http://www.w3.org/2000/svg"><path fill-rule="evenodd" clip-rule="evenodd" d="M72.338 43.41c.228-.14.371-.288.425-.448l3.303-8.911c0-.178-.087-.314-.262-.408-.283 0-.456.085-.522.25l-1.325 3.66c-.038.101-.106.155-.212.155s-.181-.054-.23-.152l-1.44-2.953c-.156-.324-.29-.544-.4-.665a.955.955 0 00-.705-.295c-.795 0-1.189.567-1.189 1.7l2.764 5.424c.081.164.124.31.124.429 0 .147-.061.224-.181.224-.028 0-.15-.044-.364-.138-.22-.095-.4-.14-.549-.14-.312 0-.562.143-.745.428-.156.243-.234.53-.234.865 0 .788.377 1.181 1.133 1.181.175 0 .377-.068.609-.207zm-5.651-6.607c-.268-.101-.95-.155-2.044-.155v-1.569c0-.494.303-.739.909-.739h.827c.39 0 .582-.122.582-.36 0-.217-.113-.32-.343-.32h-3.152c-.322 0-.595.093-.82.284a.935.935 0 00-.341.756v7.61c0 .5.33.874.98 1.126.482.186 1.02.278 1.618.278.773 0 1.395-.184 1.866-.555.514-.409.773-.995.773-1.754v-2.932c0-.89-.288-1.448-.855-1.67zm.108 4.602c0 .325-.103.611-.303.864a.956.956 0 01-.78.374.965.965 0 01-.794-.39c-.185-.23-.275-.514-.275-.848v-4.047h1.388c.51 0 .764.31.764.932v3.115zm55.928 2.211h4.518c.23 0 .344-.115.344-.355 0-.253-.114-.38-.344-.38h-2.193c-.331 0-.61-.09-.834-.272-.222-.178-.334-.429-.334-.749v-1.812c0-.479.064-.774.184-.884.117-.11.568-.168 1.346-.177h1.179c.233 0 .347-.122.347-.364 0-.23-.114-.346-.347-.346h-1.193c-.739-.009-1.179-.089-1.315-.23-.131-.143-.201-.443-.201-.914v-1.72c0-.467.064-.757.184-.864.117-.112.568-.176 1.346-.195h1.179c.233 0 .347-.121.347-.363 0-.221-.114-.332-.347-.332h-3.866c-.321 0-.602.093-.831.279-.23.183-.345.437-.345.762v7.857c0 .33.115.585.339.775.226.19.503.284.837.284zm-10.739-9.626c0 .243.111.364.331.364 1.052 0 1.646.06 1.784.181.137.118.207.413.207.874v7.148c0 .33.115.585.34.775.225.19.499.284.821.284.333 0 .612-.095.835-.284.227-.19.341-.446.341-.775V35.41c0-.469.067-.767.198-.884.132-.111.724-.171 1.777-.171.23 0 .344-.121.344-.363 0-.221-.114-.332-.344-.332h-6.303c-.22 0-.331.11-.331.332zm-23.033 9.348c.22-.187.33-.443.33-.78v-7.149c0-.5.228-.819.69-.956.212-.069.645-.1 1.299-.1.23 0 .345-.12.345-.362 0-.221-.115-.332-.345-.332h-3.15c-.322 0-.597.093-.829.279-.23.183-.346.437-.346.762v7.857c0 .33.113.585.34.775.225.19.505.284.836.284.33 0 .607-.092.83-.278zm11.545-1.418l-3.094-8.08c-.112-.286-.235-.432-.373-.432-.139 0-.263.146-.373.432l-3.648 9.373c0 .267.081.403.249.403.294 0 .474-.078.541-.246l.575-1.56a.523.523 0 01.526-.364h2.696c.24 0 .435.183.585.544.155.36.305.715.451 1.07.229.37.551.556.967.556.672 0 1.01-.355 1.01-1.07 0-.225-.04-.432-.112-.627zm-3.317-1.168h-1.877c-.25 0-.375-.089-.375-.263 0-.122.172-.618.51-1.49.224-.527.44-1.059.651-1.588.043-.127.104-.193.181-.193.063 0 .118.066.164.193.2.53.41 1.061.622 1.587.33.873.5 1.369.5 1.491 0 .174-.126.263-.376.263zm11.313-6.788a4.318 4.318 0 00-1.602-.305c-1.751 0-2.625.77-2.625 2.306v6.652c0 .175-.121.263-.361.263h-.427c-.164.025-.25.133-.25.31 0 .284.231.426.692.426.711 0 1.064-.346 1.064-1.043v-6.619c0-.928.358-1.393 1.077-1.393.736 0 1.107.465 1.107 1.393v6.603c0 .33.108.585.324.775.218.19.485.284.807.284.334 0 .617-.095.851-.284.235-.19.353-.446.353-.775v-7.505c0-.467-.339-.828-1.01-1.088zm-29.1 9.399l.975-2.99c.093-.308.217-.458.373-.458.16 0 .297.163.417.488l.804 2.255c.092.279.255.506.49.686.235.183.502.272.797.272.682 0 1.025-.361 1.025-1.085 0-.251-.03-.458-.096-.623-1.004-2.617-1.508-3.942-1.508-3.982 0-.027.026-.106.07-.248a267.156 267.156 0 001.188-3.687.406.406 0 00-.082-.207c-.056-.083-.104-.125-.149-.125-.312 0-.493.083-.543.253l-.76 2.361c-.102.308-.229.458-.387.458-.157 0-.29-.16-.401-.488l-.592-1.638c-.231-.632-.659-.946-1.284-.946-.683 0-1.022.35-1.022 1.056 0 .25.03.464.096.639.836 2.273 1.258 3.431 1.258 3.478 0 .04-.485 1.502-1.455 4.393-.026.067-.01.148.043.243.054.1.121.148.192.148.305 0 .488-.083.551-.253zm77.006.267c.532 0 .924-.334 1.171-1.004l1.332-3.572c.106-.269.259-.404.471-.404.268 0 .399.135.399.404v4.13c0 .296.123.447.369.447.253 0 .377-.151.377-.447v-8.18c0-.895-.359-1.345-1.074-1.345-.509 0-.887.332-1.148 1l-1.368 3.562c-.103.26-.258.39-.469.39-.251 0-.375-.13-.375-.39v-4.132c0-.285-.123-.43-.373-.43-.251 0-.374.145-.374.43v8.19c0 .903.356 1.352 1.062 1.352zm6.767-.162c.055.1.118.148.191.148.304 0 .486-.083.551-.253l.974-2.99c.092-.308.217-.458.376-.458.153 0 .294.163.412.488l.808 2.255c.091.279.254.506.491.686.234.183.501.272.798.272.68 0 1.024-.361 1.024-1.085a1.86 1.86 0 00-.094-.623c-1.006-2.617-1.512-3.942-1.512-3.982 0-.027.026-.106.071-.248a284.252 284.252 0 001.188-3.687.358.358 0 00-.085-.207c-.052-.083-.102-.125-.149-.125-.315 0-.49.083-.537.253l-.765 2.361c-.098.308-.226.458-.381.458-.16 0-.292-.16-.404-.488l-.594-1.638c-.23-.632-.661-.946-1.286-.946-.682 0-1.022.35-1.022 1.056 0 .25.034.464.098.639.836 2.273 1.257 3.431 1.257 3.478 0 .04-.486 1.502-1.449 4.393-.031.067-.018.148.039.243zm-16.035.148c.322 0 .599-.095.826-.284.226-.19.338-.446.338-.775v-3.143c0-.247.141-.374.415-.374.203 0 .348.127.442.374l1.229 3.27c.253.657.644.988 1.188.988.728 0 1.09-.577 1.09-1.724-.399-1.004-.81-2.004-1.213-3.005-.684-1.702-1.021-2.631-1.021-2.782 0-.222.122-.604.373-1.148.249-.543.372-.9.372-1.075 0-.186-.08-.279-.251-.279a3.06 3.06 0 00-.329.012c-.093.039-.159.119-.209.24l-1.437 3.935c-.09.26-.198.39-.32.39-.217 0-.329-.112-.329-.337V34.7c0-.325-.112-.579-.33-.762-.222-.186-.498-.279-.834-.279a1.29 1.29 0 00-.828.279c-.229.183-.341.437-.341.762v7.857c0 .33.11.585.335.775.227.19.506.284.834.284zm-12.678-9.802a4.526 4.526 0 00-1.589-.28c-.719 0-1.322.189-1.812.57-.523.416-.785.98-.785 1.685v6.77c0 .328.111.584.332.77.23.193.506.288.83.288.331 0 .606-.095.834-.285.225-.19.334-.445.334-.774V40.74c.628 0 1.2-.071 1.721-.21.765-.225 1.144-.57 1.144-1.03v-4.63c0-.453-.338-.804-1.009-1.056zm-1.327 4.769c0 .313-.101.597-.3.853-.203.255-.456.381-.759.381a.939.939 0 01-.779-.389 1.326 1.326 0 01-.277-.845v-2.794c0-.334.097-.623.288-.869a.927.927 0 01.768-.37.92.92 0 01.769.37c.193.246.29.535.29.869v2.794zm7.614 5.09c.598 0 1.132-.092 1.613-.277.665-.253.995-.628.995-1.127v-1.866c0-.314-.118-.577-.347-.783a1.198 1.198 0 00-.818-.313c-.333 0-.609.105-.833.325-.223.218-.341.544-.341.98v.613c0 .439-.1.775-.315 1.017a.97.97 0 01-.753.358.934.934 0 01-.766-.376 1.322 1.322 0 01-.305-.86v-5.422c0-.325.1-.611.305-.862a.938.938 0 01.766-.38c.293 0 .546.122.753.365.215.242.315.59.315 1.049v.6c0 .452.118.807.341 1.053.224.247.5.372.833.372.34 0 .615-.125.835-.363.218-.244.33-.535.33-.882v-1.962c0-.468-.336-.832-1.006-1.09a4.252 4.252 0 00-1.602-.309c-.722 0-1.325.2-1.814.597-.535.437-.8 1.008-.8 1.715v5.519c0 .76.253 1.342.76 1.752.461.37 1.077.557 1.854.557zM76.334 10.06H74.14c-.33 0-.61-.09-.83-.267-.225-.178-.334-.43-.334-.755V7.23c0-.478.06-.773.181-.883.121-.11.57-.174 1.347-.183h1.178c.233 0 .347-.118.347-.361 0-.23-.114-.345-.347-.345H74.49c-.74-.009-1.178-.086-1.311-.228-.135-.143-.202-.45-.202-.914V2.594c0-.468.06-.757.181-.867.121-.11.57-.171 1.347-.191h1.178c.233 0 .347-.119.347-.362 0-.224-.114-.334-.347-.334h-3.867c-.322 0-.598.092-.83.278-.228.187-.345.441-.345.764v7.86c0 .325.114.582.339.771.227.19.506.284.836.284h4.52c.23 0 .344-.114.344-.355 0-.254-.115-.381-.346-.381zm-12.856.737h3.485c.313 0 .47.186.47.556v.393c0 .314.122.47.373.47.25 0 .372-.14.372-.429v-1.28c0-.194-.06-.322-.18-.376-.074-.029-.221-.043-.443-.043V1.271c0-.289-.126-.431-.379-.431-.243 0-.366.142-.366.431v8.817h-1.002c-.322 0-.594-.089-.823-.277-.233-.185-.342-.44-.342-.764V1.882c0-.323-.113-.577-.335-.764-.22-.186-.497-.278-.83-.278-.32 0-.595.092-.827.278-.232.187-.346.441-.346.764v7.86c0 .325.114.582.338.771.224.19.505.284.835.284zm16.894 0c.33 0 .61-.094.836-.284.225-.19.34-.446.34-.771V6.239c0-.16.022-.246.066-.267h1.79c.091 0 .171.01.243.028.026.094.042.472.042 1.141a75.28 75.28 0 010 1.917v1.31c0 .287.122.43.364.43.256 0 .383-.143.383-.43V1.271c0-.289-.127-.431-.383-.431-.242 0-.364.142-.364.431v2.836c-.009.585-.028.923-.055 1.018a.693.693 0 01-.24.041h-1.567a.551.551 0 01-.213-.041c-.037-.095-.06-.382-.066-.864V1.882c0-.331-.115-.59-.34-.773a1.306 1.306 0 00-.836-.27 1.23 1.23 0 00-.82.285.935.935 0 00-.341.758v7.86c0 .325.11.582.34.771.224.19.5.284.821.284zm7.014-9.261c1.05 0 1.646.062 1.784.18.138.121.204.414.204.878v7.148c0 .325.115.582.34.771.226.19.499.284.82.284.335 0 .613-.094.84-.284.224-.19.337-.446.337-.771V2.594c0-.476.065-.77.198-.884.137-.119.727-.174 1.777-.174.232 0 .348-.119.348-.362 0-.224-.116-.334-.348-.334h-6.3c-.222 0-.331.11-.331.334 0 .243.108.362.331.362zm13.301-.542a4.571 4.571 0 00-1.589-.281c-.721 0-1.322.192-1.813.574-.524.416-.785.979-.785 1.685v6.77c0 .322.111.578.34.77.222.19.5.285.821.285.33 0 .61-.095.836-.284.226-.19.337-.447.337-.772V7.917c.63 0 1.201-.068 1.714-.203.764-.226 1.146-.571 1.146-1.036V2.053c0-.455-.333-.81-1.007-1.059zM99.359 5.76c0 .317-.102.604-.302.858a.913.913 0 01-.752.384.95.95 0 01-.786-.39 1.34 1.34 0 01-.273-.852V2.972c0-.337.097-.627.287-.872a.927.927 0 01.772-.37.92.92 0 01.766.37c.192.245.288.535.288.872V5.76zM75.275 49.45a4.397 4.397 0 00-1.602-.306c-.719 0-1.323.2-1.81.602-.537.435-.8 1.008-.8 1.711v5.517c0 .76.252 1.344.76 1.753.457.373 1.077.56 1.85.56.599 0 1.141-.092 1.618-.279.662-.252.995-.628.995-1.127v-1.864a1.01 1.01 0 00-.352-.787 1.174 1.174 0 00-.817-.31 1.16 1.16 0 00-.83.322c-.226.222-.337.55-.337.984v.612c0 .435-.106.773-.316 1.014-.21.243-.463.364-.756.364a.947.947 0 01-.768-.376 1.34 1.34 0 01-.301-.866v-5.42c0-.328.099-.614.3-.867a.94.94 0 01.77-.373c.292 0 .544.122.755.364.21.243.316.59.316 1.046v.6c0 .458.11.81.338 1.055.224.246.501.369.83.369.338 0 .62-.12.837-.36.22-.241.33-.54.33-.877v-1.969c0-.468-.335-.832-1.01-1.093zm8.826.128a4.35 4.35 0 00-1.602-.306c-1.75 0-2.625.768-2.625 2.305v6.65c0 .18-.12.264-.359.264h-.43c-.166.03-.25.133-.25.314 0 .287.233.426.692.426.71 0 1.064-.35 1.064-1.045v-6.618c0-.928.359-1.392 1.078-1.392.736 0 1.107.463 1.107 1.392v6.603c0 .326.107.584.324.776.216.186.484.284.81.284.329 0 .613-.098.848-.284a.952.952 0 00.352-.776v-7.506c0-.468-.337-.83-1.009-1.087zm-15.768-.319c-.286 0-.46.08-.523.25l-1.327 3.657c-.037.104-.109.154-.213.154-.106 0-.178-.05-.226-.15L64.6 50.217c-.157-.326-.292-.548-.4-.668a.967.967 0 00-.708-.29c-.79 0-1.187.564-1.187 1.694l2.763 5.423a.991.991 0 01.124.435c0 .148-.06.22-.176.22-.03 0-.152-.045-.368-.14-.216-.089-.4-.14-.546-.14-.315 0-.56.146-.747.436-.154.243-.235.53-.235.856 0 .794.378 1.188 1.134 1.188.174 0 .375-.073.607-.21.232-.14.373-.288.427-.445l3.304-8.916c0-.173-.086-.31-.259-.401zm25.405 0c-.285 0-.461.08-.523.25l-1.327 3.657c-.038.104-.108.154-.214.154-.1 0-.177-.05-.224-.15l-1.444-2.953c-.157-.326-.29-.548-.401-.668a.963.963 0 00-.706-.29c-.792 0-1.188.564-1.188 1.694l2.763 5.423c.085.172.124.314.124.435 0 .148-.06.22-.178.22-.029 0-.15-.045-.367-.14-.216-.089-.4-.14-.546-.14-.313 0-.563.146-.747.436-.157.243-.235.53-.235.856 0 .794.377 1.188 1.134 1.188.175 0 .377-.073.608-.21.23-.14.373-.288.428-.445l3.303-8.916c0-.173-.086-.31-.26-.401zm7.236.013h-3.152c-.322 0-.598.094-.83.278-.23.19-.344.443-.344.765v7.856c0 .326.112.584.338.776.224.186.505.284.836.284.329 0 .608-.092.83-.278.218-.187.33-.447.33-.782v-7.148c0-.498.232-.82.692-.96.21-.062.644-.097 1.3-.097.228 0 .345-.122.345-.361 0-.222-.117-.333-.345-.333zM63.466 27.854c.331 0 .61-.098.836-.283.227-.193.34-.45.34-.775v-7.148c0-.326.11-.582.335-.772.225-.192.498-.287.817-.287h.62c.255 0 .381.16.381.473v8.36c0 .287.124.432.367.432.253 0 .38-.145.38-.432V18.59c0-.168-.078-.325-.242-.473-.16-.145-.324-.221-.49-.221h-3.344a1.27 1.27 0 00-.83.277c-.22.187-.331.44-.331.766v7.858c0 .325.114.582.34.775.226.185.499.283.821.283zm60.159.014c.533 0 .923-.336 1.17-1.004l1.338-3.571c.1-.27.255-.406.467-.406.267 0 .403.136.403.406v4.13c0 .298.119.445.364.445.252 0 .378-.147.378-.446v-8.177c0-.903-.358-1.35-1.076-1.35-.509 0-.89.333-1.145 1.002l-1.369 3.56c-.102.26-.258.39-.469.39-.251 0-.376-.13-.376-.39v-4.135c0-.282-.125-.427-.373-.427s-.375.145-.375.427v8.193c0 .901.357 1.353 1.063 1.353zm-6.363.038c.599 0 1.137-.09 1.614-.277.666-.252.997-.627.997-1.127V24.64c0-.317-.118-.58-.348-.786a1.203 1.203 0 00-.819-.31 1.15 1.15 0 00-.832.321c-.224.22-.335.547-.335.982v.612c0 .437-.105.774-.316 1.016-.211.24-.463.364-.758.364a.939.939 0 01-.766-.378 1.335 1.335 0 01-.305-.864v-5.42c0-.326.102-.613.305-.865a.936.936 0 01.766-.374c.295 0 .547.118.758.364.211.239.316.59.316 1.046v.6c0 .455.111.81.335 1.055.224.246.5.367.832.367.336 0 .615-.121.838-.36.22-.242.329-.536.329-.879v-1.965c0-.467-.337-.832-1.009-1.092a4.334 4.334 0 00-1.602-.305c-.719 0-1.324.201-1.811.598-.535.434-.803 1.008-.803 1.71v5.52c0 .76.256 1.346.761 1.753.46.373 1.076.556 1.853.556zm-5.275-3.266a1 1 0 00-.348-.786 1.195 1.195 0 00-.819-.31c-.327 0-.604.106-.83.321-.226.22-.337.547-.337.982v.612c0 .437-.105.774-.315 1.016-.211.24-.462.364-.754.364a.94.94 0 01-.77-.378 1.327 1.327 0 01-.302-.864v-5.42c0-.326.098-.613.302-.865a.939.939 0 01.77-.374c.292 0 .543.118.754.364.21.239.315.59.315 1.046v.6c0 .455.111.81.337 1.055.226.246.503.367.83.367.34 0 .621-.121.84-.36a1.26 1.26 0 00.327-.879v-1.965c0-.467-.333-.832-1.008-1.092a4.342 4.342 0 00-1.602-.305c-.719 0-1.322.201-1.81.598-.536.434-.801 1.008-.801 1.71v5.52c0 .76.254 1.346.758 1.753.46.373 1.08.556 1.853.556.598 0 1.14-.09 1.617-.277.663-.252.993-.627.993-1.127V24.64zm75.363 3.214c.247 0 .371-.145.371-.432v-9.1c0-.282-.124-.427-.371-.427-.25 0-.373.145-.373.427v9.1c0 .287.123.432.373.432zm-17.911-6.874c-.5-.138-1.07-.206-1.714-.206v-1.836c0-.333-.113-.592-.337-.771a1.31 1.31 0 00-.84-.273c-.319 0-.593.096-.819.284a.947.947 0 00-.338.76v6.784c0 .715.264 1.274.787 1.683.482.381 1.081.573 1.809.573.551 0 1.087-.095 1.593-.278.669-.25 1.006-.603 1.006-1.062v-4.623c0-.476-.382-.819-1.147-1.034zm-1.186 4.742c0 .325-.094.616-.29.864a.918.918 0 01-.769.378.93.93 0 01-.78-.393c-.185-.23-.276-.515-.276-.849v-2.79c0-.325.097-.611.287-.864a.92.92 0 01.769-.379c.324 0 .577.128.769.38.196.252.29.538.29.863v2.79zm22.129 1.984c.053.1.124.148.194.148.303 0 .489-.085.55-.255l.977-2.99c.091-.302.215-.457.368-.457.162 0 .3.164.418.489l.806 2.253c.091.28.256.504.491.688.235.18.503.272.794.272.686 0 1.03-.365 1.03-1.089 0-.248-.035-.455-.097-.623-1.006-2.613-1.506-3.94-1.506-3.976 0-.029.02-.113.067-.25.795-2.443 1.189-3.667 1.189-3.688 0-.056-.03-.123-.082-.21-.059-.082-.106-.123-.157-.123-.308 0-.488.085-.538.25l-.756 2.366c-.103.304-.229.454-.388.454-.153 0-.291-.159-.4-.487l-.592-1.637c-.238-.633-.659-.947-1.288-.947-.68 0-1.021.355-1.021 1.057 0 .25.029.466.097.638.836 2.273 1.256 3.434 1.256 3.48 0 .036-.482 1.503-1.453 4.395-.026.062-.012.145.041.242zm-16.079.148c.329 0 .61-.098.835-.283.224-.193.336-.45.336-.775v-3.503c0-.163.025-.246.067-.264h1.786a.92.92 0 01.247.027c.03.092.044.473.044 1.141.009.474.009 1.111 0 1.916v1.31c0 .286.121.43.368.43.25 0 .379-.144.379-.43v-9.1c0-.283-.129-.428-.379-.428-.247 0-.368.145-.368.427v2.842c-.009.581-.026.922-.056 1.015a.702.702 0 01-.241.04h-1.565a.581.581 0 01-.215-.04c-.035-.093-.057-.382-.067-.864v-2.377c0-.333-.112-.592-.336-.771a1.297 1.297 0 00-.835-.273c-.322 0-.599.096-.823.284a.948.948 0 00-.339.76v7.858c0 .325.114.582.339.775.224.185.501.283.823.283zm10.815-6.874c-.497-.138-1.071-.206-1.715-.206v-1.836c0-.325-.112-.58-.329-.766a1.271 1.271 0 00-.833-.277 1.3 1.3 0 00-.827.277c-.232.187-.344.444-.344.766v6.784c0 .715.259 1.274.789 1.683.473.381 1.079.573 1.806.573.556 0 1.083-.095 1.589-.278.673-.25 1.009-.603 1.009-1.062v-4.623c0-.476-.38-.819-1.145-1.034zm-1.191 4.742c0 .334-.091.618-.274.849a.951.951 0 01-.788.393.906.906 0 01-.774-.393c-.188-.23-.274-.515-.274-.849v-2.79c0-.325.095-.611.289-.864a.911.911 0 01.759-.379c.32 0 .579.125.774.373.194.246.288.533.288.87v2.79zm-26.889 2.132c.709 0 1.059-.35 1.059-1.043v-6.622c0-.926.362-1.39 1.081-1.39.737 0 1.108.464 1.108 1.39v6.607c0 .325.106.582.324.775a1.2 1.2 0 00.81.283c.328 0 .61-.098.846-.283a.95.95 0 00.353-.775v-7.509c0-.465-.336-.827-1.012-1.087a4.37 4.37 0 00-1.598-.305c-1.749 0-2.625.768-2.625 2.306v6.65c0 .175-.122.264-.364.264h-.426c-.163.03-.25.132-.25.314 0 .283.232.425.694.425zm-58.399-9.682c-.228.187-.342.44-.342.766v7.858c0 .325.112.582.336.775.226.185.505.283.837.283h4.52c.227 0 .345-.117.345-.354 0-.259-.118-.385-.348-.385h-2.193c-.331 0-.607-.089-.83-.27-.223-.18-.334-.428-.334-.75v-1.81c0-.478.06-.777.181-.883.121-.11.568-.171 1.348-.18h1.177c.233 0 .349-.122.349-.365 0-.23-.116-.342-.349-.342h-1.193c-.741-.012-1.176-.086-1.312-.23-.134-.143-.201-.447-.201-.916v-1.72c0-.469.06-.756.181-.865.121-.113.568-.174 1.348-.195h1.177c.233 0 .349-.118.349-.361 0-.222-.116-.334-.345-.334h-3.87c-.324 0-.6.096-.831.278zm40.829 9.682c.33 0 .612-.098.833-.283.229-.193.34-.45.34-.775v-3.503c0-.163.022-.246.067-.264h1.785a.92.92 0 01.247.027c.029.092.044.473.044 1.141.009.474.009 1.111 0 1.916v1.31c0 .286.12.43.364.43.253 0 .383-.144.383-.43v-9.1c0-.283-.13-.428-.383-.428-.244 0-.364.145-.364.427v2.842c-.012.581-.03.922-.055 1.015a.716.716 0 01-.242.04h-1.566a.545.545 0 01-.213-.04c-.039-.093-.06-.382-.067-.864v-2.377c0-.333-.111-.592-.34-.771-.221-.18-.503-.273-.833-.273a1.25 1.25 0 00-.825.284.943.943 0 00-.338.76v7.858c0 .325.111.582.338.775.229.185.499.283.825.283zm-4.551-9.444c-.497-.409-1.106-.613-1.823-.613-.554 0-1.085.103-1.603.308-.681.269-1.022.635-1.022 1.096v7.329c0 .502.329.877.993 1.125a4.47 4.47 0 001.632.282c.773 0 1.387-.187 1.851-.56.506-.404.759-.99.759-1.752v-5.504c0-.704-.259-1.277-.787-1.712zm.04 7.218c0 .325-.101.612-.299.864a.97.97 0 01-.786.372.94.94 0 01-.764-.372 1.338 1.338 0 01-.306-.864v-5.496c0-.325.103-.612.306-.86a.933.933 0 01.764-.375c.323 0 .58.123.786.375.198.248.299.535.299.86v5.496zm-40.281-7.58a4.358 4.358 0 00-1.574-.278c-1.172 0-1.923.34-2.254 1.013-.507-.673-1.206-1.014-2.099-1.014-.573 0-1.12.09-1.646.264-.71.252-1.064.606-1.064 1.058v4.668c0 .55.505.914 1.512 1.088.47.085 1.183.127 2.137.127v1.821c0 .325.113.582.339.775.23.185.503.283.827.283.325 0 .602-.098.826-.283.23-.193.344-.45.344-.775v-1.821c2.44 0 3.66-.414 3.66-1.242v-4.626c0-.464-.337-.816-1.008-1.058zm-4.186 4.767c0 .326-.096.612-.288.864a.925.925 0 01-.772.378.915.915 0 01-.766-.378 1.371 1.371 0 01-.289-.864v-2.79c0-.327.095-.615.289-.865a.911.911 0 01.766-.377c.321 0 .58.124.772.37.192.248.288.535.288.873v2.79zm2.86 0c0 .326-.1.612-.292.864a.912.912 0 01-.76.378.945.945 0 01-.786-.393c-.185-.23-.276-.514-.276-.849v-2.79c0-.337.096-.624.29-.872a.93.93 0 01.772-.37c.315 0 .568.124.76.377.192.25.292.538.292.866v2.79zM82.604 18.41c-.496-.409-1.106-.613-1.826-.613-.55 0-1.085.103-1.599.308-.683.269-1.023.635-1.023 1.096v7.329c0 .502.332.877.992 1.125.488.19 1.033.282 1.63.282.778 0 1.394-.187 1.855-.56.504-.404.76-.99.76-1.752v-5.504c0-.704-.261-1.277-.789-1.712zm.042 7.218c0 .325-.103.612-.303.864a.96.96 0 01-.781.372.957.957 0 01-.771-.372 1.356 1.356 0 01-.3-.864v-5.496c0-.325.101-.612.3-.86a.95.95 0 01.77-.375c.321 0 .58.123.782.375.2.248.303.535.303.86v5.496zm-8.14-7.58a4.524 4.524 0 00-1.587-.278c-.72 0-1.323.19-1.812.567-.524.42-.787.982-.787 1.689v6.77c0 .324.114.581.34.77.225.19.5.287.822.287.328 0 .61-.098.835-.283.226-.193.34-.45.34-.775v-1.821a6.49 6.49 0 001.711-.209c.767-.222 1.148-.568 1.148-1.033v-4.626c0-.455-.337-.806-1.01-1.058zm-1.326 4.767c0 .314-.1.601-.301.858-.202.254-.454.384-.755.384a.932.932 0 01-.781-.393 1.327 1.327 0 01-.278-.849v-2.79c0-.337.097-.624.29-.872a.925.925 0 01.769-.37.92.92 0 01.766.37c.193.248.29.535.29.873v2.79zm80.443 3.339l-3.092-8.08c-.112-.286-.236-.429-.374-.429-.141 0-.265.143-.373.43l-3.651 9.377c0 .269.082.401.247.401.3 0 .482-.082.546-.248l.576-1.562c.094-.238.263-.36.525-.36h2.695c.236 0 .436.181.589.542.149.363.302.719.45 1.07.229.37.548.558.965.558.673 0 1.009-.358 1.009-1.073 0-.22-.036-.43-.112-.626zm-3.316-1.168h-1.877c-.25 0-.376-.089-.376-.263 0-.12.17-.618.512-1.491a66.45 66.45 0 00.65-1.584c.047-.126.107-.194.176-.194.065 0 .12.068.168.194.203.53.409 1.058.624 1.584.332.873.495 1.37.495 1.49 0 .175-.123.264-.372.264zM55.577 2.89c-.69-1.433-2.207-2.906-4.99-2.89H5.695C5.66.002 4.291-.003 2.871.708 1.448 1.404-.015 2.93.001 5.732v48.536c.002.037-.004 1.413.703 2.843C1.393 58.536 2.896 60 5.652 60h44.935c.035-.002 1.404.004 2.823-.707 1.424-.697 2.886-2.223 2.87-5.025V5.733c-.002-.037.005-1.414-.703-2.843zM.877 5.732c.015-2.49 1.179-3.61 2.386-4.236A6.027 6.027 0 014.945.959c.463-.079.75-.074.75-.077h44.892c2.472.015 3.585 1.187 4.208 2.402a6.13 6.13 0 01.534 1.694c.077.465.073.755.077.755v3.744H43.291c-.068-2.472-.961-4.432-2.06-4.432-1.094 0-1.988 1.96-2.053 4.432h-1.421c-.066-2.472-.96-4.432-2.057-4.432-1.095 0-1.99 1.96-2.056 4.432H.877V5.732zm0 4.187H33.64c.036 2.536.944 4.57 2.06 4.57 1.117 0 2.024-2.034 2.058-4.57h1.415c.035 2.536.943 4.57 2.058 4.57 1.117 0 2.026-2.034 2.061-4.57h12.113v12.684h-42.92c-.075-2.453-.965-4.389-2.055-4.389-1.09 0-1.98 1.936-2.055 4.389h-7.5V9.919zm54.53 44.35c-.018 2.488-1.183 3.608-2.388 4.235a6.018 6.018 0 01-1.682.54c-.463.076-.75.071-.75.075H5.695c-2.472-.015-3.585-1.188-4.208-2.403a6.09 6.09 0 01-.535-1.693c-.076-.465-.073-.755-.075-.755v-4.437H8.37c.027 2.557.938 4.613 2.061 4.613s2.035-2.056 2.06-4.613h1.413c.025 2.557.937 4.613 2.06 4.613 1.124 0 2.035-2.056 2.06-4.613h37.381v4.437zm0-4.88H18.02c-.074-2.452-.964-4.388-2.055-4.388-1.09 0-1.98 1.936-2.055 4.388h-1.422c-.076-2.452-.966-4.388-2.056-4.388s-1.98 1.936-2.055 4.388h-7.5V38.1H28.05c.022 2.562.936 4.625 2.06 4.625 1.126 0 2.038-2.063 2.061-4.625h1.44c.023 2.562.936 4.625 2.06 4.625 1.126 0 2.039-2.063 2.06-4.625h1.442c.02 2.562.934 4.625 2.058 4.625 1.127 0 2.039-2.063 2.061-4.625h12.113v11.289zm-12.119-11.73c-.077-2.446-.967-4.377-2.056-4.377-1.087 0-1.978 1.931-2.054 4.377h-1.451c-.077-2.446-.966-4.377-2.054-4.377-1.087 0-1.977 1.931-2.056 4.377h-1.45c-.079-2.446-.967-4.377-2.056-4.377-1.086 0-1.976 1.931-2.055 4.377H.876V23.045H8.37c.027 2.556.938 4.613 2.061 4.613s2.035-2.057 2.06-4.614h42.915V37.66H43.288z" fill="#fff"/></svg>