<svg width="123" height="54" fill="none" xmlns="http://www.w3.org/2000/svg"><path d="M52.713 10.769H.855v1.656h51.858V10.77zm0 10.768H.855v1.657h51.858v-1.657zM.855 32.306h51.858v1.657H.855v-1.657zm51.858 10.769H.855v1.656h51.858v-1.656z" fill="#949494"/><path d="M31.283 9.526c0-1.144.96-2.07 2.143-2.07 1.183 0 2.143.926 2.143 2.07v4.142c0 1.144-.96 2.07-2.143 2.07-1.183 0-2.143-.926-2.143-2.07V9.526zm0 21.537c0-1.143.96-2.07 2.143-2.07 1.183 0 2.143.927 2.143 2.07v4.142c0 1.144-.96 2.071-2.143 2.071-1.183 0-2.143-.927-2.143-2.07v-4.143zm-3.854-2.07c-1.183 0-2.143.927-2.143 2.07v4.142c0 1.144.96 2.071 2.143 2.071 1.184 0 2.143-.927 2.143-2.07v-4.143c0-1.143-.96-2.07-2.143-2.07zM8.142 20.295c0-1.144.959-2.071 2.143-2.071 1.183 0 2.142.927 2.142 2.07v4.143c0 1.143-.96 2.07-2.143 2.07-1.183 0-2.142-.927-2.142-2.07v-4.142zm2.142 19.466c-1.183 0-2.142.927-2.142 2.071v4.142c0 1.144.959 2.07 2.143 2.07 1.183 0 2.142-.926 2.142-2.07v-4.142c0-1.144-.96-2.07-2.143-2.07zm3.858 2.071c0-1.144.959-2.07 2.143-2.07 1.183 0 2.142.926 2.142 2.07v4.142c0 1.144-.96 2.07-2.142 2.07-1.184 0-2.143-.926-2.143-2.07v-4.142zM39.426 7.455c-1.183 0-2.143.927-2.143 2.071v4.142c0 1.144.96 2.07 2.143 2.07 1.183 0 2.143-.926 2.143-2.07V9.526c0-1.144-.96-2.07-2.143-2.07zm-2.143 23.608c0-1.143.96-2.07 2.143-2.07 1.183 0 2.143.927 2.143 2.07v4.142c0 1.144-.96 2.071-2.143 2.071-1.183 0-2.143-.927-2.143-2.07v-4.143z" fill="#fff"/><path fill-rule="evenodd" clip-rule="evenodd" d="M0 4.162C0 1.864 1.909 0 4.263 0h45.474C52.09 0 54 1.864 54 4.162v45.675c0 2.3-1.909 4.163-4.263 4.163H4.263C1.91 54 0 52.136 0 49.837V4.163zm4.263-1.387h45.474c.785 0 1.42.621 1.42 1.387v45.675c0 .767-.635 1.388-1.42 1.388H4.263c-.785 0-1.42-.621-1.42-1.388V4.163c0-.766.635-1.387 1.42-1.387z" fill="#fff"/><path d="M70.39 19.797v7.506H66V6h8.31c1.6 0 3.005.293 4.214.878 1.22.585 2.156 1.42 2.81 2.502.653 1.073.98 2.297.98 3.672 0 2.088-.717 3.736-2.151 4.945-1.424 1.2-3.4 1.8-5.926 1.8H70.39zm0-3.555h3.92c1.161 0 2.044-.273 2.649-.82.614-.546.921-1.326.921-2.34 0-1.044-.307-1.888-.921-2.532-.615-.644-1.463-.975-2.546-.995h-4.024v6.687zm16.15 11.061V6h7.462c2.585 0 4.546.497 5.882 1.492 1.337.986 2.005 2.434 2.005 4.346 0 1.043-.269 1.965-.805 2.765-.537.79-1.283 1.37-2.239 1.741 1.093.273 1.951.824 2.575 1.653.634.83.951 1.844.951 3.044 0 2.048-.653 3.599-1.96 4.652-1.307 1.054-3.17 1.59-5.59 1.61h-8.28zm4.39-9.276v5.75h3.76c1.034 0 1.839-.244 2.414-.732.586-.497.878-1.18.878-2.048 0-1.951-1.01-2.941-3.028-2.97H90.93zm0-3.102h3.248c2.214-.04 3.321-.922 3.321-2.648 0-.966-.282-1.659-.848-2.078-.556-.43-1.439-.644-2.648-.644H90.93v5.37zM123 6v14.031c0 2.331-.732 4.175-2.195 5.53-1.453 1.356-3.443 2.034-5.969 2.034-2.487 0-4.463-.658-5.926-1.975-1.463-1.317-2.209-3.126-2.238-5.428V6h4.389v14.06c0 1.395.332 2.415.995 3.058.673.634 1.6.951 2.78.951 2.468 0 3.721-1.297 3.76-3.892V6H123zM76.923 42.263c-.176 1.544-.731 2.737-1.667 3.58-.928.835-2.166 1.253-3.712 1.253-1.676 0-3.02-.619-4.034-1.855C66.503 44.004 66 42.35 66 40.278v-1.404c0-1.357.234-2.55.701-3.58.475-1.03 1.144-1.818 2.008-2.366.864-.555 1.864-.832 3-.832 1.508 0 2.716.434 3.625 1.303.91.862 1.44 2.059 1.589 3.59h-1.88c-.163-1.163-.517-2.006-1.063-2.527-.54-.521-1.296-.782-2.27-.782-1.195 0-2.134.455-2.816 1.364-.676.909-1.014 2.202-1.014 3.88v1.414c0 1.584.322 2.844.965 3.78.643.936 1.543 1.404 2.7 1.404 1.038 0 1.834-.241 2.386-.722.559-.488.93-1.334 1.111-2.537h1.88zm6.654 4.833c-1.429 0-2.591-.482-3.488-1.444-.896-.97-1.344-2.263-1.344-3.88v-.341c0-1.077.198-2.036.594-2.878.403-.849.961-1.51 1.676-1.985a4.13 4.13 0 012.338-.722c1.37 0 2.436.464 3.196 1.393.76.93 1.14 2.26 1.14 3.991v.772h-7.142c.026 1.07.328 1.935.906 2.597.585.655 1.325.983 2.222.983.636 0 1.176-.134 1.617-.401a4.106 4.106 0 001.16-1.063l1.1.882c-.883 1.397-2.208 2.096-3.975 2.096zm-.224-9.726c-.727 0-1.338.274-1.831.822-.494.541-.8 1.303-.916 2.286h5.28v-.14c-.051-.943-.298-1.671-.74-2.186-.442-.522-1.04-.782-1.793-.782zm8.137-1.324l.058 1.364c.805-1.043 1.858-1.564 3.157-1.564 2.228 0 3.351 1.293 3.37 3.88v7.17h-1.802v-7.18c-.006-.782-.181-1.36-.526-1.735-.338-.374-.867-.561-1.588-.561a2.55 2.55 0 00-1.54.481 3.251 3.251 0 00-1.032 1.264v7.73h-1.803V36.046h1.705zm11.75-2.626v2.626h1.968v1.434h-1.968v6.728c0 .434.088.762.263.983.175.213.474.32.896.32.208 0 .494-.04.858-.12v1.504c-.474.134-.935.2-1.384.2-.805 0-1.412-.25-1.822-.751-.409-.502-.614-1.214-.614-2.136V37.48h-1.919v-1.434h1.919V33.42h1.803zm8.457 13.676c-1.429 0-2.591-.482-3.488-1.444-.896-.97-1.344-2.263-1.344-3.88v-.341c0-1.077.198-2.036.594-2.878.403-.849.961-1.51 1.676-1.985a4.13 4.13 0 012.338-.722c1.371 0 2.436.464 3.196 1.393.76.93 1.14 2.26 1.14 3.991v.772h-7.142c.026 1.07.328 1.935.906 2.597.585.655 1.325.983 2.222.983.636 0 1.176-.134 1.617-.401a4.1 4.1 0 001.16-1.063l1.101.882c-.884 1.397-2.209 2.096-3.976 2.096zm-.224-9.726c-.727 0-1.338.274-1.831.822-.494.541-.799 1.303-.916 2.286h5.281v-.14c-.052-.943-.299-1.671-.741-2.186-.442-.522-1.039-.782-1.793-.782zm11.527.34a5.251 5.251 0 00-.887-.07c-1.182 0-1.984.518-2.406 1.555v7.7h-1.803V36.046h1.754l.029 1.254c.591-.97 1.429-1.454 2.514-1.454.351 0 .617.047.799.14v1.725z" fill="#fff"/></svg>